<svg width="317" height="86" viewBox="0 0 317 86" fill="none" xmlns="http://www.w3.org/2000/svg">
<g clip-path="url(#clip0_1992_154)">
<path fill-rule="evenodd" clip-rule="evenodd" d="M19.9068 9.24505C17.7722 7.18585 17.7722 3.76659 19.9068 1.70745C21.9355 -0.249651 25.1494 -0.249651 27.1782 1.70745L38.4919 12.6215C38.8133 12.9316 39.0863 13.2725 39.311 13.635H56.4208C56.6459 13.2725 56.9189 12.9316 57.24 12.6215L68.5536 1.70745C70.5824 -0.249651 73.7963 -0.249651 75.8251 1.70745C77.96 3.76659 77.96 7.18585 75.8251 9.24505L71.2747 13.635H74.6667C86.4485 13.635 96 23.1863 96 34.9684V64.3312C96 76.1131 86.4485 85.6645 74.6667 85.6645H21.3333C9.55125 85.6645 0 76.1131 0 64.3312V34.9683C0 23.1862 9.55125 13.635 21.3333 13.635H24.4575L19.9068 9.24505ZM21.3333 23.925C15.4423 23.925 10.6667 28.7006 10.6667 34.5916V64.7077C10.6667 70.5989 15.4423 75.3744 21.3333 75.3744H74.6667C80.5579 75.3744 85.3333 70.5989 85.3333 64.7077V34.5916C85.3333 28.7006 80.5579 23.925 74.6667 23.925H21.3333ZM26.6667 44.6932C26.6667 41.7477 29.0545 39.3598 32 39.3598C34.9455 39.3598 37.3333 41.7477 37.3333 44.6932V49.4613C37.3333 52.4069 34.9455 54.7947 32 54.7947C29.0545 54.7947 26.6667 52.4069 26.6667 49.4613V44.6932ZM64 39.3598C61.0544 39.3598 58.6667 41.7477 58.6667 44.6932V49.4613C58.6667 52.4069 61.0544 54.7947 64 54.7947C66.9456 54.7947 69.3333 52.4069 69.3333 49.4613V44.6932C69.3333 41.7477 66.9456 39.3598 64 39.3598Z" fill="#00AEEC"/>
</g>
<g clip-path="url(#clip1_1992_154)">
<path d="M303.555 76.7253C302.715 76.7253 301.998 76.7925 301.295 76.7118C299.869 76.5479 298.443 76.5802 297.016 76.5372C296.094 76.513 296.121 76.513 296.043 75.621C295.815 72.8994 295.565 70.1804 295.321 67.4615C295.109 65.073 294.907 62.6818 294.674 60.2959C294.461 58.109 294.206 55.9274 293.975 53.7431C293.755 51.6904 293.551 49.635 293.323 47.5851C293.034 45.0047 292.735 42.4255 292.427 39.8474C292.15 37.5691 291.876 35.2852 291.57 33.0096C291.091 29.4813 290.599 25.9546 290.099 22.4293C289.561 18.6733 288.917 14.936 288.243 11.2042C288.122 10.5352 288.138 10.5111 288.777 10.4036C291.436 9.94953 294.107 9.56266 296.811 9.62175C297.104 9.62982 297.398 9.63519 297.688 9.6728C298.164 9.73191 298.411 9.96297 298.438 10.5164C298.532 12.4455 298.666 14.3746 298.808 16.3009C299.037 19.4579 299.284 22.6148 299.52 25.7689C299.67 27.8002 299.799 29.8259 299.952 31.8517C300.197 35.108 300.455 38.3616 300.702 41.6179C300.852 43.6087 300.984 45.605 301.137 47.5959C301.37 50.5191 301.626 53.4394 301.862 56.3599C302.011 58.2192 302.145 60.0811 302.304 61.9403C302.537 64.6942 302.79 67.448 303.029 70.2019C303.209 72.3512 303.373 74.5061 303.555 76.7253ZM200.647 9.65132C201.037 9.65132 201.625 9.60833 202.205 9.66207C202.943 9.72923 203.085 9.91998 203.131 10.6615C203.343 14.0521 203.542 17.4455 203.767 20.8389C204.014 24.4982 204.285 28.1521 204.557 31.806C204.806 35.1618 205.056 38.5174 205.325 41.8731C205.617 45.5593 205.942 49.2401 206.237 52.9263C206.46 55.75 206.651 58.5738 206.882 61.4002C207.102 64.0224 207.36 66.6394 207.596 69.2589C207.797 71.513 208.001 73.7698 208.197 76.0267C208.259 76.7414 208.208 76.7871 207.438 76.7683C205.421 76.7199 203.416 76.4834 201.399 76.5398C200.937 76.5533 200.803 76.3411 200.725 75.9032C200.559 74.9494 200.586 73.9795 200.484 73.0149C200.207 70.4652 200.049 67.9048 199.815 65.3496C199.606 63.0283 199.353 60.7124 199.114 58.3937C198.902 56.2739 198.693 54.1542 198.467 52.0316C198.242 49.9495 198.003 47.8645 197.766 45.7797C197.549 43.8613 197.337 41.943 197.106 40.0247C196.765 37.2143 196.427 34.404 196.056 31.5991C195.715 29.0252 195.329 26.4595 194.966 23.8882C194.472 20.3956 193.916 16.9108 193.301 13.4396C193.161 12.6536 193.012 11.869 192.856 11.086C192.775 10.6911 192.848 10.4627 193.299 10.4009C194.485 10.2424 195.67 9.99521 196.862 9.87969C198.054 9.76953 199.246 9.54653 200.647 9.65132ZM285.086 43.5255C287.358 43.5255 287.411 43.5416 287.777 45.5862C288.224 48.1091 288.538 50.6533 288.836 53.1977C289.15 55.9086 289.467 58.6195 289.757 61.333C289.991 63.5173 290.187 65.7071 290.407 67.8913C290.638 70.1804 290.883 72.4614 291.122 74.7478C291.253 76.0401 291.377 77.3325 291.525 78.6221C291.568 78.9956 291.455 79.1943 291.087 79.2373C290.311 79.326 289.54 79.4281 288.766 79.5114C287.35 79.6645 285.929 79.815 284.508 79.9467C283.775 80.0138 283.727 79.9735 283.59 79.2642C282.345 72.8295 281.096 66.4002 279.861 59.9628C279.039 55.6828 278.24 51.4003 277.434 47.1203C277.325 46.5315 277.226 45.9412 277.133 45.3498C277.08 45.0112 277.171 44.7936 277.555 44.7022C280.113 44.1031 282.699 43.641 285.086 43.5255ZM189.653 43.5255C192.082 43.5255 192.072 43.5336 192.448 45.7394C193.027 49.1541 193.438 52.5878 193.806 56.0322C194.166 59.3744 194.558 62.714 194.91 66.0563C195.149 68.3427 195.337 70.6345 195.559 72.9182C195.718 74.5437 195.906 76.1637 196.078 77.7866C196.099 77.9853 196.11 78.1842 196.123 78.3856C196.158 79.181 196.123 79.2454 195.358 79.3233C193.841 79.4819 192.321 79.6135 190.804 79.7639C190.254 79.8177 189.706 79.8983 189.161 79.952C188.436 80.0192 188.412 80.0165 188.27 79.283C187.76 76.7065 187.266 74.1245 186.766 71.548C185.569 65.3416 184.358 59.1407 183.168 52.9343C182.693 50.4519 182.285 47.9586 181.818 45.4733C181.732 45.0192 181.796 44.8071 182.266 44.6969C184.801 44.1058 187.352 43.6436 189.653 43.5255ZM221.724 69.549V79.9655C221.724 80.0649 221.713 80.1669 221.727 80.2663C221.778 80.7715 221.593 80.9945 221.072 80.973C220.387 80.9435 219.708 80.9623 219.023 80.9784C217.595 81.0053 216.164 80.9488 214.738 81.1126C213.948 81.204 213.965 81.1556 213.887 80.3228C213.653 77.7006 213.398 75.0809 213.159 72.4587C212.939 70.038 212.74 67.612 212.515 65.1912C212.287 62.7006 212.031 60.2181 211.801 57.7302C211.642 56.0697 211.503 54.412 211.363 52.7517C211.18 50.5915 211.011 48.4341 210.821 46.274C210.74 45.3632 210.807 45.2342 211.709 45.1402C214.037 44.8838 216.381 44.811 218.72 44.9226C219.302 44.9549 219.882 45.0676 220.446 45.2047C221.158 45.374 221.235 45.4787 221.273 46.223C221.351 47.7222 221.429 49.2213 221.469 50.7232C221.515 52.3916 221.477 54.0628 221.539 55.7312C221.694 60.3336 221.67 64.9413 221.724 69.549ZM316.966 70.0219V79.8848C316.966 80.0515 316.961 80.218 316.969 80.3873C317.004 80.8198 316.803 80.973 316.392 80.9703C315.383 80.9623 314.376 80.9703 313.369 80.9838C312.23 80.9945 311.095 80.9891 309.959 81.1126C309.21 81.1986 309.205 81.1422 309.138 80.398C308.829 76.9832 308.504 73.5684 308.192 70.1482C307.908 66.9967 307.644 63.8425 307.354 60.6882C307.056 57.4347 306.731 54.1891 306.44 50.9382C306.295 49.31 306.174 47.6819 306.053 46.0537C306.005 45.3444 306.083 45.2181 306.882 45.1536C308.273 45.0434 309.659 44.8554 311.061 44.8796C312.456 44.9065 313.855 44.8286 315.244 45.0945C316.419 45.3202 316.478 45.3874 316.547 46.6448C316.749 50.3444 316.687 54.0547 316.819 57.7544C316.953 61.693 316.859 65.6318 316.966 70.0219ZM282.716 25.6265C283.536 25.6749 284.183 25.6346 284.828 25.777C285.239 25.8711 285.446 26.0564 285.486 26.497C285.679 28.6169 285.889 30.7393 286.101 32.8619C286.27 34.5841 286.45 36.3062 286.625 38.0285L286.641 38.1278C286.78 39.2133 286.748 39.2429 285.693 39.302C284.753 39.353 283.815 39.4362 282.877 39.4927C282.259 39.5303 282.063 39.6351 281.961 38.7351C281.609 35.5594 281.201 32.3917 280.811 29.2188C280.704 28.3269 280.583 27.4367 280.451 26.548C280.374 26.0456 280.57 25.7689 281.04 25.7286C281.657 25.6722 282.275 25.6561 282.716 25.6265ZM187.59 25.6399C188.224 25.6749 188.877 25.6265 189.516 25.7743C189.881 25.8576 190.066 26.0108 190.101 26.4272C190.179 27.4212 190.332 28.4126 190.426 29.4067C190.724 32.4562 191.006 35.5083 191.285 38.5604C191.344 39.224 191.331 39.2375 190.71 39.2832C189.61 39.3638 188.506 39.4443 187.403 39.49C186.761 39.5195 186.68 39.4416 186.6 38.7861C186.321 36.54 186.057 34.2913 185.789 32.0424C185.571 30.1885 185.389 28.3347 185.126 26.4862C185.053 25.9759 185.22 25.8361 185.628 25.7528C186.275 25.6211 186.925 25.6641 187.59 25.6399ZM221.09 34.0386C221.09 35.9704 221.096 37.8995 221.088 39.834C221.088 40.7018 221.077 40.7071 220.215 40.6964C219.178 40.7018 218.142 40.648 217.111 40.5351C216.446 40.4518 216.432 40.4733 216.413 39.7668C216.346 37.4051 216.276 35.0435 216.228 32.6819C216.193 31.0833 216.174 29.4901 216.078 27.8914C216.027 27.0666 216.072 27.0585 216.864 27.0478C218.032 27.0343 219.198 27.0881 220.357 27.2655C221.056 27.373 221.088 27.373 221.09 28.1467C221.096 30.1107 221.096 32.0746 221.096 34.0413H221.09V34.0386ZM316.381 34.0897C316.381 36.0242 316.386 37.9559 316.378 39.8876C316.378 40.6991 316.365 40.7045 315.552 40.6991C314.483 40.6893 313.416 40.639 312.351 40.5486C311.822 40.5083 311.666 40.2853 311.701 39.8044C311.706 39.7372 311.701 39.67 311.701 39.6028C311.621 35.8737 311.54 32.1472 311.465 28.418C311.462 28.2193 311.451 28.0204 311.459 27.819C311.47 27.0666 311.473 27.0478 312.227 27.0532C313.267 27.0585 314.298 27.1123 315.335 27.2144C316.598 27.3407 316.376 27.4965 316.381 28.4959C316.386 30.3578 316.384 32.2251 316.381 34.0897ZM184.983 38.6249C185.008 39.6862 185.008 39.6835 183.993 39.9306C183.303 40.0999 182.613 40.2853 181.917 40.4384C181.324 40.5728 181.219 40.4975 181.117 39.9145C180.408 35.9597 179.702 32.0022 178.999 28.0446C178.856 27.2252 178.894 27.1741 179.699 27.0317C180.69 26.8571 181.678 26.6851 182.669 26.5319C183.3 26.4326 183.38 26.4676 183.507 27.1633C183.756 28.5685 183.993 29.979 184.178 31.395C184.465 33.6357 184.702 35.8844 184.959 38.1278C184.981 38.2918 184.975 38.4611 184.983 38.6249ZM274.294 27.1445C275.592 26.9324 276.9 26.7174 278.208 26.5104C278.678 26.438 278.819 26.7335 278.88 27.1526C279.103 28.7002 279.383 30.2369 279.565 31.7872C279.834 34.0333 280.202 36.2686 280.272 38.5335C280.277 38.7646 280.274 39.001 280.28 39.2321C280.293 39.5921 280.113 39.7775 279.78 39.8555C278.894 40.0542 278.009 40.2531 277.125 40.4653C276.701 40.5674 276.559 40.3873 276.489 39.9736C276.223 38.3993 275.917 36.8328 275.645 35.2637C275.186 32.6792 274.74 30.0919 274.294 27.5045C274.284 27.4105 274.294 27.3112 274.294 27.1445ZM214.652 36.2175C214.614 37.5931 214.698 38.7915 214.51 39.9897C214.453 40.3685 214.343 40.6131 213.935 40.648C213.06 40.7206 212.187 40.7905 211.317 40.879C210.896 40.9247 210.778 40.7421 210.708 40.3283C210.512 39.1058 210.547 37.8673 210.429 36.6395C210.206 34.3208 210.112 31.9861 209.961 29.6594C209.924 29.0924 209.867 28.5309 209.822 27.964C209.798 27.647 209.924 27.4696 210.262 27.4562C211.395 27.4105 212.523 27.2037 213.661 27.244C214.327 27.2682 214.383 27.3112 214.432 27.9828C214.461 28.4476 214.453 28.9177 214.464 29.3852L214.652 36.2175ZM309.903 34.8849C309.903 36.4863 309.922 38.0875 309.9 39.6888C309.887 40.5217 309.793 40.5943 309.006 40.6668C308.227 40.7394 307.454 40.7985 306.677 40.8817C306.241 40.9274 306.037 40.7985 306.01 40.2961C305.897 38.1681 305.744 36.0403 305.596 33.915C305.481 32.1526 305.349 30.3928 305.226 28.633C305.212 28.4314 305.223 28.23 305.21 28.0311C305.191 27.6792 305.298 27.4723 305.693 27.4588C306.793 27.4212 307.886 27.209 308.995 27.2494C309.672 27.2735 309.683 27.2843 309.734 27.9881C309.898 30.2826 309.914 32.5824 309.903 34.8849ZM181.732 63.5065C183.123 65.038 183.193 66.8515 182.733 68.7484C182.272 70.6452 181.219 72.2089 179.944 73.6114C177.804 75.9541 175.218 77.6845 172.469 79.1541C167.735 81.6849 162.717 83.3668 157.482 84.3609C153.715 85.0729 149.924 85.621 146.092 85.8305C144.924 85.895 143.759 85.9488 142.591 85.9407C141.745 85.9407 140.897 85.9649 140.054 85.9354C139.337 85.9085 139.232 85.7849 139.173 85.0353C138.956 82.3459 138.77 79.6537 138.531 76.9643C138.252 73.8478 137.925 70.7339 137.624 67.6173C137.404 65.3631 137.213 63.1036 136.971 60.8548C136.692 58.2057 136.378 55.562 136.072 52.9128C135.793 50.468 135.524 48.0177 135.229 45.57C134.899 42.8592 134.558 40.1537 134.195 37.4481C133.84 34.8426 133.471 32.2391 133.086 29.6379C132.461 25.3564 131.781 21.0833 131.046 16.8194C130.451 13.3429 129.788 9.87813 129.059 6.42726C128.962 5.96514 129.102 5.77976 129.507 5.61048C133.392 3.99845 137.264 2.35688 141.147 0.736778C141.869 0.435866 142.61 0.183314 143.378 0.0409179C143.909 -0.0584907 144.046 0.0516648 144.03 0.586323C143.99 1.95386 144.046 3.32678 143.912 4.68894C143.879 5.05436 143.861 5.42095 143.858 5.78781C143.797 10.6911 143.737 15.597 143.866 20.5029C143.979 24.8017 144.205 29.0978 144.454 33.3939C144.65 36.7845 144.932 40.1751 145.222 43.5605C145.507 46.8784 145.853 50.1912 146.178 53.5093C146.24 54.1407 146.296 54.1999 147.013 54.1031C148.426 53.8907 149.851 53.7731 151.279 53.7512C155.718 53.7404 160.083 54.3502 164.401 55.3739C168.178 56.2713 171.854 57.4668 175.377 59.138C177.122 59.9655 178.792 60.922 180.314 62.1363C180.833 62.5448 181.294 63.0149 181.732 63.5065ZM276.306 62.7006C278.025 64.2079 278.651 66.0536 278.162 68.3373C277.756 70.2207 276.838 71.8031 275.613 73.219C273.649 75.4947 271.261 77.225 268.679 78.6705C263.615 81.5076 258.22 83.3508 252.55 84.4146C249.455 85.0023 246.333 85.438 243.195 85.7204C241.418 85.8735 239.633 86.0643 237.638 85.9407H235.307C234.853 85.9407 234.596 85.7983 234.558 85.2582C234.386 82.8993 234.187 80.5432 233.975 78.1869C233.75 75.6989 233.5 73.211 233.264 70.7232C233.049 68.4368 232.85 66.145 232.617 63.8586C232.402 61.7038 232.155 59.5544 231.921 57.4024C231.704 55.382 231.495 53.3615 231.256 51.3439C230.968 48.8989 230.665 46.454 230.362 44.0091C230.077 41.7281 229.795 39.4497 229.492 37.1713C229.169 34.7295 228.829 32.2899 228.471 29.8527C227.993 26.6905 227.481 23.539 226.976 20.3821C226.272 15.9116 225.457 11.4592 224.532 7.02908C224.495 6.83295 224.476 6.63144 224.417 6.44068C224.277 6.01081 224.412 5.78243 224.833 5.61586C228.96 4.00114 232.955 2.05327 237.119 0.516468C237.665 0.312277 238.215 0.0839056 238.803 0.0247976C239.332 -0.0289368 239.466 0.0570382 239.415 0.621249C239.136 3.68142 239.297 6.75771 239.152 9.82057C239.034 12.3192 239.047 14.826 239.174 17.3272C239.203 17.9613 239.227 18.5982 239.222 19.2294C239.19 22.2333 239.348 25.2343 239.501 28.2327C239.697 32.1956 239.984 36.1505 240.277 40.108C240.489 42.964 240.766 45.8146 241.034 48.6678C241.176 50.2288 241.329 51.7872 241.523 53.34C241.627 54.1972 241.67 54.2052 242.511 54.0924C243.993 53.8908 245.478 53.727 246.976 53.7485C252.233 53.8156 257.385 54.6459 262.441 56.0885C265.864 57.0611 269.197 58.2756 272.343 59.9762C273.763 60.7317 275.092 61.6456 276.306 62.7006ZM154.907 77.5017C156.851 76.5721 166.288 69.1917 167.037 67.9881C162.457 66.0133 157.86 64.1783 152.917 62.6764L154.907 77.5017ZM262.1 68.4717C262.342 68.211 262.315 68.0096 261.987 67.8645C261.335 67.5663 260.688 67.2492 260.027 66.9779C256.502 65.5351 252.961 64.138 249.328 62.9989C249.011 62.9021 248.686 62.6818 248.281 62.8699L250.238 77.4372C250.528 77.5017 250.641 77.3673 250.77 77.2761C254.069 74.8526 257.391 72.4587 260.559 69.8527C261.093 69.4174 261.622 68.9795 262.1 68.4717Z" fill="#00AEEC"/>
</g>
<defs>
<clipPath id="clip0_1992_154">
<rect width="96" height="86" fill="white"/>
</clipPath>
<clipPath id="clip1_1992_154">
<rect width="188" height="86" fill="white" transform="translate(129)"/>
</clipPath>
</defs>
</svg>
