<svg width="458" height="70" viewBox="0 0 458 70" fill="none" xmlns="http://www.w3.org/2000/svg">
<g clip-path="url(#clip0_1998_238)">
<path d="M57.6301 0C56.7359 1.6022 55.933 3.25967 55.2032 4.95396C48.2691 3.90425 41.2072 3.90425 34.2549 4.95396C33.5433 3.25967 32.7221 1.6022 31.828 0C25.3136 1.12343 18.9634 3.09393 12.9418 5.87475C1.00781 23.7201 -2.22201 41.1049 -0.616207 58.2504C6.37258 63.4622 14.2008 67.4401 22.54 69.9816C24.4194 67.4401 26.08 64.7329 27.5033 61.9153C24.8027 60.9024 22.1932 59.6317 19.6933 58.1584C20.3502 57.6796 20.9889 57.1823 21.6093 56.7035C36.2621 63.6649 53.2324 63.6649 67.9034 56.7035C68.5238 57.2192 69.1625 57.7164 69.8194 58.1584C67.3195 59.6501 64.7101 60.9024 61.9912 61.9337C63.4145 64.7514 65.075 67.4586 66.9546 70C75.2935 67.4586 83.1217 63.499 90.111 58.2873C92.0083 38.3978 86.8627 21.1602 76.516 5.8932C70.5129 3.11238 64.1627 1.1418 57.6483 0.0368229L57.6301 0ZM29.547 47.698C25.0399 47.698 21.2992 43.5727 21.2992 38.4715C21.2992 33.3702 24.8939 29.2265 29.5288 29.2265C34.1637 29.2265 37.8497 33.3886 37.7767 38.4715C37.7037 43.5544 34.1455 47.698 29.547 47.698ZM59.9475 47.698C55.4221 47.698 51.7179 43.5727 51.7179 38.4715C51.7179 33.3702 55.3126 29.2265 59.9475 29.2265C64.5824 29.2265 68.2502 33.3886 68.1771 38.4715C68.1041 43.5544 64.5459 47.698 59.9475 47.698ZM120.985 9.70842H148.22C154.784 9.70842 160.338 10.7421 164.88 12.8095C169.062 14.584 172.614 17.5959 175.066 21.4481C177.361 25.2537 178.538 29.6395 178.458 34.094C178.508 38.569 177.286 42.9648 174.936 46.76C172.315 50.7692 168.566 53.8966 164.172 55.741C159.357 57.9561 153.388 59.0602 146.265 59.0535H120.985L120.985 9.70842ZM145.985 46.4982C150.408 46.4982 153.807 45.384 156.181 43.1555C158.617 40.7717 159.758 37.5247 159.742 34.0235C159.755 30.7821 158.745 27.7586 156.57 25.4654C154.442 23.3309 151.239 22.2603 146.963 22.2536H138.443V46.4982H145.985ZM219.24 58.973C215.647 58.0643 212.21 56.615 209.045 54.6738V42.9744C211.808 45.0031 214.92 46.4982 218.223 47.3843C221.836 48.4969 225.589 49.0767 229.366 49.106C230.67 49.1762 231.972 48.9491 233.177 48.4415C234.035 47.9985 234.464 47.4347 234.464 46.8507C234.483 46.1912 234.23 45.5534 233.766 45.0887C232.969 44.4702 232.034 44.0588 231.042 43.8906L222.662 41.9877C217.86 40.86 214.452 39.2994 212.437 37.3059C210.391 35.2239 209.305 32.3711 209.444 29.4425C209.41 26.8174 210.358 24.2759 212.097 22.3242C214.16 20.1219 216.762 18.5071 219.639 17.6424C223.343 16.4676 227.211 15.9066 231.092 15.9811C234.715 15.9468 238.329 16.373 241.846 17.2498C244.688 17.9292 247.416 19.0213 249.947 20.4918V31.5669C247.574 30.1774 245.023 29.1238 242.365 28.4357C239.486 27.6565 236.517 27.2638 233.536 27.2678C229.16 27.2678 226.972 28.0195 226.972 29.5231C226.957 30.2076 227.35 30.8345 227.969 31.1139C229.165 31.627 230.418 31.9921 231.701 32.2013L238.684 33.4699C243.22 34.2754 246.602 35.685 248.83 37.6986C251.058 39.7123 252.175 42.659 252.182 46.5387C252.254 50.6901 250.139 54.5685 246.625 56.7279C242.947 59.2181 237.696 60.4599 230.872 60.4532C226.949 60.4593 223.04 59.9618 219.24 58.973ZM268.682 57.4929C264.949 55.7616 261.802 52.9605 259.634 49.4382C257.611 45.9841 256.575 42.0324 256.641 38.0207C256.581 34.0115 257.672 30.0704 259.783 26.6736C262.034 23.2067 265.237 20.4775 269.001 18.8203C273.578 16.8077 278.536 15.8317 283.527 15.9609C290.51 15.9609 296.306 17.4409 300.915 20.401V33.3187C299.162 32.1291 297.246 31.2032 295.229 30.57C292.97 29.8505 290.614 29.4937 288.245 29.5129C283.916 29.5129 280.527 30.3116 278.08 31.9091C274.64 33.8468 273.407 38.2319 275.327 41.7036C275.953 42.8348 276.869 43.7746 277.98 44.4241C280.354 46.0418 283.799 46.8506 288.315 46.8506C290.646 46.8562 292.965 46.517 295.199 45.8437C297.236 45.2542 299.193 44.4121 301.025 43.3367V55.8215C295.627 58.9978 289.464 60.6075 283.217 60.4731C278.211 60.611 273.239 59.5917 268.682 57.4929ZM318.304 57.4929C314.528 55.753 311.326 52.9578 309.076 49.4382C306.955 45.9923 305.855 42.0064 305.903 37.9502C305.836 33.9421 306.939 30.0025 309.076 26.6233C311.338 23.1931 314.526 20.4888 318.264 18.8304C327.444 15.0713 337.715 15.0713 346.895 18.8304C350.618 20.4762 353.794 23.1672 356.044 26.583C358.166 29.9747 359.258 33.9192 359.186 37.9301C359.236 41.9822 358.146 45.9655 356.044 49.4181C353.818 52.9401 350.631 55.7374 346.866 57.4728C337.747 61.4196 327.423 61.4196 318.304 57.4728L318.304 57.4929ZM339.523 44.988C341.267 43.1711 342.191 40.7086 342.077 38.1818C342.199 35.6775 341.272 33.2368 339.523 31.4561C337.627 29.7014 335.108 28.7969 332.54 28.9491C329.974 28.8129 327.461 29.7153 325.556 31.4561C323.814 33.2405 322.892 35.6796 323.013 38.1818C322.9 40.7067 323.819 43.1675 325.556 44.988C327.443 46.7647 329.963 47.6914 332.54 47.5554C335.119 47.7068 337.645 46.7779 339.523 44.988ZM401.156 18.5686V33.8121C399.071 32.5566 396.668 31.9441 394.242 32.0502C390.521 32.0502 387.648 33.1979 385.653 35.4734C383.658 37.7488 382.66 41.2828 382.66 46.0754V59.0435H365.551V17.8135H382.311V30.9024C383.242 26.1099 384.745 22.5758 386.82 20.3004C388.856 18.0359 391.813 16.8461 394.801 16.8771C397.015 16.8724 399.241 17.4027 401.156 18.5686ZM458 8.29886V59.0434H440.891V49.7805C439.601 53.0782 437.283 55.8628 434.287 57.7143C430.979 59.6161 427.218 60.5634 423.413 60.4529C419.832 60.5371 416.308 59.5453 413.287 57.6036C410.361 55.6856 408.031 52.9743 406.563 49.7805C404.961 46.2551 404.163 42.412 404.228 38.5341C404.116 34.5135 404.964 30.5247 406.703 26.9052C408.3 23.5899 410.794 20.7977 413.895 18.8505C417.084 16.901 420.753 15.8994 424.48 15.9609C432.621 15.9609 438.091 19.5318 440.891 26.6736V8.29886H458ZM438.377 44.7463C440.14 42.9949 441.092 40.5761 441.001 38.0811C441.076 35.6599 440.121 33.322 438.377 31.6575C434.342 28.3421 428.555 28.3421 424.52 31.6575C422.781 33.36 421.842 35.7285 421.936 38.1717C421.847 40.6376 422.797 43.0262 424.55 44.7464C426.401 46.4835 428.868 47.3944 431.393 47.2736C433.964 47.4168 436.482 46.5054 438.377 44.7463ZM192.883 6.7383C197.594 6.7383 201.413 10.2002 201.413 14.4708C201.413 18.7414 197.594 22.2033 192.883 22.2033C188.172 22.2033 184.354 18.7414 184.354 14.4708C184.354 10.2002 188.172 6.7383 192.883 6.7383ZM184.344 27.5295C189.802 29.8448 195.954 29.8448 201.413 27.5295V59.2649H184.344V27.5295Z"/>
</g>
<defs>
</defs>
</svg>
