<svg width="83" height="81" viewBox="0 0 83 81" xmlns="http://www.w3.org/2000/svg">
<path fill-rule="evenodd" clip-rule="evenodd" d="M41.3763 0C18.4963 0 0 18.5625 0 41.5268C0 59.8835 11.8512 75.422 28.292 80.9215C30.3475 81.335 31.1004 80.028 31.1004 78.9286C31.1004 77.9659 31.0327 74.666 31.0327 71.2277C19.5228 73.7032 17.1259 66.2774 17.1259 66.2774C15.2762 61.4647 12.5355 60.2277 12.5355 60.2277C8.76836 57.6838 12.8099 57.6838 12.8099 57.6838C16.9887 57.9589 19.1815 61.9464 19.1815 61.9464C22.8801 68.2712 28.84 66.4841 31.2376 65.3839C31.5798 62.7024 32.6766 60.8462 33.8411 59.8151C24.6612 58.8524 15.0027 55.2774 15.0027 39.3263C15.0027 34.7887 16.6457 31.0762 19.2492 28.1888C18.8385 27.1578 17.3995 22.8943 19.6608 17.188C19.6608 17.188 23.1545 16.0878 31.0318 21.4507C34.4044 20.5417 37.8825 20.0792 41.3763 20.0753C44.87 20.0753 48.4314 20.5571 51.72 21.4507C59.5982 16.0878 63.0919 17.188 63.0919 17.188C65.3532 22.8943 63.9134 27.1578 63.5026 28.1888C66.1747 31.0762 67.75 34.7887 67.75 39.3263C67.75 55.2774 58.0915 58.7832 48.843 59.8151C50.3505 61.1213 51.6514 63.596 51.6514 67.5152C51.6514 73.0839 51.5837 77.5533 51.5837 78.9277C51.5837 80.028 52.3374 81.335 54.3921 80.9224C70.8329 75.4211 82.6841 59.8835 82.6841 41.5268C82.7518 18.5625 64.1878 0 41.3763 0Z"/>
</svg>
