<svg width="369" height="81" viewBox="0 0 369 81" fill="none" xmlns="http://www.w3.org/2000/svg">
<path d="M161.499 35.5326H139.903C139.346 35.5326 138.894 35.9816 138.894 36.5349V47.0174C138.894 47.5705 139.346 48.0208 139.903 48.0208H148.328V61.0445C148.328 61.0445 146.436 61.6848 141.206 61.6848C135.036 61.6848 126.417 59.4465 126.417 40.6294C126.417 21.8122 135.392 19.3321 143.818 19.3321C151.112 19.3321 154.254 20.6069 156.254 21.2215C156.882 21.4124 157.463 20.7913 157.463 20.2379L159.872 10.1096C159.872 9.85045 159.784 9.53862 159.487 9.32696C158.675 8.75183 153.721 6 141.206 6C126.789 6 112 12.0895 112 41.3632C112 70.637 128.932 75 143.2 75C155.014 75 162.181 69.9881 162.181 69.9881C162.476 69.8262 162.508 69.4164 162.508 69.2286V36.5349C162.508 35.9816 162.056 35.5326 161.499 35.5326Z" fill="#24292F"/>
<path d="M272.797 9.50756C272.797 8.94979 272.352 8.49976 271.795 8.49976H259.635C259.08 8.49976 258.628 8.94979 258.628 9.50756C258.628 9.51011 258.631 32.8375 258.631 32.8375H239.677V9.50756C239.677 8.94979 239.23 8.49976 238.674 8.49976H226.514C225.961 8.49976 225.51 8.94979 225.51 9.50756V72.6788C225.51 73.236 225.961 73.6895 226.514 73.6895H238.674C239.23 73.6895 239.677 73.236 239.677 72.6788V45.6582H258.631C258.631 45.6582 258.598 72.6768 258.598 72.6788C258.598 73.236 259.049 73.6895 259.605 73.6895H271.794C272.351 73.6895 272.796 73.236 272.797 72.6788V9.50756Z" fill="#24292F"/>
<path d="M351.991 27.8627C345.138 27.8627 340.476 30.8984 340.476 30.8984V9.50756C340.476 8.94979 340.027 8.49976 339.473 8.49976H327.278C326.724 8.49976 326.273 8.94979 326.273 9.50756V72.6788C326.273 73.236 326.724 73.6895 327.28 73.6895H335.74C336.121 73.6895 336.41 73.4944 336.623 73.153C336.833 72.8137 337.137 70.2403 337.137 70.2403C337.137 70.2403 342.123 74.9316 351.563 74.9316C362.644 74.9316 369 69.351 369 49.8793C369 30.4076 358.85 27.8627 351.991 27.8627ZM347.232 63.4551C343.046 63.3285 340.208 61.443 340.208 61.443V41.4379C340.208 41.4379 343.008 39.7339 346.444 39.429C350.79 39.0428 354.977 40.3458 354.977 50.6368C354.977 61.4887 353.087 63.6304 347.232 63.4551Z" fill="#24292F"/>
<path d="M184.446 17.7969C184.446 13.4501 180.935 9.93738 176.604 9.93738C172.278 9.93738 168.765 13.4501 168.765 17.7969C168.765 22.1395 172.278 25.6619 176.604 25.6619C180.935 25.6619 184.446 22.1395 184.446 17.7969Z" fill="#24292F"/>
<path d="M183.576 59.3531V30.193C183.576 29.6394 183.126 29.1868 182.57 29.1868H170.449C169.892 29.1868 169.395 29.7562 169.395 30.3098V72.0873C169.395 73.3148 170.166 73.6801 171.163 73.6801H182.084C183.283 73.6801 183.576 73.0958 183.576 72.0676V59.3531Z" fill="#24292F"/>
<path d="M218.525 29.1811H209.403C209.403 29.1811 209.389 17.2202 209.389 17.2176C209.389 16.7646 209.154 16.5385 208.627 16.5385H196.197C195.714 16.5385 195.454 16.7496 195.454 17.2106V29.5733C195.454 29.5733 189.225 31.0663 188.804 31.1868C188.385 31.3078 188.076 31.6917 188.076 32.1498V39.9186C188.076 40.4773 188.525 40.9279 189.081 40.9279H195.454V59.6177C195.454 73.4996 205.263 74.8631 211.881 74.8631C214.905 74.8631 218.522 73.899 219.12 73.6801C219.481 73.5483 219.691 73.1769 219.691 72.7742L219.701 64.2281C219.701 63.6709 219.227 63.2195 218.693 63.2195C218.161 63.2195 216.802 63.4343 215.402 63.4343C210.921 63.4343 209.403 61.3662 209.403 58.689C209.403 56.0139 209.403 40.9279 209.403 40.9279H218.525C219.081 40.9279 219.531 40.4773 219.531 39.9186V30.1876C219.531 29.6301 219.081 29.1811 218.525 29.1811Z" fill="#24292F"/>
<path d="M319.011 29.2817H306.944C306.391 29.2817 305.94 29.7347 305.94 30.2919V61.2666C305.94 61.2666 302.875 63.4934 298.523 63.4934C294.172 63.4934 293.018 61.5333 293.018 57.3038V30.2919C293.018 29.7347 292.568 29.2817 292.014 29.2817H279.768C279.215 29.2817 278.762 29.7347 278.762 30.2919V59.349C278.762 71.912 285.815 74.9856 295.517 74.9856C303.476 74.9856 309.894 70.6201 309.894 70.6201C309.894 70.6201 310.199 72.9206 310.337 73.1934C310.476 73.4653 310.836 73.7403 311.225 73.7403L319.016 73.7061C319.569 73.7061 320.022 73.2526 320.022 72.6974L320.018 30.2919C320.018 29.7347 319.567 29.2817 319.011 29.2817Z" fill="#24292F"/>
<path fill-rule="evenodd" clip-rule="evenodd" d="M41.3763 0C18.4963 0 0 18.5625 0 41.5268C0 59.8835 11.8512 75.422 28.292 80.9215C30.3475 81.335 31.1004 80.028 31.1004 78.9286C31.1004 77.9659 31.0327 74.666 31.0327 71.2277C19.5228 73.7032 17.1259 66.2774 17.1259 66.2774C15.2762 61.4647 12.5355 60.2277 12.5355 60.2277C8.76836 57.6838 12.8099 57.6838 12.8099 57.6838C16.9887 57.9589 19.1815 61.9464 19.1815 61.9464C22.8801 68.2712 28.84 66.4841 31.2376 65.3839C31.5798 62.7024 32.6766 60.8462 33.8411 59.8151C24.6612 58.8524 15.0027 55.2774 15.0027 39.3263C15.0027 34.7887 16.6457 31.0762 19.2492 28.1888C18.8385 27.1578 17.3995 22.8943 19.6608 17.188C19.6608 17.188 23.1545 16.0878 31.0318 21.4507C34.4044 20.5417 37.8825 20.0792 41.3763 20.0753C44.87 20.0753 48.4313 20.5571 51.72 21.4507C59.5982 16.0878 63.0919 17.188 63.0919 17.188C65.3532 22.8943 63.9134 27.1578 63.5026 28.1888C66.1747 31.0762 67.75 34.7887 67.75 39.3263C67.75 55.2774 58.0915 58.7832 48.843 59.8151C50.3505 61.1212 51.6514 63.596 51.6514 67.5152C51.6514 73.0839 51.5837 77.5533 51.5837 78.9277C51.5837 80.028 52.3374 81.335 54.3921 80.9224C70.8329 75.4211 82.6841 59.8835 82.6841 41.5268C82.7518 18.5625 64.1878 0 41.3763 0Z" fill="#24292F"/>
</svg>
