<svg width="24" height="24" viewBox="0 0 24 24" fill="none" xmlns="http://www.w3.org/2000/svg">
<mask id="mask0_5378_428" style="mask-type:luminance" maskUnits="userSpaceOnUse" x="0" y="0" width="24" height="24">
<path d="M23.1817 9.81815H12V14.4545H18.4363C17.8363 17.3999 15.3272 19.0908 12 19.0908C8.0727 19.0908 4.90907 15.9272 4.90907 12C4.90907 8.0727 8.0727 4.90907 12 4.90907C13.6909 4.90907 15.2181 5.50907 16.4181 6.49088L19.909 2.99999C17.7818 1.14545 15.0545 0 12 0C5.34543 0 0 5.34543 0 12C0 18.6545 5.34543 23.9999 12 23.9999C17.9999 23.9999 23.4545 19.6363 23.4545 12C23.4545 11.2909 23.3454 10.5272 23.1817 9.81815Z" fill="white"/>
</mask>
<g mask="url(#mask0_5378_428)">
<path d="M-1.09082 19.0908V4.90907L8.18187 12L-1.09082 19.0908Z" fill="#FBBC05"/>
</g>
<mask id="mask1_5378_428" style="mask-type:luminance" maskUnits="userSpaceOnUse" x="0" y="0" width="24" height="24">
<path d="M23.1817 9.81815H12V14.4545H18.4363C17.8363 17.3999 15.3272 19.0908 12 19.0908C8.0727 19.0908 4.90907 15.9272 4.90907 12C4.90907 8.0727 8.0727 4.90907 12 4.90907C13.6909 4.90907 15.2181 5.50907 16.4181 6.49088L19.909 2.99999C17.7818 1.14545 15.0545 0 12 0C5.34543 0 0 5.34543 0 12C0 18.6545 5.34543 23.9999 12 23.9999C17.9999 23.9999 23.4545 19.6363 23.4545 12C23.4545 11.2909 23.3454 10.5272 23.1817 9.81815Z" fill="white"/>
</mask>
<g mask="url(#mask1_5378_428)">
<path d="M-1.09082 4.90906L8.18187 11.9999L12 8.67269L25.0909 6.54542V-1.09091H-1.09082V4.90906Z" fill="#EA4335"/>
</g>
<mask id="mask2_5378_428" style="mask-type:luminance" maskUnits="userSpaceOnUse" x="0" y="0" width="24" height="24">
<path d="M23.1817 9.81815H12V14.4545H18.4363C17.8363 17.3999 15.3272 19.0908 12 19.0908C8.0727 19.0908 4.90907 15.9272 4.90907 12C4.90907 8.0727 8.0727 4.90907 12 4.90907C13.6909 4.90907 15.2181 5.50907 16.4181 6.49088L19.909 2.99999C17.7818 1.14545 15.0545 0 12 0C5.34543 0 0 5.34543 0 12C0 18.6545 5.34543 23.9999 12 23.9999C17.9999 23.9999 23.4545 19.6363 23.4545 12C23.4545 11.2909 23.3454 10.5272 23.1817 9.81815Z" fill="white"/>
</mask>
<g mask="url(#mask2_5378_428)">
<path d="M-1.09082 19.0908L15.2728 6.54542L19.5818 7.09087L25.0909 -1.09091V25.0908H-1.09082V19.0908Z" fill="#34A853"/>
</g>
<mask id="mask3_5378_428" style="mask-type:luminance" maskUnits="userSpaceOnUse" x="0" y="0" width="24" height="24">
<path d="M23.1817 9.81815H12V14.4545H18.4363C17.8363 17.3999 15.3272 19.0908 12 19.0908C8.0727 19.0908 4.90907 15.9272 4.90907 12C4.90907 8.0727 8.0727 4.90907 12 4.90907C13.6909 4.90907 15.2181 5.50907 16.4181 6.49088L19.909 2.99999C17.7818 1.14545 15.0545 0 12 0C5.34543 0 0 5.34543 0 12C0 18.6545 5.34543 23.9999 12 23.9999C17.9999 23.9999 23.4545 19.6363 23.4545 12C23.4545 11.2909 23.3454 10.5272 23.1817 9.81815Z" fill="white"/>
</mask>
<g mask="url(#mask3_5378_428)">
<path d="M25.0908 25.0908L8.18181 12L6 10.3636L25.0908 4.90907V25.0908Z" fill="#4285F4"/>
</g>
</svg>
