<svg width="100" height="83" viewBox="0 0 100 83" fill="none" xmlns="http://www.w3.org/2000/svg">
<path d="M68.5156 12.0257C72.9998 12.0028 76.8372 14.825 78.3672 18.8226C79.4448 18.3353 80.624 18.0762 81.833 18.0814H81.8438C86.1724 18.0853 89.7013 21.3519 90.249 25.5355C94.5859 25.7403 97.994 29.3643 98 33.7474V33.7532C97.994 38.2625 94.3867 41.9678 89.8721 41.9739H56.0605V41.6741C51.5671 40.6005 48.2431 36.6231 48.0127 31.8792L48 31.3548C47.997 25.5953 52.5295 20.8594 58.2383 20.7103C59.1394 15.808 63.3672 12.052 68.5156 12.0257Z" fill="white" stroke="#292929" stroke-width="4"/>
<mask id="path-2-outside-1_1995_210" maskUnits="userSpaceOnUse" x="0.179443" y="0" width="99" height="83" fill="black">
<rect fill="white" x="0.179443" width="99" height="83"/>
<path fill-rule="evenodd" clip-rule="evenodd" d="M94.6975 58.1422C94.3114 56.4599 92.8598 54.071 91.6353 52.3866C90.3201 50.5882 88.2325 48.1538 85.7836 46.7884C84.8998 46.287 83.8778 45.9452 82.9032 45.6282C82.4283 45.4665 81.7242 45.2408 81.4289 45.0812C80.166 43.8105 78.955 42.489 77.799 41.1198C76.5745 39.686 75.6908 38.6625 73.3307 36.8641C70.0414 34.3613 65.7114 32.768 60.8549 32.2231C60.8343 30.3999 60.539 27.7147 60.2438 25.6677C60.0597 24.4369 59.8255 23.2142 59.5417 22.0026C59.4034 21.4575 59.2211 20.9247 58.9966 20.4093C58.1562 18.5902 56.7501 18.2255 56.0026 18.1571C55.9097 18.1571 55.7961 18.1343 55.7073 18.1343C54.6157 18.1343 53.6632 18.5894 52.8496 19.4997C52.6431 18.1322 52.4635 16.6778 52.259 15.2668C51.9638 12.9898 51.6912 10.8289 51.3505 9.16724C51.1481 8.12094 50.9437 7.34605 50.6939 6.73279C49.7173 4.25071 47.8589 4 47.1094 4C44.4788 4 43.434 6.6644 43.0953 7.52838C42.7099 8.5063 42.3244 9.7805 41.939 11.351C41.3485 13.6715 40.7125 16.9513 40.6671 18.4762C40.6465 19.0439 40.5763 20.7967 43.6611 27.783C44.3652 29.3535 45.4306 31.676 46.4755 33.5635C46.0212 33.7003 45.5896 33.837 45.1354 33.9986C41.2576 35.3391 36.9029 37.8896 33.5455 40.7115C33.5222 40.6684 33.4914 40.6298 33.4547 40.5975C32.6189 39.4457 31.7646 38.3073 30.8922 37.1831C29.8701 35.8861 28.6911 34.4275 26.8307 34.4275C26.1493 34.4275 25.5154 34.6347 24.9723 34.9972C24.3137 35.453 23.8594 36 23.5641 36.5926C23.2028 36.1575 22.8167 35.6602 22.3624 35.0884C20.5929 32.7907 18.6436 29.9916 16.8969 27.5095C15.5588 25.6448 14.3117 23.8693 13.335 22.5495C11.8153 20.546 10.6817 19.2262 8.84403 19.2262C8.36909 19.2262 7.91485 19.3173 7.50601 19.4997C6.93821 19.7483 5.94087 20.3865 5.48663 21.8886C4.92087 23.8465 5.23887 28.1705 5.62293 31.471C6.46333 38.8448 7.4606 40.3697 7.77861 40.8483C8.23286 41.5527 9.11663 42.8725 17.7806 47.2193C21.0245 48.8354 24.3591 50.3603 26.9691 51.4293C25.8334 57.2782 26.1287 65.746 30.9831 71.4809C34.8154 76.01 40.5557 78.3077 48.0179 78.3077C50.8757 78.3077 53.3699 77.9679 55.026 77.7628C55.1849 77.74 55.344 77.7173 55.4802 77.6945C56.3185 77.5805 61.4455 75.9417 66.2545 74.1888C73.2852 71.6176 78.0942 69.3863 80.5885 67.5444C81.1168 67.1538 81.624 66.7353 82.1082 66.2909C83.1303 65.4269 83.9914 64.654 85.8972 63.7653C87.326 63.1064 88.6186 63.0381 89.7522 62.9925C91.115 62.9469 92.996 62.8557 94.175 61.1693C94.6086 60.6244 95.0381 59.6008 94.6974 58.1443"/>
</mask>
<path fill-rule="evenodd" clip-rule="evenodd" d="M94.6975 58.1422C94.3114 56.4599 92.8598 54.071 91.6353 52.3866C90.3201 50.5882 88.2325 48.1538 85.7836 46.7884C84.8998 46.287 83.8778 45.9452 82.9032 45.6282C82.4283 45.4665 81.7242 45.2408 81.4289 45.0812C80.166 43.8105 78.955 42.489 77.799 41.1198C76.5745 39.686 75.6908 38.6625 73.3307 36.8641C70.0414 34.3613 65.7114 32.768 60.8549 32.2231C60.8343 30.3999 60.539 27.7147 60.2438 25.6677C60.0597 24.4369 59.8255 23.2142 59.5417 22.0026C59.4034 21.4575 59.2211 20.9247 58.9966 20.4093C58.1562 18.5902 56.7501 18.2255 56.0026 18.1571C55.9097 18.1571 55.7961 18.1343 55.7073 18.1343C54.6157 18.1343 53.6632 18.5894 52.8496 19.4997C52.6431 18.1322 52.4635 16.6778 52.259 15.2668C51.9638 12.9898 51.6912 10.8289 51.3505 9.16724C51.1481 8.12094 50.9437 7.34605 50.6939 6.73279C49.7173 4.25071 47.8589 4 47.1094 4C44.4788 4 43.434 6.6644 43.0953 7.52838C42.7099 8.5063 42.3244 9.7805 41.939 11.351C41.3485 13.6715 40.7125 16.9513 40.6671 18.4762C40.6465 19.0439 40.5763 20.7967 43.6611 27.783C44.3652 29.3535 45.4306 31.676 46.4755 33.5635C46.0212 33.7003 45.5896 33.837 45.1354 33.9986C41.2576 35.3391 36.9029 37.8896 33.5455 40.7115C33.5222 40.6684 33.4914 40.6298 33.4547 40.5975C32.6189 39.4457 31.7646 38.3073 30.8922 37.1831C29.8701 35.8861 28.6911 34.4275 26.8307 34.4275C26.1493 34.4275 25.5154 34.6347 24.9723 34.9972C24.3137 35.453 23.8594 36 23.5641 36.5926C23.2028 36.1575 22.8167 35.6602 22.3624 35.0884C20.5929 32.7907 18.6436 29.9916 16.8969 27.5095C15.5588 25.6448 14.3117 23.8693 13.335 22.5495C11.8153 20.546 10.6817 19.2262 8.84403 19.2262C8.36909 19.2262 7.91485 19.3173 7.50601 19.4997C6.93821 19.7483 5.94087 20.3865 5.48663 21.8886C4.92087 23.8465 5.23887 28.1705 5.62293 31.471C6.46333 38.8448 7.4606 40.3697 7.77861 40.8483C8.23286 41.5527 9.11663 42.8725 17.7806 47.2193C21.0245 48.8354 24.3591 50.3603 26.9691 51.4293C25.8334 57.2782 26.1287 65.746 30.9831 71.4809C34.8154 76.01 40.5557 78.3077 48.0179 78.3077C50.8757 78.3077 53.3699 77.9679 55.026 77.7628C55.1849 77.74 55.344 77.7173 55.4802 77.6945C56.3185 77.5805 61.4455 75.9417 66.2545 74.1888C73.2852 71.6176 78.0942 69.3863 80.5885 67.5444C81.1168 67.1538 81.624 66.7353 82.1082 66.2909C83.1303 65.4269 83.9914 64.654 85.8972 63.7653C87.326 63.1064 88.6186 63.0381 89.7522 62.9925C91.115 62.9469 92.996 62.8557 94.175 61.1693C94.6086 60.6244 95.0381 59.6008 94.6974 58.1443" fill="white"/>
<path d="M91.6353 52.3866L94.8708 50.0346L94.864 50.0253L91.6353 52.3866ZM85.7836 46.7884L83.8097 50.2675L83.8227 50.2748L83.8358 50.2821L85.7836 46.7884ZM82.9032 45.6282L81.6145 49.4149L81.6402 49.4236L81.666 49.432L82.9032 45.6282ZM81.4289 45.0812L78.5918 47.901L79.0079 48.3196L79.5271 48.6002L81.4289 45.0812ZM77.799 41.1198L80.8552 38.5392L80.848 38.5306L80.8406 38.522L77.799 41.1198ZM73.3307 36.8641L75.755 33.6825L75.7528 33.6809L73.3307 36.8641ZM60.8549 32.2231L56.8552 32.2684L56.8952 35.8039L60.4089 36.1982L60.8549 32.2231ZM60.2438 25.6677L64.2028 25.0966L64.2013 25.0864L64.1998 25.0761L60.2438 25.6677ZM59.5417 22.0026L63.4363 21.0903L63.4279 21.0545L63.4189 21.0189L59.5417 22.0026ZM58.9966 20.4093L62.6637 18.8118L62.6462 18.7715L62.6278 18.7317L58.9966 20.4093ZM56.0026 18.1571L56.367 14.1738L56.1852 14.1571H56.0026V18.1571ZM52.8496 19.4997L48.8944 20.0969L50.1643 28.5062L55.8319 22.1653L52.8496 19.4997ZM52.259 15.2668L48.2923 15.7812L48.2961 15.8109L48.3004 15.8404L52.259 15.2668ZM51.3505 9.16724L47.4232 9.92672L47.4275 9.94878L47.432 9.9708L51.3505 9.16724ZM50.6939 6.73279L46.9717 8.1974L46.9804 8.21961L46.9894 8.24172L50.6939 6.73279ZM43.0953 7.52838L46.8167 8.99505L46.8195 8.98808L43.0953 7.52838ZM41.939 11.351L45.8155 12.3375L45.8197 12.3209L45.8237 12.3043L41.939 11.351ZM40.6671 18.4762L44.6645 18.6215L44.6649 18.6084L44.6653 18.5953L40.6671 18.4762ZM43.6611 27.783L40.0019 29.3987L40.0065 29.4091L40.0111 29.4194L43.6611 27.783ZM46.4755 33.5635L47.6286 37.3937L52.3764 35.9642L49.975 31.6262L46.4755 33.5635ZM45.1354 33.9986L46.4423 37.7791L46.4593 37.7732L46.4763 37.7672L45.1354 33.9986ZM33.5455 40.7115L30.0291 42.6179L32.3659 46.9281L36.1192 43.7735L33.5455 40.7115ZM33.4547 40.5975L30.2172 42.9467L30.4796 43.3083L30.8152 43.6031L33.4547 40.5975ZM30.8922 37.1831L34.0524 34.7309L34.0432 34.7191L34.0339 34.7073L30.8922 37.1831ZM24.9723 34.9972L22.7515 31.6704L22.7237 31.6889L22.6963 31.7079L24.9723 34.9972ZM23.5641 36.5926L20.4869 39.148L24.4074 43.8691L27.1443 38.3766L23.5641 36.5926ZM22.3624 35.0884L19.1933 37.5291L19.2117 37.5529L19.2304 37.5765L22.3624 35.0884ZM16.8969 27.5095L20.168 25.2074L20.1574 25.1925L20.1468 25.1776L16.8969 27.5095ZM13.335 22.5495L16.5503 20.17L16.5362 20.151L16.5219 20.1321L13.335 22.5495ZM7.50601 19.4997L9.11028 23.1639L9.12278 23.1584L9.13525 23.1528L7.50601 19.4997ZM5.48663 21.8886L1.65787 20.7307L1.65071 20.7544L1.64385 20.7781L5.48663 21.8886ZM5.62293 31.471L9.59721 31.018L9.59612 31.0086L5.62293 31.471ZM7.77861 40.8483L11.1403 38.6806L11.1254 38.6575L11.1102 38.6346L7.77861 40.8483ZM17.7806 47.2193L15.9869 50.7946L15.997 50.7996L17.7806 47.2193ZM26.9691 51.4293L30.8958 52.1918L31.5211 48.9713L28.4853 47.7278L26.9691 51.4293ZM30.9831 71.4809L34.0366 68.8971L34.0362 68.8966L30.9831 71.4809ZM55.026 77.7628L55.5176 81.7325L55.5559 81.7278L55.5942 81.7223L55.026 77.7628ZM55.4802 77.6945L54.9414 73.7309L54.8804 73.7392L54.8195 73.7494L55.4802 77.6945ZM66.2545 74.1888L67.6243 77.947L67.6283 77.9455L66.2545 74.1888ZM80.5885 67.5444L82.9646 70.7621L82.9665 70.7607L80.5885 67.5444ZM82.1082 66.2909L79.526 63.236L79.4634 63.2889L79.4031 63.3442L82.1082 66.2909ZM85.8972 63.7653L84.2223 60.1328L84.2144 60.1364L84.2066 60.1401L85.8972 63.7653ZM89.7522 62.9925L89.6185 58.9947L89.605 58.9952L89.5915 58.9957L89.7522 62.9925ZM94.175 61.1693L91.0451 58.6785L90.9678 58.7757L90.8967 58.8774L94.175 61.1693ZM94.6975 58.1422L98.5961 57.2475C98.2775 55.859 97.6041 54.4535 96.9794 53.3262C96.3219 52.1398 95.5604 50.9832 94.8708 50.0346L91.6353 52.3866L88.3999 54.7386C88.9348 55.4744 89.5112 56.3544 89.9822 57.2041C90.4859 58.113 90.7314 58.7431 90.7988 59.037L94.6975 58.1422ZM91.6353 52.3866L94.864 50.0253C93.4584 48.1034 90.9552 45.092 87.7314 43.2947L85.7836 46.7884L83.8358 50.2821C85.5099 51.2155 87.1818 53.0731 88.4067 54.7479L91.6353 52.3866ZM85.7836 46.7884L87.7575 43.3094C86.4695 42.5786 85.0695 42.1265 84.1404 41.8243L82.9032 45.6282L81.666 49.432C82.6861 49.7638 83.3302 49.9954 83.8097 50.2675L85.7836 46.7884ZM82.9032 45.6282L84.1919 41.8415C83.895 41.7404 83.6783 41.67 83.436 41.5841C83.3259 41.5451 83.2515 41.517 83.2068 41.499C83.1856 41.4905 83.1838 41.4894 83.1967 41.4952C83.206 41.4993 83.256 41.5218 83.3307 41.5622L81.4289 45.0812L79.5271 48.6002C79.9875 48.849 80.5223 49.0389 80.7614 49.1237C81.0637 49.231 81.4365 49.3543 81.6145 49.4149L82.9032 45.6282ZM81.4289 45.0812L84.2659 42.2614C83.0793 41.0676 81.9415 39.8258 80.8552 38.5392L77.799 41.1198L74.7427 43.7003C75.9685 45.1521 77.2526 46.5535 78.5918 47.901L81.4289 45.0812ZM77.799 41.1198L80.8406 38.522C79.5121 36.9664 78.4218 35.7146 75.755 33.6825L73.3307 36.8641L70.9063 40.0457C72.9597 41.6104 73.6369 42.4057 74.7573 43.7175L77.799 41.1198ZM73.3307 36.8641L75.7528 33.6809C71.7799 30.6578 66.7267 28.8569 61.301 28.2481L60.8549 32.2231L60.4089 36.1982C64.6962 36.6792 68.3029 38.0647 70.9085 40.0474L73.3307 36.8641ZM60.8549 32.2231L64.8547 32.1778C64.831 30.0861 64.5051 27.1926 64.2028 25.0966L60.2438 25.6677L56.2848 26.2388C56.573 28.2368 56.8376 30.7136 56.8552 32.2684L60.8549 32.2231ZM60.2438 25.6677L64.1998 25.0761C63.9996 23.7377 63.745 22.408 63.4363 21.0903L59.5417 22.0026L55.6471 22.9149C55.9061 24.0203 56.1198 25.1361 56.2878 26.2593L60.2438 25.6677ZM59.5417 22.0026L63.4189 21.0189C63.2273 20.2638 62.9747 19.5257 62.6637 18.8118L58.9966 20.4093L55.3294 22.0067C55.4675 22.3237 55.5796 22.6512 55.6645 22.9862L59.5417 22.0026ZM58.9966 20.4093L62.6278 18.7317C61.0004 15.2092 58.0262 14.3256 56.367 14.1738L56.0026 18.1571L55.6382 22.1405C55.6091 22.1379 55.5251 22.1271 55.4201 22.0647C55.3638 22.0312 55.3245 21.9959 55.3048 21.9739C55.2853 21.9522 55.3143 21.9763 55.3654 22.0869L58.9966 20.4093ZM56.0026 18.1571V14.1571C56.1344 14.1571 56.2325 14.1649 56.2693 14.168C56.3046 14.171 56.33 14.1741 56.2971 14.1704C56.2833 14.1689 56.2069 14.1601 56.1246 14.153C56.0407 14.1457 55.8904 14.1343 55.7073 14.1343V18.1343V22.1343C55.5686 22.1343 55.4658 22.1259 55.4311 22.1228C55.3979 22.12 55.3725 22.1169 55.4097 22.1211C55.4279 22.1231 55.5047 22.1319 55.5901 22.1391C55.6772 22.1466 55.8243 22.1572 56.0026 22.1572V18.1571ZM55.7073 18.1343V14.1343C53.335 14.1343 51.3396 15.1867 49.8673 16.834L52.8496 19.4997L55.8319 22.1653C55.8873 22.1033 55.9221 22.0749 55.9323 22.067C55.9416 22.0598 55.9304 22.0697 55.8986 22.0849C55.866 22.1004 55.8261 22.1147 55.784 22.1241C55.7422 22.1334 55.7144 22.1343 55.7073 22.1343V18.1343ZM52.8496 19.4997L56.8047 18.9024C56.5891 17.4744 56.4497 16.2946 56.2177 14.6932L52.259 15.2668L48.3004 15.8404C48.4772 17.061 48.6971 18.7901 48.8944 20.0969L52.8496 19.4997ZM52.259 15.2668L56.2258 14.7524C55.9394 12.5435 55.6465 10.2047 55.2689 8.36369L51.3505 9.16724L47.432 9.9708C47.736 11.453 47.9882 13.4362 48.2923 15.7812L52.259 15.2668ZM51.3505 9.16724L55.2777 8.40777C55.0568 7.26521 54.7935 6.19391 54.3984 5.22385L50.6939 6.73279L46.9894 8.24172C47.0939 8.49819 47.2395 8.97667 47.4232 9.92672L51.3505 9.16724ZM50.6939 6.73279L54.4161 5.26818C53.6009 3.19624 52.2763 1.7706 50.7391 0.92801C49.2812 0.128822 47.9026 0 47.1094 0V4V8C47.077 8 47.0501 7.9976 47.0217 7.9916C46.9907 7.98507 46.945 7.97131 46.8938 7.94322C46.8683 7.92924 46.8461 7.91423 46.8284 7.90008C46.8106 7.88575 46.8035 7.87732 46.806 7.88024C46.8071 7.88148 46.8796 7.96327 46.9717 8.1974L50.6939 6.73279ZM47.1094 4V0C44.2369 0 42.2786 1.5221 41.1451 2.90962C40.0769 4.21726 39.5423 5.63197 39.3712 6.06868L43.0953 7.52838L46.8195 8.98808C46.9005 8.78135 46.9722 8.60222 47.0692 8.40941C47.1676 8.21372 47.2616 8.06756 47.3407 7.97078C47.4185 7.87545 47.4338 7.88686 47.365 7.92514C47.2697 7.97812 47.162 8 47.1094 8V4ZM43.0953 7.52838L39.3739 6.06171C38.8975 7.27042 38.4624 8.73461 38.0543 10.3976L41.939 11.351L45.8237 12.3043C46.1865 10.8264 46.5223 9.74218 46.8167 8.99504L43.0953 7.52838ZM41.939 11.351L38.0626 10.3645C37.4657 12.7098 36.7284 16.3577 36.6689 18.3571L40.6671 18.4762L44.6653 18.5953C44.6966 17.5449 45.2312 14.6331 45.8155 12.3375L41.939 11.351ZM40.6671 18.4762L36.6697 18.3309C36.6155 19.823 36.847 22.2536 40.0019 29.3987L43.6611 27.783L47.3203 26.1673C45.8227 22.7756 45.1581 20.8025 44.8667 19.7003C44.7238 19.1595 44.6814 18.868 44.6686 18.7517C44.6602 18.6752 44.6624 18.6777 44.6645 18.6215L40.6671 18.4762ZM43.6611 27.783L40.0111 29.4194C40.7166 30.9929 41.8417 33.4519 42.9759 35.5008L46.4755 33.5635L49.975 31.6262C49.0195 29.9002 48.0138 27.7141 47.311 26.1466L43.6611 27.783ZM46.4755 33.5635L45.3223 29.7333C44.8328 29.8807 44.3332 30.0384 43.7945 30.2301L45.1354 33.9986L46.4763 37.7672C46.8461 37.6356 47.2097 37.5198 47.6286 37.3937L46.4755 33.5635ZM45.1354 33.9986L43.8286 30.2181C39.4362 31.7365 34.6595 34.5499 30.9719 37.6494L33.5455 40.7115L36.1192 43.7735C39.1463 41.2292 43.0791 38.9417 46.4423 37.7791L45.1354 33.9986ZM33.5455 40.7115L37.062 38.805C36.8153 38.35 36.4887 37.9385 36.0941 37.592L33.4547 40.5975L30.8152 43.6031C30.4942 43.3211 30.229 42.9868 30.0291 42.6179L33.5455 40.7115ZM33.4547 40.5975L36.6922 38.2483C35.8312 37.0617 34.9511 35.8891 34.0524 34.7309L30.8922 37.1831L27.732 39.6353C28.5781 40.7256 29.4066 41.8296 30.2172 42.9467L33.4547 40.5975ZM30.8922 37.1831L34.0339 34.7073C33.2656 33.7323 30.9329 30.4275 26.8307 30.4275V34.4275V38.4275C26.7548 38.4275 26.6693 38.4092 26.6064 38.3837C26.5568 38.3637 26.5762 38.3613 26.6691 38.436C26.7665 38.5143 26.9048 38.6448 27.0968 38.861C27.2927 39.0817 27.4917 39.3305 27.7505 39.6589L30.8922 37.1831ZM26.8307 34.4275V30.4275C25.3155 30.4275 23.9151 30.8936 22.7515 31.6704L24.9723 34.9972L27.1932 38.324C27.159 38.3469 27.1078 38.3741 27.0401 38.3951C26.9712 38.4166 26.8989 38.4275 26.8307 38.4275V34.4275ZM24.9723 34.9972L22.6963 31.7079C21.4908 32.5421 20.5843 33.6038 19.984 34.8086L23.5641 36.5926L27.1443 38.3766C27.1444 38.3763 27.1446 38.3749 27.1507 38.368C27.1569 38.3609 27.1835 38.3315 27.2484 38.2865L24.9723 34.9972ZM23.5641 36.5926L26.6414 34.0371C26.317 33.6465 25.9889 33.2228 25.4944 32.6003L22.3624 35.0884L19.2304 37.5765C19.6444 38.0976 20.0886 38.6685 20.4869 39.148L23.5641 36.5926ZM22.3624 35.0884L25.5315 32.6478C23.8282 30.436 21.9407 27.7263 20.168 25.2074L16.8969 27.5095L13.6257 29.8116C15.3466 32.2569 17.3576 35.1455 19.1933 37.5291L22.3624 35.0884ZM16.8969 27.5095L20.1468 25.1776C18.8475 23.3669 17.5491 21.5197 16.5503 20.17L13.335 22.5495L10.1197 24.929C11.0743 26.2189 12.2701 27.9228 13.6469 29.8415L16.8969 27.5095ZM13.335 22.5495L16.5219 20.1321C15.2529 18.4591 12.9723 15.2262 8.84403 15.2262V19.2262V23.2262C8.8038 23.2262 8.71536 23.215 8.62457 23.1788C8.54821 23.1483 8.55683 23.1342 8.66229 23.2213C8.77698 23.3159 8.95428 23.4867 9.2178 23.7931C9.48206 24.1004 9.77631 24.4767 10.1481 24.9669L13.335 22.5495ZM8.84403 19.2262V15.2262C7.85815 15.2262 6.8425 15.4158 5.87678 15.8465L7.50601 19.4997L9.13525 23.1528C8.98719 23.2189 8.88003 23.2262 8.84403 23.2262V19.2262ZM7.50601 19.4997L5.90174 15.8355C4.59161 16.4091 2.54309 17.8035 1.65787 20.7307L5.48663 21.8886L9.31539 23.0464C9.33317 22.9876 9.34504 22.9727 9.33686 22.9863C9.32908 22.9991 9.31278 23.0218 9.28701 23.0476C9.23892 23.0959 9.18172 23.1326 9.11028 23.1639L7.50601 19.4997ZM5.48663 21.8886L1.64385 20.7781C1.16746 22.4267 1.14396 24.5693 1.20073 26.3069C1.26252 28.1983 1.45094 30.2249 1.64973 31.9333L5.62293 31.471L9.59612 31.0086C9.41086 29.4166 9.24825 27.6309 9.19646 26.0457C9.13965 24.3067 9.24004 23.3083 9.32941 22.999L5.48663 21.8886ZM5.62293 31.471L1.64866 31.9239C2.51228 39.5015 3.60019 41.7875 4.44699 43.062L7.77861 40.8483L11.1102 38.6346C11.0882 38.6015 11.086 38.6028 11.0529 38.5316C11.0038 38.4261 10.8908 38.1582 10.7392 37.6341C10.4301 36.5653 10.0034 34.5819 9.5972 31.018L5.62293 31.471ZM7.77861 40.8483L4.41689 43.016C5.53242 44.746 7.38068 46.4768 15.9869 50.7946L17.7806 47.2193L19.5744 43.644C15.3018 41.5005 13.1248 40.1893 12.009 39.401C11.4643 39.0162 11.2466 38.8072 11.1853 38.7441C11.1679 38.7262 11.1921 38.7609 11.1403 38.6806L7.77861 40.8483ZM17.7806 47.2193L15.997 50.7996C19.3085 52.4494 22.7338 54.0171 25.453 55.1308L26.9691 51.4293L28.4853 47.7278C25.9844 46.7034 22.7404 45.2213 19.5643 43.639L17.7806 47.2193ZM26.9691 51.4293L23.0425 50.6669C21.8073 57.0283 21.9345 66.9822 27.93 74.0652L30.9831 71.4809L34.0362 68.8966C30.3229 64.5098 29.8596 57.5281 30.8958 52.1918L26.9691 51.4293ZM30.9831 71.4809L27.9296 74.0647C32.7123 79.717 39.7097 82.3077 48.0179 82.3077V78.3077V74.3077C41.4016 74.3077 36.9186 72.303 34.0366 68.8971L30.9831 71.4809ZM48.0179 78.3077V82.3077C51.1646 82.3077 53.9059 81.9321 55.5176 81.7325L55.026 77.7628L54.5344 73.7932C52.8339 74.0038 50.5867 74.3077 48.0179 74.3077V78.3077ZM55.026 77.7628L55.5942 81.7223C55.7384 81.7016 55.9487 81.6717 56.1409 81.6395L55.4802 77.6945L54.8195 73.7494C54.7392 73.7628 54.6314 73.7785 54.4577 73.8034L55.026 77.7628ZM55.4802 77.6945L56.019 81.658C56.5863 81.5809 57.3754 81.3564 57.964 81.1843C58.6864 80.973 59.5948 80.6903 60.6096 80.362C62.642 79.7045 65.1723 78.8407 67.6243 77.947L66.2545 74.1888L64.8847 70.4307C62.5277 71.2898 60.0899 72.1219 58.1471 72.7504C57.1742 73.0652 56.3431 73.3232 55.7181 73.506C54.9594 73.7279 54.7932 73.7511 54.9414 73.7309L55.4802 77.6945ZM66.2545 74.1888L67.6283 77.9455C74.6562 75.3753 79.96 72.9808 82.9646 70.7621L80.5885 67.5444L78.2124 64.3266C76.2283 65.7917 71.9142 67.8599 64.8806 70.4322L66.2545 74.1888ZM80.5885 67.5444L82.9665 70.7607C83.6086 70.286 84.2251 69.7775 84.8133 69.2375L82.1082 66.2909L79.4031 63.3442C79.023 63.6932 78.6249 64.0216 78.2105 64.328L80.5885 67.5444ZM82.1082 66.2909L84.6904 69.3457C85.674 68.5143 86.1947 68.0401 87.5878 67.3904L85.8972 63.7653L84.2066 60.1401C81.788 61.268 80.5866 62.3395 79.526 63.236L82.1082 66.2909ZM85.8972 63.7653L87.5721 67.3977C88.2275 67.0955 88.8254 67.033 89.9128 66.9893L89.7522 62.9925L89.5915 58.9957C88.4118 59.0431 86.4245 59.1174 84.2223 60.1328L85.8972 63.7653ZM89.7522 62.9925L89.8859 66.9903C91.0672 66.9508 95.0061 66.9618 97.4534 63.4611L94.175 61.1693L90.8967 58.8774C90.8869 58.8914 90.901 58.8704 90.9334 58.8485C90.9581 58.8318 90.9491 58.8449 90.8702 58.8688C90.7849 58.8947 90.6464 58.9248 90.4272 58.9482C90.2007 58.9724 89.9576 58.9834 89.6185 58.9947L89.7522 62.9925ZM94.175 61.1693L97.3049 63.66C98.4641 62.2034 99.2246 59.9366 98.5923 57.2333L94.6974 58.1443L90.8025 59.0553C90.8211 59.1349 90.8205 59.1702 90.8205 59.1661C90.8205 59.1619 90.8212 59.1325 90.8327 59.0832C90.855 58.9884 90.9109 58.8471 91.0451 58.6785L94.175 61.1693Z" fill="#292929" mask="url(#path-2-outside-1_1995_210)"/>
<path fill-rule="evenodd" clip-rule="evenodd" d="M55.7219 21.0402C56.7939 21.131 58.1631 33.2269 57.4546 33.2269C56.7254 33.2269 52.1358 33.3859 50.883 33.795C49.9231 34.111 43.6944 20.6311 43.7838 18.2719C43.8523 16.206 45.8157 6.94873 47.0477 6.94873C47.9058 6.94873 48.4377 10.9751 49.0194 15.3982C49.7217 20.7344 50.5008 26.647 52.0237 26.7606C52.5784 26.7937 53.2121 25.3621 53.852 23.9221C54.4961 22.4616 55.1463 20.9947 55.7219 21.0402ZM30.7424 42.1577C31.5735 43.2878 32.3859 44.3889 33.0216 45.176C36.1214 41.7219 41.6146 38.2429 46.1356 36.6996C55.6512 33.4314 65.6945 34.7019 71.4911 39.0589C73.5936 40.6455 74.3 41.4636 75.4864 42.8333C76.334 43.8146 77.429 45.0789 79.4568 47.1159C79.9138 47.5849 80.9984 47.9422 82.1161 48.31C82.9471 48.5847 83.799 48.8636 84.4326 49.2024C88.3802 51.382 92.3277 58.1891 91.829 58.9162C91.561 59.2963 90.8733 59.3253 89.8947 59.3625C88.6025 59.4141 86.7991 59.4843 84.7755 60.414C82.4672 61.4717 81.312 62.4634 80.2358 63.3868C79.7912 63.769 79.359 64.1389 78.8645 64.4983C73.5458 68.4235 58.35 73.6894 55.1275 74.2555L54.9343 74.2803C50.511 74.8443 39.5826 76.2367 33.3538 68.9462C28.5919 63.3744 28.9908 54.0449 30.707 49.0434C25.6874 47.3742 11.4182 40.5422 10.2111 38.6953C8.88764 36.7224 7.40418 22.6289 8.52197 22.1289C9.00814 21.9161 11.2645 25.1204 13.9986 29.0022C18.2038 34.9767 23.5412 42.5565 25.2968 41.759C25.8785 41.4884 25.9077 40.5794 25.9409 39.6374C25.97 38.6912 26.0032 37.7099 26.5974 37.3112C26.9839 37.0612 28.914 39.6787 30.7402 42.1578" fill="#292929"/>
<path fill-rule="evenodd" clip-rule="evenodd" d="M44.4405 53.6537C46.7731 57.1973 50.107 59.0945 51.8853 57.8982C53.6413 56.702 53.174 52.8418 50.8414 49.2961C48.5088 45.7504 45.1729 43.8532 43.3966 45.0515C41.6406 46.2704 42.1079 50.108 44.4405 53.6537Z" fill="white"/>
<path d="M21.7129 49.7702C26.1368 49.768 29.9474 52.6506 31.3516 56.7556C36.0531 57.3998 39.614 61.5198 39.6152 66.4177V66.4245C39.6092 71.3019 36.0687 75.4869 31.252 76.1159L31.125 76.1325H30.998L11.1494 76.1794H11.0752L11.001 76.1745C5.88414 75.8063 1.99715 71.453 2 66.3044L2.0127 65.7985C2.27412 60.6093 6.46852 56.4044 11.7041 56.4089C11.8679 56.409 12.032 56.4149 12.1953 56.4235C13.6873 52.4974 17.4099 49.7703 21.7119 49.7702L21.7139 49.7692L21.7129 49.7702Z" fill="white" stroke="#292929" stroke-width="4"/>
</svg>
