<svg width="437" height="98" viewBox="0 0 437 98" fill="none" xmlns="http://www.w3.org/2000/svg">
<g clip-path="url(#clip0_1998_237)">
<path fill-rule="evenodd" clip-rule="evenodd" d="M383.08 28.135H407.879C424.09 28.135 437.218 39.724 437.218 56.7437C437.218 73.7606 424.09 84.8636 407.879 84.8636H383.08V28.135ZM390.717 57.9196C390.717 61.4557 393.528 64.4096 397.061 64.5842V64.6017H422.096C424.739 64.5988 426.916 62.4219 426.919 59.7764C426.916 57.1309 424.739 54.9568 422.096 54.951C421.648 54.951 421.22 55.0238 420.807 55.1314C420.845 54.8637 420.88 54.5756 420.88 54.2903V54.2874C420.88 51.4877 418.575 49.1797 415.772 49.1797C414.346 49.171 412.978 49.7705 412.018 50.8241C411.828 47.2909 408.869 44.4854 405.33 44.4854C401.657 44.4854 398.633 47.5092 398.633 51.1821V51.3247C398.231 51.2519 397.827 51.2141 397.419 51.2141C393.74 51.2141 390.717 54.238 390.717 57.9167V57.9196Z" fill="#292929" style="fill:#292929;fill:color(display-p3 0.1620 0.1620 0.1620);fill-opacity:1;"/>
<path d="M362.984 28.135V58.0389L363.144 60.146L362.009 58.0389L338.508 28.135H325.702V84.8636H339.317V54.5552L339.157 52.4481L340.292 54.5552L363.793 84.8636H376.599V28.135H362.984Z" fill="#292929" style="fill:#292929;fill:color(display-p3 0.1620 0.1620 0.1620);fill-opacity:1;"/>
<path fill-rule="evenodd" clip-rule="evenodd" d="M327.388 84.8636H269.466L291.602 28.135H305.253L327.388 84.8636ZM296.622 84.8636H300.233V80.2768H313.231L305.438 69.8287H311.005L303.603 59.9451H308.746L298.428 46.1501L288.104 59.9422H293.252L285.849 69.8287H291.416L283.623 80.2768H296.622V84.8636Z" fill="#292929" style="fill:#292929;fill:color(display-p3 0.1620 0.1620 0.1620);fill-opacity:1;"/>
<path d="M245.938 72.1395V28.135H232.321V84.8636H272.763V72.1395H245.938Z" fill="#292929" style="fill:#292929;fill:color(display-p3 0.1620 0.1620 0.1620);fill-opacity:1;"/>
<path d="M214.655 28.135L192.693 50.0151V28.135H179.076V84.8636H192.693V66.0627L197.312 61.444L215.059 84.8636H232.16L206.875 51.8806L230.539 28.135H214.655Z" fill="#292929" style="fill:#292929;fill:color(display-p3 0.1620 0.1620 0.1620);fill-opacity:1;"/>
<path d="M176.401 42.5588C173.73 33.6444 165.138 27 154.277 27C141.96 27 133.046 35.0239 133.046 43.8568C133.046 53.8248 140.907 57.5529 147.714 60.146C155.819 63.2252 162.787 64.9277 162.787 68.979C162.787 71.5721 160.112 73.6791 155.738 73.6791C149.903 73.6791 145.362 69.7094 144.067 65.2508L130.776 68.8189C134.504 79.433 142.932 85.9987 154.766 85.9987C167.973 85.9987 176.89 78.6239 176.89 68.2514C176.89 57.3899 168.054 53.7433 159.626 50.6641C152.737 48.1525 147.065 46.5314 147.065 43.2078C147.065 40.4517 149.74 38.7521 153.791 38.7521C157.845 38.7521 161.896 41.1007 163.273 46.1269L176.401 42.5588Z" fill="#292929" style="fill:#292929;fill:color(display-p3 0.1620 0.1620 0.1620);fill-opacity:1;"/>
<path d="M70.5156 18.3718C74.9998 18.349 78.8372 21.1711 80.3672 25.1687C81.4448 24.6814 82.624 24.4224 83.833 24.4275H83.8438C88.1724 24.4315 91.7013 27.6981 92.249 31.8816C96.5859 32.0865 99.994 35.7104 100 40.0935V40.0994C99.994 44.6087 96.3867 48.3139 91.8721 48.3201H58.0605V48.0203C53.5671 46.9466 50.2431 42.9692 50.0127 38.2253L50 37.7009C49.997 31.9414 54.5295 27.2055 60.2383 27.0564C61.1394 22.1541 65.3672 18.3982 70.5156 18.3718Z" fill="white" stroke="#292929" style="fill:white;fill-opacity:1;stroke:#292929;stroke:color(display-p3 0.1620 0.1620 0.1620);stroke-opacity:1;" stroke-width="4"/>
<mask id="path-8-outside-1_1998_237" maskUnits="userSpaceOnUse" x="2.17944" y="6.34613" width="99" height="83" fill="black">
<rect fill="white" x="2.17944" y="6.34613" width="99" height="83"/>
<path fill-rule="evenodd" clip-rule="evenodd" d="M96.6975 64.4884C96.3114 62.806 94.8598 60.4172 93.6353 58.7327C92.3201 56.9343 90.2325 54.4999 87.7836 53.1346C86.8998 52.6331 85.8778 52.2913 84.9032 51.9743C84.4283 51.8127 83.7242 51.5869 83.4289 51.4273C82.166 50.1567 80.955 48.8351 79.799 47.4659C78.5745 46.0322 77.6908 45.0086 75.3307 43.2102C72.0414 40.7074 67.7114 39.1142 62.8549 38.5692C62.8343 36.746 62.539 34.0608 62.2438 32.0138C62.0597 30.783 61.8255 29.5603 61.5417 28.3487C61.4034 27.8036 61.2211 27.2708 60.9966 26.7554C60.1562 24.9363 58.7501 24.5717 58.0026 24.5033C57.9097 24.5033 57.7961 24.4805 57.7073 24.4805C56.6157 24.4805 55.6632 24.9356 54.8496 25.8458C54.6431 24.4784 54.4635 23.0239 54.259 21.613C53.9638 19.336 53.6912 17.175 53.3505 15.5134C53.1481 14.4671 52.9437 13.6922 52.6939 13.0789C51.7173 10.5968 49.8589 10.3461 49.1094 10.3461C46.4788 10.3461 45.434 13.0105 45.0953 13.8745C44.7099 14.8524 44.3244 16.1266 43.939 17.6971C43.3485 20.0176 42.7125 23.2974 42.6671 24.8223C42.6465 25.39 42.5763 27.1428 45.6611 34.1291C46.3652 35.6996 47.4306 38.0222 48.4755 39.9096C48.0212 40.0464 47.5896 40.1831 47.1354 40.3447C43.2576 41.6852 38.9029 44.2357 35.5455 47.0576C35.5222 47.0145 35.4914 46.9759 35.4547 46.9436C34.6189 45.7918 33.7646 44.6535 32.8922 43.5292C31.8701 42.2322 30.6911 40.7736 28.8307 40.7736C28.1493 40.7736 27.5154 40.9808 26.9723 41.3434C26.3137 41.7992 25.8594 42.3461 25.5641 42.9387C25.2028 42.5036 24.8167 42.0064 24.3624 41.4346C22.5929 39.1369 20.6436 36.3377 18.8969 33.8557C17.5588 31.991 16.3117 30.2154 15.335 28.8956C13.8153 26.8921 12.6817 25.5723 10.844 25.5723C10.3691 25.5723 9.91485 25.6635 9.50601 25.8458C8.93821 26.0944 7.94087 26.7326 7.48663 28.2347C6.92087 30.1926 7.23887 34.5166 7.62293 37.8171C8.46333 45.1909 9.4606 46.7158 9.77861 47.1944C10.2329 47.8989 11.1166 49.2186 19.7806 53.5654C23.0245 55.1815 26.3591 56.7064 28.9691 57.7755C27.8334 63.6243 28.1287 72.0921 32.9831 77.827C36.8154 82.3562 42.5557 84.6539 50.0179 84.6539C52.8757 84.6539 55.3699 84.3141 57.026 84.109C57.1849 84.0862 57.344 84.0634 57.4802 84.0406C58.3185 83.9266 63.4455 82.2878 68.2545 80.535C75.2852 77.9638 80.0942 75.7324 82.5885 73.8905C83.1168 73.4999 83.624 73.0815 84.1082 72.637C85.1303 71.773 85.9914 71.0002 87.8972 70.1114C89.326 69.4526 90.6186 69.3842 91.7522 69.3386C93.115 69.2931 94.996 69.2019 96.175 67.5154C96.6086 66.9705 97.0381 65.9469 96.6974 64.4904"/>
</mask>
<path fill-rule="evenodd" clip-rule="evenodd" d="M96.6975 64.4884C96.3114 62.806 94.8598 60.4172 93.6353 58.7327C92.3201 56.9343 90.2325 54.4999 87.7836 53.1346C86.8998 52.6331 85.8778 52.2913 84.9032 51.9743C84.4283 51.8127 83.7242 51.5869 83.4289 51.4273C82.166 50.1567 80.955 48.8351 79.799 47.4659C78.5745 46.0322 77.6908 45.0086 75.3307 43.2102C72.0414 40.7074 67.7114 39.1142 62.8549 38.5692C62.8343 36.746 62.539 34.0608 62.2438 32.0138C62.0597 30.783 61.8255 29.5603 61.5417 28.3487C61.4034 27.8036 61.2211 27.2708 60.9966 26.7554C60.1562 24.9363 58.7501 24.5717 58.0026 24.5033C57.9097 24.5033 57.7961 24.4805 57.7073 24.4805C56.6157 24.4805 55.6632 24.9356 54.8496 25.8458C54.6431 24.4784 54.4635 23.0239 54.259 21.613C53.9638 19.336 53.6912 17.175 53.3505 15.5134C53.1481 14.4671 52.9437 13.6922 52.6939 13.0789C51.7173 10.5968 49.8589 10.3461 49.1094 10.3461C46.4788 10.3461 45.434 13.0105 45.0953 13.8745C44.7099 14.8524 44.3244 16.1266 43.939 17.6971C43.3485 20.0176 42.7125 23.2974 42.6671 24.8223C42.6465 25.39 42.5763 27.1428 45.6611 34.1291C46.3652 35.6996 47.4306 38.0222 48.4755 39.9096C48.0212 40.0464 47.5896 40.1831 47.1354 40.3447C43.2576 41.6852 38.9029 44.2357 35.5455 47.0576C35.5222 47.0145 35.4914 46.9759 35.4547 46.9436C34.6189 45.7918 33.7646 44.6535 32.8922 43.5292C31.8701 42.2322 30.6911 40.7736 28.8307 40.7736C28.1493 40.7736 27.5154 40.9808 26.9723 41.3434C26.3137 41.7992 25.8594 42.3461 25.5641 42.9387C25.2028 42.5036 24.8167 42.0064 24.3624 41.4346C22.5929 39.1369 20.6436 36.3377 18.8969 33.8557C17.5588 31.991 16.3117 30.2154 15.335 28.8956C13.8153 26.8921 12.6817 25.5723 10.844 25.5723C10.3691 25.5723 9.91485 25.6635 9.50601 25.8458C8.93821 26.0944 7.94087 26.7326 7.48663 28.2347C6.92087 30.1926 7.23887 34.5166 7.62293 37.8171C8.46333 45.1909 9.4606 46.7158 9.77861 47.1944C10.2329 47.8989 11.1166 49.2186 19.7806 53.5654C23.0245 55.1815 26.3591 56.7064 28.9691 57.7755C27.8334 63.6243 28.1287 72.0921 32.9831 77.827C36.8154 82.3562 42.5557 84.6539 50.0179 84.6539C52.8757 84.6539 55.3699 84.3141 57.026 84.109C57.1849 84.0862 57.344 84.0634 57.4802 84.0406C58.3185 83.9266 63.4455 82.2878 68.2545 80.535C75.2852 77.9638 80.0942 75.7324 82.5885 73.8905C83.1168 73.4999 83.624 73.0815 84.1082 72.637C85.1303 71.773 85.9914 71.0002 87.8972 70.1114C89.326 69.4526 90.6186 69.3842 91.7522 69.3386C93.115 69.2931 94.996 69.2019 96.175 67.5154C96.6086 66.9705 97.0381 65.9469 96.6974 64.4904" fill="white" style="fill:white;fill-opacity:1;"/>
<path d="M93.6353 58.7327L96.8708 56.3808L96.864 56.3714L93.6353 58.7327ZM87.7836 53.1346L85.8097 56.6136L85.8227 56.621L85.8358 56.6283L87.7836 53.1346ZM84.9032 51.9743L83.6145 55.761L83.6402 55.7698L83.666 55.7782L84.9032 51.9743ZM83.4289 51.4273L80.5918 54.2471L81.0079 54.6657L81.5271 54.9463L83.4289 51.4273ZM79.799 47.4659L82.8552 44.8854L82.848 44.8767L82.8406 44.8682L79.799 47.4659ZM75.3307 43.2102L77.755 40.0286L77.7528 40.027L75.3307 43.2102ZM62.8549 38.5692L58.8552 38.6145L58.8952 42.15L62.4089 42.5443L62.8549 38.5692ZM62.2438 32.0138L66.2028 31.4428L66.2013 31.4325L66.1998 31.4222L62.2438 32.0138ZM61.5417 28.3487L65.4363 27.4364L65.4279 27.4007L65.4189 27.3651L61.5417 28.3487ZM60.9966 26.7554L64.6637 25.1579L64.6462 25.1177L64.6278 25.0778L60.9966 26.7554ZM58.0026 24.5033L58.367 20.5199L58.1852 20.5033H58.0026V24.5033ZM54.8496 25.8458L50.8944 26.4431L52.1643 34.8524L57.8319 28.5115L54.8496 25.8458ZM54.259 21.613L50.2923 22.1274L50.2961 22.157L50.3004 22.1866L54.259 21.613ZM53.3505 15.5134L49.4232 16.2728L49.4275 16.2949L49.432 16.3169L53.3505 15.5134ZM52.6939 13.0789L48.9717 14.5435L48.9804 14.5657L48.9894 14.5878L52.6939 13.0789ZM45.0953 13.8745L48.8167 15.3412L48.8195 15.3342L45.0953 13.8745ZM43.939 17.6971L47.8155 18.6836L47.8197 18.6671L47.8237 18.6505L43.939 17.6971ZM42.6671 24.8223L46.6645 24.9676L46.6649 24.9545L46.6653 24.9414L42.6671 24.8223ZM45.6611 34.1291L42.0019 35.7448L42.0065 35.7552L42.0111 35.7655L45.6611 34.1291ZM48.4755 39.9096L49.6286 43.7398L54.3764 42.3104L51.975 37.9724L48.4755 39.9096ZM47.1354 40.3447L48.4423 44.1252L48.4593 44.1193L48.4763 44.1133L47.1354 40.3447ZM35.5455 47.0576L32.0291 48.9641L34.3659 53.2743L38.1192 50.1197L35.5455 47.0576ZM35.4547 46.9436L32.2172 49.2928L32.4796 49.6544L32.8152 49.9492L35.4547 46.9436ZM32.8922 43.5292L36.0524 41.077L36.0432 41.0652L36.0339 41.0534L32.8922 43.5292ZM26.9723 41.3434L24.7515 38.0165L24.7237 38.0351L24.6963 38.0541L26.9723 41.3434ZM25.5641 42.9387L22.4869 45.4942L26.4074 50.2152L29.1443 44.7227L25.5641 42.9387ZM24.3624 41.4346L21.1933 43.8752L21.2117 43.8991L21.2304 43.9227L24.3624 41.4346ZM18.8969 33.8557L22.168 31.5536L22.1574 31.5386L22.1468 31.5237L18.8969 33.8557ZM15.335 28.8956L18.5503 26.5161L18.5362 26.4971L18.5219 26.4783L15.335 28.8956ZM9.50601 25.8458L11.1103 29.51L11.1228 29.5045L11.1352 29.499L9.50601 25.8458ZM7.48663 28.2347L3.65787 27.0768L3.65071 27.1005L3.64385 27.1243L7.48663 28.2347ZM7.62293 37.8171L11.5972 37.3641L11.5961 37.3548L7.62293 37.8171ZM9.77861 47.1944L13.1403 45.0267L13.1254 45.0036L13.1102 44.9808L9.77861 47.1944ZM19.7806 53.5654L17.9869 57.1407L17.997 57.1457L19.7806 53.5654ZM28.9691 57.7755L32.8958 58.5379L33.5211 55.3174L30.4853 54.0739L28.9691 57.7755ZM32.9831 77.827L36.0366 75.2433L36.0362 75.2427L32.9831 77.827ZM57.026 84.109L57.5176 88.0787L57.5559 88.0739L57.5942 88.0684L57.026 84.109ZM57.4802 84.0406L56.9414 80.077L56.8804 80.0854L56.8195 80.0955L57.4802 84.0406ZM68.2545 80.535L69.6243 84.2931L69.6283 84.2916L68.2545 80.535ZM82.5885 73.8905L84.9646 77.1083L84.9665 77.1069L82.5885 73.8905ZM84.1082 72.637L81.526 69.5821L81.4634 69.635L81.4031 69.6904L84.1082 72.637ZM87.8972 70.1114L86.2223 66.479L86.2144 66.4826L86.2066 66.4862L87.8972 70.1114ZM91.7522 69.3386L91.6185 65.3409L91.605 65.3413L91.5915 65.3419L91.7522 69.3386ZM96.175 67.5154L93.0451 65.0246L92.9678 65.1218L92.8967 65.2236L96.175 67.5154ZM96.6975 64.4884L100.596 63.5937C100.277 62.2051 99.6041 60.7996 98.9794 59.6724C98.3219 58.486 97.5604 57.3293 96.8708 56.3808L93.6353 58.7327L90.3999 61.0847C90.9348 61.8206 91.5112 62.7006 91.9822 63.5503C92.4859 64.4592 92.7314 65.0893 92.7988 65.3831L96.6975 64.4884ZM93.6353 58.7327L96.864 56.3714C95.4584 54.4495 92.9552 51.4382 89.7314 49.6409L87.7836 53.1346L85.8358 56.6283C87.5099 57.5616 89.1818 59.4192 90.4067 61.0941L93.6353 58.7327ZM87.7836 53.1346L89.7575 49.6555C88.4695 48.9247 87.0695 48.4726 86.1404 48.1704L84.9032 51.9743L83.666 55.7782C84.6861 56.11 85.3302 56.3415 85.8097 56.6136L87.7836 53.1346ZM84.9032 51.9743L86.1919 48.1876C85.895 48.0865 85.6783 48.0162 85.436 47.9302C85.3259 47.8912 85.2515 47.8631 85.2068 47.8452C85.1856 47.8367 85.1838 47.8355 85.1967 47.8413C85.206 47.8455 85.256 47.868 85.3307 47.9084L83.4289 51.4273L81.5271 54.9463C81.9875 55.1951 82.5223 55.3851 82.7614 55.4699C83.0637 55.5771 83.4365 55.7005 83.6145 55.761L84.9032 51.9743ZM83.4289 51.4273L86.2659 48.6075C85.0793 47.4137 83.9415 46.1719 82.8552 44.8854L79.799 47.4659L76.7427 50.0464C77.9685 51.4982 79.2526 52.8996 80.5918 54.2471L83.4289 51.4273ZM79.799 47.4659L82.8406 44.8682C81.5121 43.3126 80.4218 42.0607 77.755 40.0286L75.3307 43.2102L72.9063 46.3919C74.9597 47.9565 75.6369 48.7518 76.7573 50.0636L79.799 47.4659ZM75.3307 43.2102L77.7528 40.027C73.7799 37.004 68.7267 35.203 63.301 34.5942L62.8549 38.5692L62.4089 42.5443C66.6962 43.0254 70.3029 44.4109 72.9085 46.3935L75.3307 43.2102ZM62.8549 38.5692L66.8547 38.524C66.831 36.4322 66.5051 33.5387 66.2028 31.4428L62.2438 32.0138L58.2848 32.5849C58.573 34.5829 58.8376 37.0598 58.8552 38.6145L62.8549 38.5692ZM62.2438 32.0138L66.1998 31.4222C65.9996 30.0838 65.745 28.7541 65.4363 27.4364L61.5417 28.3487L57.6471 29.261C57.9061 30.3665 58.1198 31.4822 58.2878 32.6055L62.2438 32.0138ZM61.5417 28.3487L65.4189 27.3651C65.2273 26.6099 64.9747 25.8718 64.6637 25.1579L60.9966 26.7554L57.3294 28.3529C57.4675 28.6698 57.5796 28.9974 57.6645 29.3323L61.5417 28.3487ZM60.9966 26.7554L64.6278 25.0778C63.0004 21.5554 60.0262 20.6717 58.367 20.5199L58.0026 24.5033L57.6382 28.4866C57.6091 28.484 57.5251 28.4732 57.4201 28.4108C57.3638 28.3773 57.3245 28.342 57.3048 28.32C57.2853 28.2983 57.3143 28.3224 57.3654 28.433L60.9966 26.7554ZM58.0026 24.5033V20.5033C58.1344 20.5033 58.2325 20.511 58.2693 20.5142C58.3046 20.5172 58.33 20.5202 58.2971 20.5166C58.2833 20.515 58.2069 20.5063 58.1246 20.4991C58.0407 20.4918 57.8904 20.4805 57.7073 20.4805V24.4805V28.4805C57.5686 28.4805 57.4658 28.472 57.4311 28.469C57.3979 28.4661 57.3725 28.463 57.4097 28.4672C57.4279 28.4692 57.5047 28.478 57.5901 28.4853C57.6772 28.4927 57.8243 28.5033 58.0026 28.5033V24.5033ZM57.7073 24.4805V20.4805C55.335 20.4805 53.3396 21.5329 51.8673 23.1801L54.8496 25.8458L57.8319 28.5115C57.8873 28.4495 57.9221 28.421 57.9323 28.4131C57.9416 28.4059 57.9304 28.4158 57.8986 28.431C57.866 28.4466 57.8261 28.4608 57.784 28.4702C57.7422 28.4795 57.7144 28.4805 57.7073 28.4805V24.4805ZM54.8496 25.8458L58.8047 25.2486C58.5891 23.8205 58.4497 22.6407 58.2177 21.0394L54.259 21.613L50.3004 22.1866C50.4772 23.4072 50.6971 25.1362 50.8944 26.4431L54.8496 25.8458ZM54.259 21.613L58.2258 21.0986C57.9394 18.8897 57.6465 16.5509 57.2689 14.7098L53.3505 15.5134L49.432 16.3169C49.736 17.7991 49.9882 19.7823 50.2923 22.1274L54.259 21.613ZM53.3505 15.5134L57.2777 14.7539C57.0568 13.6113 56.7935 12.54 56.3984 11.57L52.6939 13.0789L48.9894 14.5878C49.0939 14.8443 49.2395 15.3228 49.4232 16.2728L53.3505 15.5134ZM52.6939 13.0789L56.4161 11.6143C55.6009 9.54237 54.2763 8.11673 52.7391 7.27414C51.2812 6.47495 49.9026 6.34613 49.1094 6.34613V10.3461V14.3461C49.077 14.3461 49.0501 14.3437 49.0217 14.3377C48.9907 14.3312 48.945 14.3174 48.8938 14.2894C48.8683 14.2754 48.8461 14.2604 48.8284 14.2462C48.8106 14.2319 48.8035 14.2234 48.806 14.2264C48.8071 14.2276 48.8796 14.3094 48.9717 14.5435L52.6939 13.0789ZM49.1094 10.3461V6.34613C46.2369 6.34613 44.2786 7.86823 43.1451 9.25575C42.0769 10.5634 41.5423 11.9781 41.3712 12.4148L45.0953 13.8745L48.8195 15.3342C48.9005 15.1275 48.9722 14.9483 49.0692 14.7555C49.1676 14.5599 49.2616 14.4137 49.3407 14.3169C49.4185 14.2216 49.4338 14.233 49.365 14.2713C49.2697 14.3242 49.162 14.3461 49.1094 14.3461V10.3461ZM45.0953 13.8745L41.3739 12.4078C40.8975 13.6165 40.4624 15.0807 40.0543 16.7438L43.939 17.6971L47.8237 18.6505C48.1865 17.1725 48.5223 16.0883 48.8167 15.3412L45.0953 13.8745ZM43.939 17.6971L40.0626 16.7106C39.4657 19.056 38.7284 22.7038 38.6689 24.7032L42.6671 24.8223L46.6653 24.9414C46.6966 23.891 47.2312 20.9793 47.8155 18.6836L43.939 17.6971ZM42.6671 24.8223L38.6697 24.677C38.6155 26.1691 38.847 28.5998 42.0019 35.7448L45.6611 34.1291L49.3203 32.5134C47.8227 29.1218 47.1581 27.1486 46.8667 26.0464C46.7238 25.5057 46.6814 25.2142 46.6686 25.0978C46.6602 25.0214 46.6624 25.0238 46.6645 24.9676L42.6671 24.8223ZM45.6611 34.1291L42.0111 35.7655C42.7166 37.339 43.8417 39.798 44.9759 41.8469L48.4755 39.9096L51.975 37.9724C51.0195 36.2463 50.0138 34.0602 49.311 32.4927L45.6611 34.1291ZM48.4755 39.9096L47.3223 36.0795C46.8328 36.2269 46.3332 36.3845 45.7945 36.5762L47.1354 40.3447L48.4763 44.1133C48.8461 43.9817 49.2097 43.866 49.6286 43.7398L48.4755 39.9096ZM47.1354 40.3447L45.8286 36.5642C41.4362 38.0826 36.6595 40.8961 32.9719 43.9955L35.5455 47.0576L38.1192 50.1197C41.1463 47.5754 45.0791 45.2878 48.4423 44.1252L47.1354 40.3447ZM35.5455 47.0576L39.062 45.1511C38.8153 44.6961 38.4887 44.2846 38.0941 43.9381L35.4547 46.9436L32.8152 49.9492C32.4942 49.6672 32.229 49.3329 32.0291 48.9641L35.5455 47.0576ZM35.4547 46.9436L38.6922 44.5944C37.8312 43.4079 36.9511 42.2352 36.0524 41.077L32.8922 43.5292L29.732 45.9814C30.5781 47.0717 31.4066 48.1757 32.2172 49.2928L35.4547 46.9436ZM32.8922 43.5292L36.0339 41.0534C35.2656 40.0784 32.9329 36.7736 28.8307 36.7736V40.7736V44.7736C28.7548 44.7736 28.6693 44.7553 28.6064 44.7299C28.5568 44.7098 28.5762 44.7074 28.6691 44.7822C28.7665 44.8604 28.9048 44.9909 29.0968 45.2071C29.2927 45.4278 29.4917 45.6767 29.7505 46.005L32.8922 43.5292ZM28.8307 40.7736V36.7736C27.3155 36.7736 25.9151 37.2398 24.7515 38.0165L26.9723 41.3434L29.1932 44.6702C29.159 44.693 29.1078 44.7202 29.0401 44.7413C28.9712 44.7628 28.8989 44.7736 28.8307 44.7736V40.7736ZM26.9723 41.3434L24.6963 38.0541C23.4908 38.8882 22.5843 39.9499 21.984 41.1547L25.5641 42.9387L29.1443 44.7227C29.1444 44.7225 29.1446 44.7211 29.1507 44.7141C29.1569 44.707 29.1835 44.6776 29.2484 44.6326L26.9723 41.3434ZM25.5641 42.9387L28.6414 40.3833C28.317 39.9926 27.9889 39.5689 27.4944 38.9465L24.3624 41.4346L21.2304 43.9227C21.6444 44.4438 22.0886 45.0146 22.4869 45.4942L25.5641 42.9387ZM24.3624 41.4346L27.5315 38.9939C25.8282 36.7821 23.9407 34.0724 22.168 31.5536L18.8969 33.8557L15.6257 36.1578C17.3466 38.6031 19.3576 41.4916 21.1933 43.8752L24.3624 41.4346ZM18.8969 33.8557L22.1468 31.5237C20.8475 29.713 19.5491 27.8658 18.5503 26.5161L15.335 28.8956L12.1197 31.2751C13.0743 32.565 14.2701 34.2689 15.6469 36.1876L18.8969 33.8557ZM15.335 28.8956L18.5219 26.4783C17.2529 24.8053 14.9723 21.5723 10.844 21.5723V25.5723V29.5723C10.8038 29.5723 10.7154 29.5611 10.6246 29.5249C10.5482 29.4944 10.5568 29.4803 10.6623 29.5674C10.777 29.6621 10.9543 29.8328 11.2178 30.1392C11.4821 30.4465 11.7763 30.8228 12.1481 31.313L15.335 28.8956ZM10.844 25.5723V21.5723C9.85815 21.5723 8.8425 21.7619 7.87678 22.1926L9.50601 25.8458L11.1352 29.499C10.9872 29.565 10.88 29.5723 10.844 29.5723V25.5723ZM9.50601 25.8458L7.90174 22.1816C6.59161 22.7552 4.54309 24.1496 3.65787 27.0768L7.48663 28.2347L11.3154 29.3925C11.3332 29.3337 11.345 29.3189 11.3369 29.3324C11.3291 29.3452 11.3128 29.3679 11.287 29.3938C11.2389 29.442 11.1817 29.4787 11.1103 29.51L9.50601 25.8458ZM7.48663 28.2347L3.64385 27.1243C3.16746 28.7729 3.14396 30.9154 3.20073 32.653C3.26252 34.5444 3.45094 36.571 3.64973 38.2794L7.62293 37.8171L11.5961 37.3548C11.4109 35.7627 11.2483 33.977 11.1965 32.3918C11.1397 30.6528 11.24 29.6544 11.3294 29.3451L7.48663 28.2347ZM7.62293 37.8171L3.64866 38.2701C4.51228 45.8476 5.60019 48.1336 6.44699 49.4081L9.77861 47.1944L13.1102 44.9808C13.0882 44.9476 13.086 44.949 13.0529 44.8777C13.0038 44.7723 12.8908 44.5044 12.7392 43.9802C12.4301 42.9115 12.0034 40.928 11.5972 37.3641L7.62293 37.8171ZM9.77861 47.1944L6.41689 49.3621C7.53242 51.0921 9.38068 52.8229 17.9869 57.1407L19.7806 53.5654L21.5744 49.9902C17.3018 47.8466 15.1248 46.5354 14.009 45.7471C13.4643 45.3623 13.2466 45.1534 13.1853 45.0902C13.1679 45.0723 13.1921 45.1071 13.1403 45.0267L9.77861 47.1944ZM19.7806 53.5654L17.997 57.1457C21.3085 58.7955 24.7338 60.3632 27.453 61.477L28.9691 57.7755L30.4853 54.0739C27.9844 53.0496 24.7404 51.5675 21.5643 49.9851L19.7806 53.5654ZM28.9691 57.7755L25.0425 57.013C23.8073 63.3744 23.9345 73.3283 29.93 80.4114L32.9831 77.827L36.0362 75.2427C32.3229 70.8559 31.8596 63.8742 32.8958 58.5379L28.9691 57.7755ZM32.9831 77.827L29.9296 80.4108C34.7123 86.0631 41.7097 88.6539 50.0179 88.6539V84.6539V80.6539C43.4016 80.6539 38.9186 78.6492 36.0366 75.2433L32.9831 77.827ZM50.0179 84.6539V88.6539C53.1646 88.6539 55.9059 88.2782 57.5176 88.0787L57.026 84.109L56.5344 80.1393C54.8339 80.3499 52.5867 80.6539 50.0179 80.6539V84.6539ZM57.026 84.109L57.5942 88.0684C57.7384 88.0477 57.9487 88.0178 58.1409 87.9857L57.4802 84.0406L56.8195 80.0955C56.7392 80.109 56.6314 80.1246 56.4577 80.1495L57.026 84.109ZM57.4802 84.0406L58.019 88.0041C58.5863 87.927 59.3754 87.7026 59.964 87.5304C60.6864 87.3191 61.5948 87.0365 62.6096 86.7081C64.642 86.0506 67.1723 85.1868 69.6243 84.2931L68.2545 80.535L66.8847 76.7768C64.5277 77.6359 62.0899 78.468 60.1471 79.0966C59.1742 79.4113 58.3431 79.6693 57.7181 79.8521C56.9594 80.074 56.7932 80.0972 56.9414 80.077L57.4802 84.0406ZM68.2545 80.535L69.6283 84.2916C76.6562 81.7215 81.96 79.327 84.9646 77.1083L82.5885 73.8905L80.2124 70.6727C78.2283 72.1378 73.9142 74.206 66.8806 76.7783L68.2545 80.535ZM82.5885 73.8905L84.9665 77.1069C85.6086 76.6321 86.2251 76.1236 86.8133 75.5836L84.1082 72.637L81.4031 69.6904C81.023 70.0393 80.6249 70.3677 80.2105 70.6741L82.5885 73.8905ZM84.1082 72.637L86.6904 75.6918C87.674 74.8604 88.1947 74.3862 89.5878 73.7366L87.8972 70.1114L86.2066 66.4862C83.788 67.6141 82.5866 68.6856 81.526 69.5821L84.1082 72.637ZM87.8972 70.1114L89.5721 73.7439C90.2275 73.4416 90.8254 73.3791 91.9128 73.3354L91.7522 69.3386L91.5915 65.3419C90.4118 65.3893 88.4245 65.4635 86.2223 66.479L87.8972 70.1114ZM91.7522 69.3386L91.8859 73.3364C93.0672 73.2969 97.0061 73.3079 99.4534 69.8072L96.175 67.5154L92.8967 65.2236C92.8869 65.2376 92.901 65.2166 92.9334 65.1946C92.9581 65.1779 92.9491 65.191 92.8702 65.215C92.7849 65.2409 92.6464 65.2709 92.4272 65.2943C92.2007 65.3186 91.9576 65.3295 91.6185 65.3409L91.7522 69.3386ZM96.175 67.5154L99.3049 70.0061C100.464 68.5495 101.225 66.2827 100.592 63.5794L96.6974 64.4904L92.8025 65.4014C92.8211 65.481 92.8205 65.5163 92.8205 65.5122C92.8205 65.5081 92.8212 65.4786 92.8327 65.4293C92.855 65.3345 92.9109 65.1933 93.0451 65.0246L96.175 67.5154Z" fill="#292929" style="fill:#292929;fill:color(display-p3 0.1620 0.1620 0.1620);fill-opacity:1;" mask="url(#path-8-outside-1_1998_237)"/>
<path fill-rule="evenodd" clip-rule="evenodd" d="M57.7219 27.3863C58.7939 27.4772 60.1631 39.573 59.4546 39.573C58.7254 39.573 54.1358 39.7321 52.883 40.1411C51.9231 40.4572 45.6944 26.9772 45.7838 24.618C45.8523 22.5521 47.8157 13.2949 49.0477 13.2949C49.9058 13.2949 50.4377 17.3213 51.0194 21.7443C51.7217 27.0805 52.5008 32.9931 54.0237 33.1068C54.5784 33.1398 55.2121 31.7082 55.852 30.2683C56.4961 28.8077 57.1463 27.3409 57.7219 27.3863ZM32.7424 48.5039C33.5735 49.6339 34.3859 50.7351 35.0216 51.5221C38.1214 48.068 43.6146 44.589 48.1356 43.0458C57.6512 39.7775 67.6945 41.048 73.4911 45.405C75.5936 46.9916 76.3 47.8097 77.4864 49.1794C78.334 50.1607 79.429 51.425 81.4568 53.462C81.9138 53.931 82.9984 54.2883 84.1161 54.6561C84.9471 54.9309 85.799 55.2098 86.4326 55.5486C90.3802 57.7281 94.3277 64.5352 93.829 65.2624C93.561 65.6425 92.8733 65.6714 91.8947 65.7086C90.6025 65.7602 88.7991 65.8305 86.7755 66.7601C84.4672 67.8179 83.312 68.8095 82.2358 69.733C81.7912 70.1152 81.359 70.485 80.8645 70.8444C75.5458 74.7696 60.35 80.0356 57.1275 80.6016L56.9343 80.6264C52.511 81.1904 41.5826 82.5828 35.3538 75.2923C30.5919 69.7206 30.9908 60.391 32.707 55.3895C27.6874 53.7203 13.4182 46.8883 12.2111 45.0415C10.8876 43.0685 9.40418 28.975 10.522 28.4751C11.0081 28.2623 13.2645 31.4665 15.9986 35.3483C20.2038 41.3229 25.5412 48.9026 27.2968 48.1052C27.8785 47.8345 27.9077 46.9255 27.9409 45.9835C27.97 45.0374 28.0032 44.0561 28.5974 43.6573C28.9839 43.4073 30.914 46.0248 32.7402 48.5039" fill="#292929" style="fill:#292929;fill:color(display-p3 0.1620 0.1620 0.1620);fill-opacity:1;"/>
<path fill-rule="evenodd" clip-rule="evenodd" d="M46.4405 59.9998C48.7731 63.5434 52.107 65.4406 53.8853 64.2444C55.6413 63.0481 55.174 59.1879 52.8414 55.6422C50.5088 52.0965 47.1729 50.1993 45.3966 51.3977C43.6406 52.6166 44.1079 56.4541 46.4405 59.9998Z" fill="white" style="fill:white;fill-opacity:1;"/>
<path d="M23.7129 56.1163C28.1368 56.1141 31.9474 58.9967 33.3516 63.1017C38.0531 63.746 41.614 67.8659 41.6152 72.7638V72.7706C41.6092 77.648 38.0687 81.833 33.252 82.462L33.125 82.4786H32.998L13.1494 82.5255H13.0752L13.001 82.5206C7.88414 82.1524 3.99715 77.7991 4 72.6505L4.0127 72.1447C4.27412 66.9555 8.46852 62.7506 13.7041 62.755C13.8679 62.7551 14.032 62.7611 14.1953 62.7697C15.6873 58.8435 19.4099 56.1164 23.7119 56.1163L23.7139 56.1154L23.7129 56.1163Z" fill="white" stroke="#292929" style="fill:white;fill-opacity:1;stroke:#292929;stroke:color(display-p3 0.1620 0.1620 0.1620);stroke-opacity:1;" stroke-width="4"/>
</g>
<defs>
<clipPath id="clip0_1998_237">
<rect width="437" height="98" fill="white" style="fill:white;fill-opacity:1;"/>
</clipPath>
</defs>
</svg>
