<svg width="101" height="85" viewBox="0 0 101 85" fill="none" xmlns="http://www.w3.org/2000/svg">
<path d="M47.6684 3.07505C48.6021 3.11961 50.151 3.5363 51.2252 5.59522C51.6353 6.38181 51.9897 7.42241 52.3061 8.78612C52.6538 10.2724 53.1218 12.592 53.621 15.0476L54.3587 18.6908C54.6751 18.4764 55.0224 18.3111 55.3883 18.2006L56.0769 17.9443L56.4291 18.0335H56.487C56.5835 18.0319 56.6802 18.035 56.7767 18.0424H56.799C59.4711 18.2697 60.1932 21.0104 60.4718 22.0377C60.6568 22.7329 60.8172 23.5128 60.9509 24.2659C63.5941 22.0042 67.0172 20.674 71.0889 20.6116H71.1224C71.2026 20.6087 71.2857 20.6064 71.372 20.6049C72.9387 20.6049 74.5099 21.2645 75.0091 21.9641C75.4013 22.4031 75.1294 22.9401 74.5678 23.0159C72.4417 23.5239 70.3111 24.3751 69.91 24.9233C69.9835 24.8654 71.1357 24.7094 72.7827 24.7094C74.8642 24.7094 77.7369 24.9634 80.2352 26.004C87.0927 28.7336 93.315 36.283 91.5276 45.419C91.4362 46.0317 91.0195 46.2791 90.5515 46.2791C90.4213 46.2782 90.2918 46.261 90.1659 46.2278C88.5168 45.9226 84.8752 46.0763 84.0528 46.6111L83.957 46.5777C84.376 46.7537 85.0401 46.9721 85.4791 47.1191C86.4753 47.4489 87.4983 47.7832 88.3652 48.2689L88.3875 48.2801H88.3942L88.4009 48.2868C91.3605 49.9268 93.8409 53.1243 95.0555 54.8758C95.8578 56.0389 96.5754 57.2466 97.068 58.2717C97.6808 59.5485 98.2358 61.057 97.692 62.5499L97.5872 62.8396L97.4312 63.1048C96.3102 64.9877 94.28 65.1503 93.6158 65.2038H93.5936C93.2102 65.2306 92.8581 65.2417 92.5171 65.2595C91.0774 65.3286 90.1236 65.3754 88.6304 66.0127C87.4965 66.5123 86.4301 67.1531 85.4569 67.9201C79.7449 73.2234 69.803 76.6839 61.8112 79.4648L61.4992 79.5762L61.3855 79.6096L60.3492 79.9327C58.9452 80.3784 57.7239 80.7661 56.1126 81.0201C53.8552 81.3983 51.5707 81.5897 49.2819 81.5928C44.1115 81.5928 39.5161 80.5455 35.8321 78.5467C33.9897 78.8654 32.1235 79.0256 30.2539 79.0258H29.7324C29.0266 79.0554 28.3447 79.0704 27.6865 79.0704C16.0175 79.0704 10.749 74.6317 7.70249 69.979C4.783 65.5314 5.00586 60.5423 6.57927 58.1201C6.80949 57.7752 7.27571 57.6818 7.6207 57.912C7.77537 58.0152 7.88613 58.1718 7.93204 58.3519C8.08359 59.7557 8.68532 61.9416 9.95786 63.5036C9.6726 59.8136 8.85246 52.2976 16.978 48.846C14.1321 47.4467 11.4065 46.0072 9.41853 44.7995L9.38956 44.7817L9.36059 44.7639L8.95052 44.5054C8.03679 43.9327 7.17654 43.3957 6.29178 42.4643C5.72348 41.9027 4.60248 40.6193 3.57286 32.5083C2.87976 27.0491 2.8909 23.2833 3.60852 21.309L3.67538 21.1129L3.77566 20.9213C4.54454 19.4261 5.94411 18.5281 7.51752 18.5281C9.83528 18.5281 11.402 20.4244 12.1531 21.3335L12.2288 21.4249L12.2979 21.5229C13.2763 22.8889 14.5533 24.7851 15.9083 26.7906C18.0299 29.9347 20.9717 34.2954 22.9619 36.8401C23.6708 35.9731 24.7325 35.4715 25.8524 35.4742C28.2348 35.4742 29.8126 37.4506 31.9521 40.47C32.1549 40.7596 32.4335 41.1451 32.5316 41.2677L32.6118 41.359L32.7009 41.4749L32.9884 41.8693C36.913 38.5046 41.7358 35.9198 46.8995 34.36C45.6737 32.2075 44.4257 29.4801 43.795 28.0674C40.5457 20.743 40.6036 18.8936 40.6259 18.2853C40.6905 16.4469 41.7893 10.7069 43.0261 7.27757V7.25529L43.1643 6.90322C43.243 6.69822 43.3225 6.50503 43.4028 6.32387C43.8062 5.34343 44.2987 4.60141 44.9049 4.0644L45.101 3.89505H45.1144L45.1255 3.87945C45.2993 3.74576 45.4865 3.62387 45.6871 3.51402L45.7607 3.47391L45.8008 3.45608L45.8699 3.42266L45.9167 3.40483C46.4136 3.17977 46.953 3.0639 47.4901 3.0639L47.6684 3.07505Z" fill="white"/>
<path fill-rule="evenodd" clip-rule="evenodd" d="M6.74193 22.4611C7.47738 21.0216 8.83684 22.5457 9.59903 23.466C12.8528 28.0273 19.6122 38.6762 22.2843 41.0872C24.0605 42.6314 24.8695 41.1451 25.3375 39.3893C25.3741 39.2533 25.4287 39.1228 25.5002 39.0015C26.3605 37.7938 29.2822 42.6091 30.0266 43.4581C30.8422 44.5678 31.7961 45.8869 32.4847 46.747C32.536 46.805 32.5895 46.8406 32.6452 46.8228C43.4585 35.0241 65.2009 31.6995 75.7891 42.7072C76.783 43.7322 77.5943 44.7416 78.6038 45.8758C79.3326 46.6623 80.536 48.0305 81.6927 49.1068C82.7959 49.9335 85.4501 50.4304 86.7583 51.1702V51.1768L86.7985 51.1991C90.8233 53.4318 94.9396 60.4331 94.5808 61.4158C94.3624 61.7856 93.8342 61.8614 93.3662 61.8948C91.3894 62.0285 89.7937 61.9082 87.3066 62.9755C85.9026 63.595 84.3759 64.4975 83.2594 65.4333C78.0043 70.3578 68.0402 73.7894 60.4071 76.4477C58.5284 77.027 57.296 77.4883 55.5799 77.7602C50.5878 78.5913 44.6485 78.5958 39.6453 76.6772C30.5392 72.4301 29.2889 63.6351 29.2822 63.5839V63.5906C28.9813 58.519 32.1326 57.8951 34.2253 58.0511C35.0454 58.1268 35.5714 57.1954 35.2014 56.4155C31.805 49.5814 26.414 48.0416 22.6766 47.8946C18.5247 45.9894 13.9448 43.6831 11.1479 41.9785C10.1183 41.3256 9.37839 40.9156 8.66746 40.158C7.61555 39.1219 5.59197 25.6341 6.74193 22.4611ZM51.3812 50.8404C48.854 47.0657 45.2525 45.0468 43.327 46.3214C41.4304 47.6138 41.9341 51.7027 44.4547 55.4796C46.9819 59.2543 50.5834 61.2731 52.5089 59.9986C54.4032 58.7285 53.9018 54.6173 51.3812 50.8404Z" fill="#292929"/>
<path d="M47.2695 6.45088C47.8534 6.15675 48.4796 7.00795 49.0747 9.54373C49.9528 13.3028 51.7111 22.9579 52.5558 25.5762C52.9725 26.8775 53.728 25.9282 54.4635 24.6113C54.4947 24.5429 54.5252 24.4732 54.5549 24.4019C55.1165 23.1206 55.6892 21.8304 56.2085 21.4605C56.2952 21.3863 56.4064 21.3467 56.5205 21.3491C57.6482 21.4427 59.1169 34.2508 58.348 34.2553C57.5791 34.2553 52.7519 34.4224 51.4281 34.8569C50.4163 35.1912 43.8508 20.9102 43.9511 18.4123C44.009 16.6965 45.2972 10.2791 46.4783 7.6029C46.6745 7.10377 46.8884 6.74724 47.1135 6.55561C47.1269 6.54514 47.1402 6.53333 47.1536 6.51996C47.1877 6.49768 47.2227 6.47695 47.2584 6.45757C47.2584 6.45311 47.2695 6.45088 47.2695 6.45088Z" fill="#292929"/>
<path fill-rule="evenodd" clip-rule="evenodd" d="M47.4945 0.0222827C50.2134 0.0222827 52.5669 1.54419 53.9553 4.19584C54.4857 5.21416 54.9314 6.49765 55.3081 8.11092C55.6602 9.64175 56.1327 11.9837 56.6385 14.4637C56.6669 14.6271 56.6994 14.7935 56.7366 14.9629L56.8035 14.9851H56.8391C56.9082 14.9851 56.9728 14.9963 57.0419 14.9963H57.082C59.1547 15.1746 60.9376 16.2664 62.1187 18.0713C62.4129 18.5281 62.6514 18.9916 62.8363 19.4239C65.3057 18.2407 68.0691 17.6034 71.0243 17.5521C71.1462 17.5461 71.2672 17.5439 71.3876 17.5454C73.4602 17.5454 76.1056 18.332 77.436 20.079C77.9397 20.7029 78.2227 21.4494 78.2695 22.2114C79.317 22.4365 80.3801 22.7485 81.4097 23.1763C89.5219 26.414 96.6289 35.2758 94.563 45.9715C94.4137 46.8695 94.0036 47.6427 93.413 48.2221C95.1357 49.8354 96.5643 51.6559 97.6006 53.1533C98.4965 54.4501 99.2944 55.8027 99.8537 56.9636C100.344 57.9886 101.659 60.716 100.596 63.6239L100.491 63.9136L100.393 64.181L100.248 64.4261L100.092 64.6935C99.2074 66.1731 97.4134 68.007 93.8744 68.2788H93.8186C93.4086 68.3078 93.0386 68.3234 92.6798 68.3412C91.3426 68.4058 90.8412 68.4303 89.8695 68.8448C89.0137 69.2258 88.0866 69.7762 87.4804 70.262C81.2938 75.9552 71.0644 79.5227 62.8363 82.3838L62.5288 82.4952L62.4709 82.513L62.4196 82.5286L62.3683 82.5464L62.3104 82.5643C61.956 82.6757 61.6329 82.7782 61.3209 82.8829H61.2986C59.8411 83.3442 58.4593 83.7787 56.6252 84.0728C54.2067 84.4781 51.7588 84.6829 49.3064 84.6856C44.1026 84.6856 39.2999 83.6806 35.3463 81.7599C33.6748 81.9983 31.9699 82.1186 30.2695 82.1186H29.7904C29.0839 82.1476 28.3796 82.1587 27.7021 82.1587C21.8052 82.1587 17.0003 81.1248 13.0267 78.9901C9.8286 77.281 7.25008 74.8856 5.15072 71.6836C1.50915 66.1441 1.82562 59.8381 4.01858 56.4667L4.03641 56.4377L4.05201 56.4088C4.82512 55.2672 6.15471 54.6324 7.52866 54.7487C8.17741 52.6441 9.34454 50.7363 10.9228 49.2003C9.85311 48.621 8.79451 48.0193 7.83398 47.4355L7.80501 47.4177L7.77603 47.4021L7.75375 47.3843L7.72478 47.3664L7.32585 47.1191C6.34972 46.5108 5.24432 45.8178 4.1055 44.6324C2.89536 43.4246 1.62504 41.4749 0.537474 32.9116C-0.238086 26.7972 -0.175685 22.7841 0.733593 20.2818L0.80268 20.0834L0.871767 19.8985L0.960912 19.7269L1.05674 19.5353C2.34043 17.0307 4.82311 15.4754 7.52866 15.4754C11.2928 15.4754 13.6462 18.3276 14.531 19.3971L14.6045 19.4885L14.6758 19.5687L14.7382 19.6578L14.8073 19.7537C16.0476 21.516 17.2659 23.2935 18.4623 25.0859C20.0357 27.41 22.037 30.3758 23.7486 32.7512C24.4261 32.5313 25.1319 32.4198 25.8658 32.4169C29.4494 32.4169 31.7092 34.926 33.6058 37.5086C36.3775 35.5305 39.3801 33.8979 42.547 32.6465C42.0121 31.5499 41.4971 30.4438 41.0025 29.3286C37.8669 22.2827 37.5103 19.7381 37.5682 18.1939C37.6351 16.2441 38.6246 10.8562 39.8637 7.07032L40.1802 6.11216L40.3139 5.78683C40.3966 5.57136 40.4835 5.35722 40.5746 5.14509C41.1586 3.73459 41.9096 2.62936 42.8701 1.78039C42.9793 1.67566 43.0952 1.5843 43.2178 1.48626L43.2401 1.46398H43.2512C43.5588 1.22488 43.8864 1.01231 44.234 0.82669L44.3098 0.786581L44.3789 0.744244L44.448 0.71082H44.4547L44.4881 0.692994L44.5773 0.648428L44.6664 0.601634H44.6842C45.5645 0.20723 46.534 0 47.4901 0L47.4945 0.0222827ZM47.4901 3.06388C46.9507 3.06388 46.4136 3.17975 45.9167 3.4048L45.8721 3.42263L45.8008 3.45605L45.7607 3.47388L45.6849 3.51399C45.4872 3.6254 45.3009 3.74729 45.1255 3.87943L45.1121 3.89502H45.101L44.9049 4.06437C44.2987 4.60139 43.8062 5.34118 43.4005 6.32384C43.3219 6.505 43.243 6.69819 43.1643 6.9032L43.0261 7.25526V7.27755C41.7892 10.7069 40.6905 16.4469 40.6259 18.2852C40.6036 18.8935 40.5457 20.743 43.795 28.0674C44.4257 29.4778 45.6737 32.2075 46.8995 34.3578C41.7358 35.9198 36.9153 38.5024 32.9884 41.8671L32.6987 41.4749L32.6118 41.359L32.5316 41.2677C32.3325 41.0061 32.1393 40.74 31.9521 40.4699C29.8126 37.4529 28.2348 35.4741 25.8524 35.4741C24.7327 35.4708 23.6712 35.9717 22.9619 36.8378C20.9717 34.2954 18.0299 29.9346 15.906 26.7883C14.5533 24.7829 13.2763 22.8888 12.2979 21.5229L12.231 21.4249L12.153 21.3335C11.402 20.4244 9.83528 18.5281 7.51751 18.5281C5.94411 18.5281 4.54453 19.4261 3.77343 20.9213L3.6776 21.1129L3.60851 21.309C2.8909 23.281 2.87975 27.0513 3.57286 32.5083C4.60248 40.6192 5.72347 41.9027 6.29177 42.4642C7.17431 43.3957 8.03678 43.9349 8.95052 44.5053C9.07978 44.5856 9.21639 44.6725 9.36059 44.766L9.38956 44.7816L9.41853 44.7995C11.4087 46.0072 14.1321 47.4467 16.9758 48.846C8.85246 52.2998 9.67259 59.8136 9.95563 63.5036C8.68531 61.9438 8.08358 59.7557 7.93204 58.3518C7.85248 58.0154 7.54916 57.7796 7.20328 57.7859C6.96705 57.7859 6.73527 57.895 6.57927 58.1201C5.00809 60.5422 4.78077 65.5313 7.70249 69.979C10.749 74.6316 16.0152 79.0703 27.6865 79.0703C28.3433 79.0703 29.0253 79.0554 29.7324 79.0258H30.2517C32.3332 79.0258 34.1897 78.8297 35.8321 78.5467C39.5161 80.5477 44.1137 81.5928 49.2819 81.5928C51.5261 81.5928 53.8216 81.4033 56.1104 81.0201C57.7239 80.7661 58.9452 80.3783 60.3492 79.9327L61.3855 79.6096L61.5014 79.5762L61.8134 79.4647C69.803 76.6839 79.7449 73.2211 85.4568 67.9201C86.4301 67.1531 87.4965 66.5122 88.6304 66.0126C90.1236 65.3754 91.0774 65.3286 92.5171 65.2595C92.8581 65.2417 93.2102 65.2327 93.5913 65.2038H93.6136C94.2822 65.1503 96.3102 64.9876 97.4312 63.1047L97.5872 62.8374L97.692 62.5477C98.2358 61.057 97.6808 59.5484 97.068 58.2694C96.4816 57.0909 95.809 55.9573 95.0555 54.878C93.8409 53.1243 91.3605 49.929 88.4009 48.2867L88.3942 48.28H88.3875L88.3652 48.2689C87.496 47.7831 86.4731 47.4489 85.4791 47.1191C85.0401 46.972 84.376 46.7537 83.957 46.5776L84.0528 46.6111C84.8774 46.0763 88.519 45.9203 90.1659 46.2278C90.2918 46.261 90.4213 46.2782 90.5515 46.279C91.0195 46.279 91.4362 46.0317 91.5276 45.4189C93.315 36.283 87.0927 28.7336 80.2352 26.004C77.7391 24.9634 74.8642 24.7093 72.7827 24.7093C71.1335 24.7093 69.9858 24.8653 69.9078 24.9233C70.3134 24.3729 72.4417 23.5239 74.5678 23.0159C75.1294 22.9401 75.4013 22.4031 75.0068 21.9641C74.5099 21.2644 72.9387 20.6049 71.372 20.6049L71.1224 20.6093H71.0867C67.0172 20.6739 63.5941 22.0042 60.9509 24.2637C60.823 23.5152 60.663 22.7725 60.4718 22.0376C60.1932 21.0104 59.4689 18.2696 56.799 18.0423H56.7767C56.6802 18.0334 56.5835 18.0296 56.487 18.0312H56.4291C56.4291 18.0312 55.551 18.0602 54.869 18.4011C54.6936 18.4829 54.5236 18.5794 54.3587 18.6908L53.6188 15.0475C53.1218 12.592 52.6538 10.2723 52.3061 8.78609C51.9874 7.42238 51.6375 6.38178 51.2252 5.5952C50.151 3.53627 48.5999 3.11736 47.6684 3.07279L47.4901 3.06388Z" fill="#292929"/>
</svg>
