<svg width="491" height="86" viewBox="0 0 491 86" fill="none" xmlns="http://www.w3.org/2000/svg">
<path d="M171.103 72.4994C177.476 69.8885 180.652 66.1974 181.103 60.8834C181.586 55.1757 178.804 50.6812 173.057 47.8831C169.515 46.1598 165.646 44.8841 161.892 43.66C161.32 43.4737 160.753 43.2864 160.19 43.0982C158.618 42.5941 157.029 42.1434 155.426 41.7466C153.431 41.2228 151.366 40.6828 149.4 39.9553C148.584 39.63 147.835 39.1549 147.193 38.555C146.742 38.1586 146.504 37.5718 146.553 36.9727C146.597 36.3725 146.923 35.8288 147.432 35.5072C148.236 34.997 149.011 34.6332 149.759 34.4162C152.574 33.6048 155.948 33.5071 159.791 34.123C163.078 34.655 166.249 35.5588 169.598 36.5115C170.912 36.8888 172.278 37.2713 173.646 37.6379C174.468 36.1939 175.348 34.6415 176.246 33.0377C177.202 31.3277 178.192 29.5718 179.183 27.8431C176.043 25.7424 171.124 23.9973 164.905 22.7814C154.522 21.1692 146.455 22.0378 139.533 25.5172C134.742 27.9272 131.748 32.0798 131.531 36.6284C131.314 41.104 133.724 45.2699 138.135 48.0436C141.466 50.1335 145.41 51.5177 149.216 52.8475L149.954 53.1053C152.506 54.0009 155.16 54.7581 157.731 55.4856C159.77 56.0664 161.884 56.6689 163.936 57.3338C164.737 57.5944 166.403 58.1398 166.422 59.9583C166.431 60.8702 165.559 61.5759 163.754 62.1377C162.126 62.6397 158.176 63.0604 155.329 62.8706C148.507 62.4227 141.748 60.5691 134.68 57.2145L130 69.102C135.375 71.6315 141.205 73.2707 148.295 74.2586C154.745 75.1541 163.171 75.7621 171.102 72.5135L171.103 72.4994Z" fill="#292929"/>
<path d="M257.987 63.733H259.974C261.484 63.7112 263.142 63.7112 264.906 63.7194C268.742 63.733 273.09 63.7412 276.456 63.4398C288.101 62.403 294.649 55.3602 294.896 43.6164C295.14 31.8374 288.368 24.1025 276.766 22.9192C273.134 22.5475 268.427 22.5691 264.266 22.5909C262.868 22.5909 261.524 22.6044 260.303 22.5909C256.041 22.5555 252.721 22.5637 248.886 22.5691H243.644V75.0559H256.459V63.733H257.993H257.987ZM256.993 35.5993C258.514 35.5993 260.139 35.5831 261.871 35.5506C264 35.5234 266.198 35.4882 268.327 35.5018C271.638 35.48 274.103 35.5506 276.09 35.6973C279.852 35.9848 282.092 39.2906 281.804 44.1217C281.565 48.1332 279.176 50.6191 275.417 50.771C273.275 50.8509 271.132 50.887 268.989 50.8795H267.963C265.911 50.8795 263.783 50.8633 261.717 50.8523C260.064 50.8361 258.462 50.8226 256.988 50.8226H256.595V35.5995L256.993 35.5993Z" fill="#292929"/>
<path d="M396.699 74.9502L412.424 75.0207L401.121 59.0974L401.479 58.8747C401.479 58.8747 402.462 58.2722 402.771 58.0957C411.012 53.4275 414.196 46.1241 412.237 36.3914C410.597 28.2548 404.674 23.4807 395.562 22.9569C388.368 22.5416 381.663 22.5552 374.56 22.577C371.595 22.577 368.534 22.5906 365.426 22.5634C364.541 22.5552 363.648 22.5634 362.727 22.5634H361.777V75.0531H374.848V62.012L387.334 62.1044L396.699 74.9502ZM380.301 49.5548C378.599 49.533 376.913 49.5194 375.298 49.5194H374.905V35.5775H375.298C376.921 35.5775 378.572 35.5557 380.314 35.5287C384.503 35.4718 388.83 35.4092 392.709 35.6888C395.982 35.9276 397.95 38.9456 397.72 43.3832C397.521 47.1286 395.57 49.2862 392.204 49.4463C390.095 49.5522 387.847 49.582 385.564 49.582C383.813 49.582 382.044 49.5576 380.298 49.544L380.301 49.5548Z" fill="#292929"/>
<path d="M221.152 75.0616H237.729L216.86 51.7615L217.042 51.5009L237.84 22.564H221.179L199.916 52.8445V22.564H186.952V75.0616H200.107L209.471 62.026L221.152 75.0616Z" fill="#292929"/>
<path d="M469.745 22.5557H418.607V35.4744H437.657V75.0562H450.613V35.4744H469.745V22.5557Z" fill="#292929"/>
<path fill-rule="evenodd" clip-rule="evenodd" d="M327.961 22.6399C335.262 22.8082 343.514 23.8666 349.426 30.4399H349.418C351.427 32.6791 353.037 35.3416 353.965 37.9388C357.021 46.5287 356.593 54.8554 352.7 62.6826C350.529 67.0386 346.967 70.3144 342.393 72.1547C332.247 76.2393 322.361 76.0087 313.001 71.4708C308.007 69.039 304.535 65.1037 302.703 59.757C299.695 50.9906 300.072 42.7345 303.84 35.2141C307.388 28.1169 313.816 24.111 323.498 22.9547C324.665 22.8161 325.824 22.7592 326.851 22.7022C327.258 22.6823 327.628 22.6615 327.961 22.6399ZM334.187 34.0605C328.186 32.4131 322.599 33.1296 318.87 36.0201C315.406 38.7015 313.628 43.12 313.731 48.8112C313.737 53.3573 314.779 56.9399 316.848 59.5344C320.873 54.3967 325.629 52.1196 328.748 51.4303C328.783 51.4249 328.818 51.4085 328.854 51.4031C328.937 51.3832 329.021 51.367 329.106 51.3544L329.332 51.311C329.394 51.3056 329.451 51.2892 329.513 51.2838C330.097 51.1915 330.602 51.1643 331.004 51.1915C333.504 51.2349 335.808 52.2284 336.87 53.6911C336.799 53.7264 336.731 53.7752 336.653 53.7996C336.345 53.8828 336.083 53.9732 335.866 54.071C334.513 54.5196 333.599 55.7833 333.596 57.2085C333.596 59.0485 335.157 60.5874 336.941 60.5412C338.681 60.4925 339.688 59.4718 340.122 59.1434C340.693 58.3909 341.18 57.5771 341.572 56.717L341.58 56.7252C344.615 50.0433 342.956 40.0882 338.17 36.245C336.794 35.1459 335.458 34.4106 334.187 34.0605Z" fill="#292929"/>
<path d="M49.6684 4.07505C50.6021 4.11961 52.151 4.5363 53.2252 6.59522C53.6353 7.38181 53.9897 8.42241 54.3061 9.78612C54.6538 11.2724 55.1218 13.592 55.621 16.0476L56.3587 19.6908C56.6751 19.4764 57.0224 19.3111 57.3883 19.2006L58.0769 18.9443L58.4291 19.0335H58.487C58.5835 19.0319 58.6802 19.035 58.7767 19.0424H58.799C61.4711 19.2697 62.1932 22.0104 62.4718 23.0377C62.6568 23.7329 62.8172 24.5128 62.9509 25.2659C65.5941 23.0042 69.0172 21.674 73.0889 21.6116H73.1224C73.2026 21.6087 73.2857 21.6064 73.372 21.6049C74.9387 21.6049 76.5099 22.2645 77.0091 22.9641C77.4013 23.4031 77.1294 23.9401 76.5678 24.0159C74.4417 24.5239 72.3111 25.3751 71.91 25.9233C71.9835 25.8654 73.1357 25.7094 74.7827 25.7094C76.8642 25.7094 79.7369 25.9634 82.2352 27.004C89.0927 29.7336 95.315 37.283 93.5276 46.419C93.4362 47.0317 93.0195 47.2791 92.5515 47.2791C92.4213 47.2782 92.2918 47.261 92.1659 47.2278C90.5168 46.9226 86.8752 47.0763 86.0528 47.6111L85.957 47.5777C86.376 47.7537 87.0401 47.9721 87.4791 48.1191C88.4753 48.4489 89.4983 48.7832 90.3652 49.2689L90.3875 49.2801H90.3942L90.4009 49.2868C93.3605 50.9268 95.8409 54.1243 97.0555 55.8758C97.8578 57.0389 98.5754 58.2466 99.068 59.2717C99.6808 60.5485 100.236 62.057 99.692 63.5499L99.5872 63.8396L99.4312 64.1048C98.3102 65.9877 96.28 66.1503 95.6158 66.2038H95.5936C95.2102 66.2306 94.8581 66.2417 94.5171 66.2595C93.0774 66.3286 92.1236 66.3754 90.6304 67.0127C89.4965 67.5123 88.4301 68.1531 87.4569 68.9201C81.7449 74.2234 71.803 77.6839 63.8112 80.4648L63.4992 80.5762L63.3855 80.6096L62.3492 80.9327C60.9452 81.3784 59.7239 81.7661 58.1126 82.0201C55.8552 82.3983 53.5707 82.5897 51.2819 82.5928C46.1115 82.5928 41.5161 81.5455 37.8321 79.5467C35.9897 79.8654 34.1235 80.0256 32.2539 80.0258H31.7324C31.0266 80.0554 30.3447 80.0704 29.6865 80.0704C18.0175 80.0704 12.749 75.6317 9.70249 70.979C6.783 66.5314 7.00586 61.5423 8.57927 59.1201C8.80949 58.7752 9.27571 58.6818 9.6207 58.912C9.77537 59.0152 9.88613 59.1718 9.93204 59.3519C10.0836 60.7557 10.6853 62.9416 11.9579 64.5036C11.6726 60.8136 10.8525 53.2976 18.978 49.846C16.1321 48.4467 13.4065 47.0072 11.4185 45.7995L11.3896 45.7817L11.3606 45.7639L10.9505 45.5054C10.0368 44.9327 9.17654 44.3957 8.29178 43.4643C7.72348 42.9027 6.60248 41.6193 5.57286 33.5083C4.87976 28.0491 4.8909 24.2833 5.60852 22.309L5.67538 22.1129L5.77566 21.9213C6.54454 20.4261 7.94411 19.5281 9.51752 19.5281C11.8353 19.5281 13.402 21.4244 14.1531 22.3335L14.2288 22.4249L14.2979 22.5229C15.2763 23.8889 16.5533 25.7851 17.9083 27.7906C20.0299 30.9347 22.9717 35.2954 24.9619 37.8401C25.6708 36.9731 26.7325 36.4715 27.8524 36.4742C30.2348 36.4742 31.8126 38.4506 33.9521 41.47C34.1549 41.7596 34.4335 42.1451 34.5316 42.2677L34.6118 42.359L34.7009 42.4749L34.9884 42.8693C38.913 39.5046 43.7358 36.9198 48.8995 35.36C47.6737 33.2075 46.4257 30.4801 45.795 29.0674C42.5457 21.743 42.6036 19.8936 42.6259 19.2853C42.6905 17.4469 43.7893 11.7069 45.0261 8.27757V8.25529L45.1643 7.90322C45.243 7.69822 45.3225 7.50503 45.4028 7.32387C45.8062 6.34343 46.2987 5.60141 46.9049 5.0644L47.101 4.89505H47.1144L47.1255 4.87945C47.2993 4.74576 47.4865 4.62387 47.6871 4.51402L47.7607 4.47391L47.8008 4.45608L47.8699 4.42266L47.9167 4.40483C48.4136 4.17977 48.953 4.0639 49.4901 4.0639L49.6684 4.07505Z" fill="white"/>
<path fill-rule="evenodd" clip-rule="evenodd" d="M8.74193 23.4611C9.47738 22.0216 10.8368 23.5457 11.599 24.466C14.8528 29.0273 21.6122 39.6762 24.2843 42.0872C26.0605 43.6314 26.8695 42.1451 27.3375 40.3893C27.3741 40.2533 27.4287 40.1228 27.5002 40.0015C28.3605 38.7938 31.2822 43.6091 32.0266 44.4581C32.8422 45.5678 33.7961 46.8869 34.4847 47.747C34.536 47.805 34.5895 47.8406 34.6452 47.8228C45.4585 36.0241 67.2009 32.6995 77.7891 43.7072C78.783 44.7322 79.5943 45.7416 80.6038 46.8758C81.3326 47.6623 82.536 49.0305 83.6927 50.1068C84.7959 50.9335 87.4501 51.4304 88.7583 52.1702V52.1768L88.7985 52.1991C92.8233 54.4318 96.9396 61.4331 96.5808 62.4158C96.3624 62.7856 95.8342 62.8614 95.3662 62.8948C93.3894 63.0285 91.7937 62.9082 89.3066 63.9755C87.9026 64.595 86.3759 65.4975 85.2594 66.4333C80.0043 71.3578 70.0402 74.7894 62.4071 77.4477C60.5284 78.027 59.296 78.4883 57.5799 78.7602C52.5878 79.5913 46.6485 79.5958 41.6453 77.6772C32.5392 73.4301 31.2889 64.6351 31.2822 64.5839V64.5906C30.9813 59.519 34.1326 58.8951 36.2253 59.0511C37.0454 59.1268 37.5714 58.1954 37.2014 57.4155C33.805 50.5814 28.414 49.0416 24.6766 48.8946C20.5247 46.9894 15.9448 44.6831 13.1479 42.9785C12.1183 42.3256 11.3784 41.9156 10.6675 41.158C9.61555 40.1219 7.59197 26.6341 8.74193 23.4611ZM53.3812 51.8404C50.854 48.0657 47.2525 46.0468 45.327 47.3214C43.4304 48.6138 43.9341 52.7027 46.4547 56.4796C48.9819 60.2543 52.5834 62.2731 54.5089 60.9986C56.4032 59.7285 55.9018 55.6173 53.3812 51.8404Z" fill="#292929"/>
<path d="M49.2695 7.45088C49.8534 7.15675 50.4796 8.00795 51.0747 10.5437C51.9528 14.3028 53.7111 23.9579 54.5558 26.5762C54.9725 27.8775 55.728 26.9282 56.4635 25.6113C56.4947 25.5429 56.5252 25.4732 56.5549 25.4019C57.1165 24.1206 57.6892 22.8304 58.2085 22.4605C58.2952 22.3863 58.4064 22.3467 58.5205 22.3491C59.6482 22.4427 61.1169 35.2508 60.348 35.2553C59.5791 35.2553 54.7519 35.4224 53.4281 35.8569C52.4163 36.1912 45.8508 21.9102 45.9511 19.4123C46.009 17.6965 47.2972 11.2791 48.4783 8.6029C48.6745 8.10377 48.8884 7.74724 49.1135 7.55561C49.1269 7.54514 49.1402 7.53333 49.1536 7.51996C49.1877 7.49768 49.2227 7.47695 49.2584 7.45757C49.2584 7.45311 49.2695 7.45088 49.2695 7.45088Z" fill="#292929"/>
<path fill-rule="evenodd" clip-rule="evenodd" d="M49.4945 1.02228C52.2134 1.02228 54.5669 2.54419 55.9553 5.19584C56.4857 6.21416 56.9314 7.49765 57.3081 9.11092C57.6602 10.6417 58.1327 12.9837 58.6385 15.4637C58.6669 15.6271 58.6994 15.7935 58.7366 15.9629L58.8035 15.9851H58.8391C58.9082 15.9851 58.9728 15.9963 59.0419 15.9963H59.082C61.1547 16.1746 62.9376 17.2664 64.1187 19.0713C64.4129 19.5281 64.6514 19.9916 64.8363 20.4239C67.3057 19.2407 70.0691 18.6034 73.0243 18.5521C73.1462 18.5461 73.2672 18.5439 73.3876 18.5454C75.4602 18.5454 78.1056 19.332 79.436 21.079C79.9397 21.7029 80.2227 22.4494 80.2695 23.2114C81.317 23.4365 82.3801 23.7485 83.4097 24.1763C91.5219 27.414 98.6289 36.2758 96.563 46.9715C96.4137 47.8695 96.0036 48.6427 95.413 49.2221C97.1357 50.8354 98.5643 52.6559 99.6006 54.1533C100.497 55.4501 101.294 56.8027 101.854 57.9636C102.344 58.9886 103.659 61.716 102.596 64.6239L102.491 64.9136L102.393 65.181L102.248 65.4261L102.092 65.6935C101.207 67.1731 99.4134 69.007 95.8744 69.2788H95.8186C95.4086 69.3078 95.0386 69.3234 94.6798 69.3412C93.3426 69.4058 92.8412 69.4303 91.8695 69.8448C91.0137 70.2258 90.0866 70.7762 89.4804 71.262C83.2938 76.9552 73.0644 80.5227 64.8363 83.3838L64.5288 83.4952L64.4709 83.513L64.4196 83.5286L64.3683 83.5464L64.3104 83.5643C63.956 83.6757 63.6329 83.7782 63.3209 83.8829H63.2986C61.8411 84.3442 60.4593 84.7787 58.6252 85.0728C56.2067 85.4781 53.7588 85.6829 51.3064 85.6856C46.1026 85.6856 41.2999 84.6806 37.3463 82.7599C35.6748 82.9983 33.9699 83.1186 32.2695 83.1186H31.7904C31.0839 83.1476 30.3796 83.1587 29.7021 83.1587C23.8052 83.1587 19.0003 82.1248 15.0267 79.9901C11.8286 78.281 9.25008 75.8856 7.15072 72.6836C3.50915 67.1441 3.82562 60.8381 6.01858 57.4667L6.03641 57.4377L6.05201 57.4088C6.82512 56.2672 8.15471 55.6324 9.52866 55.7487C10.1774 53.6441 11.3445 51.7363 12.9228 50.2003C11.8531 49.621 10.7945 49.0193 9.83398 48.4355L9.80501 48.4177L9.77603 48.4021L9.75375 48.3843L9.72478 48.3664L9.32585 48.1191C8.34972 47.5108 7.24432 46.8178 6.1055 45.6324C4.89536 44.4246 3.62504 42.4749 2.53747 33.9116C1.76191 27.7972 1.82432 23.7841 2.73359 21.2818L2.80268 21.0834L2.87177 20.8985L2.96091 20.7269L3.05674 20.5353C4.34043 18.0307 6.82311 16.4754 9.52866 16.4754C13.2928 16.4754 15.6462 19.3276 16.531 20.3971L16.6045 20.4885L16.6758 20.5687L16.7382 20.6578L16.8073 20.7537C18.0476 22.516 19.2659 24.2935 20.4623 26.0859C22.0357 28.41 24.037 31.3758 25.7486 33.7512C26.4261 33.5313 27.1319 33.4198 27.8658 33.4169C31.4494 33.4169 33.7092 35.926 35.6058 38.5086C38.3775 36.5305 41.3801 34.8979 44.547 33.6465C44.0121 32.5499 43.4971 31.4438 43.0025 30.3286C39.8669 23.2827 39.5103 20.7381 39.5682 19.1939C39.6351 17.2441 40.6246 11.8562 41.8637 8.07032L42.1802 7.11216L42.3139 6.78683C42.3966 6.57136 42.4835 6.35722 42.5746 6.14509C43.1586 4.73459 43.9096 3.62936 44.8701 2.78039C44.9793 2.67566 45.0952 2.5843 45.2178 2.48626L45.2401 2.46398H45.2512C45.5588 2.22488 45.8864 2.01231 46.234 1.82669L46.3098 1.78658L46.3789 1.74424L46.448 1.71082H46.4547L46.4881 1.69299L46.5773 1.64843L46.6664 1.60163H46.6842C47.5645 1.20723 48.534 1 49.4901 1L49.4945 1.02228ZM49.4901 4.06388C48.9507 4.06388 48.4136 4.17975 47.9167 4.4048L47.8721 4.42263L47.8008 4.45605L47.7607 4.47388L47.6849 4.51399C47.4872 4.6254 47.3009 4.74729 47.1255 4.87943L47.1121 4.89502H47.101L46.9049 5.06437C46.2987 5.60139 45.8062 6.34118 45.4005 7.32384C45.3219 7.505 45.243 7.69819 45.1643 7.9032L45.0261 8.25526V8.27755C43.7892 11.7069 42.6905 17.4469 42.6259 19.2852C42.6036 19.8935 42.5457 21.743 45.795 29.0674C46.4257 30.4778 47.6737 33.2075 48.8995 35.3578C43.7358 36.9198 38.9153 39.5024 34.9884 42.8671L34.6987 42.4749L34.6118 42.359L34.5316 42.2677C34.3325 42.0061 34.1393 41.74 33.9521 41.4699C31.8126 38.4529 30.2348 36.4741 27.8524 36.4741C26.7327 36.4708 25.6712 36.9717 24.9619 37.8378C22.9717 35.2954 20.0299 30.9346 17.906 27.7883C16.5533 25.7829 15.2763 23.8888 14.2979 22.5229L14.231 22.4249L14.153 22.3335C13.402 21.4244 11.8353 19.5281 9.51751 19.5281C7.94411 19.5281 6.54453 20.4261 5.77343 21.9213L5.6776 22.1129L5.60851 22.309C4.8909 24.281 4.87975 28.0513 5.57286 33.5083C6.60248 41.6192 7.72347 42.9027 8.29177 43.4642C9.17431 44.3957 10.0368 44.9349 10.9505 45.5053C11.0798 45.5856 11.2164 45.6725 11.3606 45.766L11.3896 45.7816L11.4185 45.7995C13.4087 47.0072 16.1321 48.4467 18.9758 49.846C10.8525 53.2998 11.6726 60.8136 11.9556 64.5036C10.6853 62.9438 10.0836 60.7557 9.93204 59.3518C9.85248 59.0154 9.54916 58.7796 9.20328 58.7859C8.96705 58.7859 8.73527 58.895 8.57927 59.1201C7.00809 61.5422 6.78077 66.5313 9.70249 70.979C12.749 75.6316 18.0152 80.0703 29.6865 80.0703C30.3433 80.0703 31.0253 80.0554 31.7324 80.0258H32.2517C34.3332 80.0258 36.1897 79.8297 37.8321 79.5467C41.5161 81.5477 46.1137 82.5928 51.2819 82.5928C53.5261 82.5928 55.8216 82.4033 58.1104 82.0201C59.7239 81.7661 60.9452 81.3783 62.3492 80.9327L63.3855 80.6096L63.5014 80.5762L63.8134 80.4647C71.803 77.6839 81.7449 74.2211 87.4568 68.9201C88.4301 68.1531 89.4965 67.5122 90.6304 67.0126C92.1236 66.3754 93.0774 66.3286 94.5171 66.2595C94.8581 66.2417 95.2102 66.2327 95.5913 66.2038H95.6136C96.2822 66.1503 98.3102 65.9876 99.4312 64.1047L99.5872 63.8374L99.692 63.5477C100.236 62.057 99.6808 60.5484 99.068 59.2694C98.4816 58.0909 97.809 56.9573 97.0555 55.878C95.8409 54.1243 93.3605 50.929 90.4009 49.2867L90.3942 49.28H90.3875L90.3652 49.2689C89.496 48.7831 88.4731 48.4489 87.4791 48.1191C87.0401 47.972 86.376 47.7537 85.957 47.5776L86.0528 47.6111C86.8774 47.0763 90.519 46.9203 92.1659 47.2278C92.2918 47.261 92.4213 47.2782 92.5515 47.279C93.0195 47.279 93.4362 47.0317 93.5276 46.4189C95.315 37.283 89.0927 29.7336 82.2352 27.004C79.7391 25.9634 76.8642 25.7093 74.7827 25.7093C73.1335 25.7093 71.9858 25.8653 71.9078 25.9233C72.3134 25.3729 74.4417 24.5239 76.5678 24.0159C77.1294 23.9401 77.4013 23.4031 77.0068 22.9641C76.5099 22.2644 74.9387 21.6049 73.372 21.6049L73.1224 21.6093H73.0867C69.0172 21.6739 65.5941 23.0042 62.9509 25.2637C62.823 24.5152 62.663 23.7725 62.4718 23.0376C62.1932 22.0104 61.4689 19.2696 58.799 19.0423H58.7767C58.6802 19.0334 58.5835 19.0296 58.487 19.0312H58.4291C58.4291 19.0312 57.551 19.0602 56.869 19.4011C56.6936 19.4829 56.5236 19.5794 56.3587 19.6908L55.6188 16.0475C55.1218 13.592 54.6538 11.2723 54.3061 9.78609C53.9874 8.42238 53.6375 7.38178 53.2252 6.5952C52.151 4.53627 50.5999 4.11736 49.6684 4.07279L49.4901 4.06388Z" fill="#292929"/>
</svg>
