<?xml version="1.0" encoding="UTF-8"?>
<svg xmlns="http://www.w3.org/2000/svg" viewBox="0 0 148.547 130.941">
  <polygon points="28.102 0 6.153 0 19.116 21.175 41.065 21.175 28.102 0"/>
  <polygon points="19.116 21.175 0 21.175 26.446 65.471 0 109.766 19.116 109.766 45.562 65.471 19.116 21.175"/>
  <polygon points="142.394 0 120.444 0 107.481 21.175 129.431 21.175 142.394 0"/>
  <polygon points="6.153 130.941 28.102 130.941 41.065 109.766 19.116 109.766 6.153 130.941"/>
  <path d="M109.749,94.194l-16.583-28.723,16.583-28.723h-11.259l8.991-15.573H41.065l8.991,15.573h-11.259l16.583,28.723-16.583,28.723h11.259l-8.991,15.573h66.416l-8.991-15.573h11.259ZM87.106,47.921l-10.132,17.549,10.132,17.549h-7.029l7.029,12.174h-25.665l7.029-12.174h-7.029l10.132-17.549-10.132-17.549h7.029l-7.029-12.174h25.665l-7.029,12.174h7.029Z"/>
  <polygon points="120.444 130.941 142.394 130.941 129.431 109.766 107.481 109.766 120.444 130.941"/>
  <polygon points="122.1 65.471 148.547 21.175 129.431 21.175 102.985 65.471 129.431 109.766 148.547 109.766 122.1 65.471"/>
</svg>