<?xml version="1.0" encoding="UTF-8"?>
<svg xmlns="http://www.w3.org/2000/svg" viewBox="0 0 200 200">
  <path d="M170,85V40c0-5.5-4.5-10-10-10c-2.2,0-4.3,0.7-6,2L98,72H50C38.95,72,30,80.95,30,92v16c0,11.05,8.95,20,20,20h6.5l10,50h27l-10-50H98l56,40c1.7,1.3,3.8,2,6,2c5.5,0,10-4.5,10-10V115c6.6-2.6,11-9,11-16S176.6,87.6,170,85z M50,112c-2.2,0-4-1.8-4-4V92c0-2.2,1.8-4,4-4h44v24H50z M98,152h-14l-5-24h14L98,152z M150,142l-36-25.7V83.7L150,58V142z M170,108.5c-2.5,1.6-5.5,0.3-5.5-2.5v-12c0-2.8,3-4.1,5.5-2.5V108.5z"/>
</svg>
