<?xml version="1.0" encoding="UTF-8"?>
<svg xmlns="http://www.w3.org/2000/svg" viewBox="0 0 263.261 317.65">
  <path d="M180.529,190.013c-1.507-.564-3.169-.481-4.635.182-13.406,6.066-28.249,9.442-43.869,9.442-15.751,0-30.714-3.431-44.209-9.593-1.47-.671-3.14-.758-4.654-.191L3.895,219.508c-2.343.876-3.895,3.115-3.895,5.616v86.529c0,3.312,2.685,5.997,5.997,5.997h92.084c2.836,0,5.284-1.986,5.868-4.761l18.903-89.773c2.09-9.924,16.258-9.924,18.347,0l18.903,89.773c.584,2.775,3.032,4.761,5.868,4.761h91.295c3.312,0,5.997-2.685,5.997-5.997v-86.529c0-2.501-1.553-4.74-3.895-5.616l-78.838-29.496Z"/>
  <circle cx="132.025" cy="89.775" r="89.775"/>
</svg>