<?xml version="1.0" encoding="UTF-8"?>
<svg xmlns="http://www.w3.org/2000/svg" viewBox="0 0 374.22 374.22">
  <g>
    <path d="M314.13,49.73c-.89-.82-2.27-.78-3.12.07l-16.77,16.77h0s-124.71,124.71-124.71,124.71c-.88.88-2.3.88-3.18,0l-56.98-56.98c-.88-.88-2.31-.88-3.19,0l-32.69,32.69c-.88.88-.88,2.3,0,3.18l58.57,58.57,34.29,34.29c.88.88,2.3.88,3.18,0l34.29-34.29,105.65-105.65c1.09-1.09,2.91-.78,3.6.59,9.82,19.46,15.27,41.51,15.04,64.86-.76,76.94-63.94,139.52-140.89,139.57-89.06.06-158.86-82.44-137.09-175.17,11.87-50.54,51.35-90.34,101.8-102.57,31.28-7.58,61.41-4.7,87.65,5.83,1.47.59,3.07-.51,3.07-2.1V10.08c0-.99-.65-1.87-1.6-2.16C223.03,2.5,203.89-.3,184.04.02,84.52,1.63.84,85.98,0,185.52c-.86,103.82,82.83,188.29,186.34,188.7,102.6.41,186.98-82.88,187.86-185.47.47-54.96-22.76-104.49-60.08-139.02Z"/>
  </g>
</svg>