<?xml version="1.0" encoding="UTF-8"?>
<svg xmlns="http://www.w3.org/2000/svg" viewBox="0 0 388.9365 388.9365">
  <path d="M194.4683,0C87.0664,0,0,87.0664,0,194.4683s87.0664,194.4683,194.4683,194.4683,194.4683-87.0664,194.4683-194.4683S301.8701,0,194.4683,0ZM88.7402,114.582l24.2373-24.2373h5.2957l75.7283,75.7283-29.5332,29.533-75.728-75.728v-5.2959ZM112.9775,301.8008l-24.2373-24.2373v-5.2957l75.7283-75.7283,29.533,29.533-75.7283,75.7283h-5.2957ZM300.1963,277.5635l-24.2373,24.2373h-5.2957l-75.7283-75.7283,29.533-29.533,75.7283,75.7283v5.2957ZM300.1963,119.8779l-75.728,75.728-29.5332-29.533,75.7283-75.7283h5.2957l24.2373,24.2373v5.2959Z"/>
</svg>