<?xml version="1.0" encoding="UTF-8"?>
<svg xmlns="http://www.w3.org/2000/svg" viewBox="0 0 387.17 377.35">
    <g>
      <path d="M142.09,0v148.57H0v171.67h39.58v57.12l82.01-57.12h123.48v-148.57h19.28l80.41,56v-56h42.4V0h-245.07ZM207.47,283.86h-103.41l-32.21,19.44v-19.44h-34.95v-98.14h170.57v98.14ZM239,101.67h-39.22v-39.22h39.22v39.22ZM326.25,101.68h-39.22v-39.22h39.22v39.22Z"/>
      <polygon points="343.95 240.64 307.84 240.64 307.84 283.86 264.63 283.86 264.63 319.96 307.84 319.96 307.84 363.18 343.95 363.18 343.95 319.96 387.17 319.96 387.17 283.86 343.95 283.86 343.95 240.64"/>
  </g>
</svg>