<?xml version="1.0" encoding="UTF-8"?>
<svg xmlns="http://www.w3.org/2000/svg" viewBox="0 0 367.64 372.4">
  <g>
      <g>
        <path d="M269.38,159.42c0,2.34-.06,4.64-.16,6.91h22.46c7.54,0,14-2.68,19.36-8.04,5.35-5.35,8.04-11.74,8.04-19.17s-2.68-13.81-8.04-19.17c-5.36-5.35-11.81-8.03-19.36-8.03h-31.39c.23.53.47,1.04.7,1.58,5.59,13.25,8.39,28.56,8.39,45.93Z"/>
        <path d="M111.34,85.25c-14.85,14.85-22.28,32.75-22.28,53.69h48.57c0-7.3,2.68-13.63,8.04-18.99,5.35-5.35,11.81-8.03,19.36-8.03h95.26c-5.8-13.42-13.21-24.68-22.27-33.75-5.88-5.88-12.41-10.93-19.58-15.19h-53.42c-20.94,0-38.84,7.43-53.69,22.28Z"/>
        <path d="M345.37,85.25c-14.85-14.85-32.75-22.28-53.69-22.28h-1.63c7.4,9.92,13.62,20.87,18.63,32.86,8.54,20.31,12.81,41.95,12.81,64.92,0,18.19-2.61,35.3-7.81,51.32,5.52-1.68,10.85-4.02,15.99-7.02,11.69-6.81,20.94-16.07,27.76-27.76,6.81-11.69,10.23-24.47,10.23-38.35,0-20.94-7.43-38.83-22.28-53.69Z"/>
      </g>
      <g>
        <path d="M116.14,263.63c-13.54-5.3-25.03-12.95-34.44-22.96-9.71-10.3-17.22-22.23-22.52-35.77-5.3-13.54-7.95-28.7-7.95-45.49s2.65-32.08,7.95-45.93c5.3-13.83,12.81-25.61,22.52-35.33s21.2-17.22,34.44-22.52,27.82-7.95,43.72-7.95,30.47,2.65,43.72,7.95c5.23,2.09,10.18,4.55,14.87,7.33h71.61c-4.78-6.4-10.04-12.39-15.82-17.93-14.43-14.13-31.51-25.17-51.22-33.12C203.58,3.97,182.82,0,160.74,0s-42.83,3.97-62.27,11.92c-19.73,7.95-36.8,18.99-51.23,33.12-14.43,14.13-25.91,31.21-34.44,51.23C4.26,116.58,0,138.22,0,161.18c0,21.49,3.53,41.22,10.6,59.17,7.07,18.55,16.48,34.45,28.26,47.69,12.07,13.84,26.2,25.17,42.39,34,15.84,8.51,36.91,14.02,53.24,16.31v-48.89c-6.37-1.5-12.5-3.5-18.36-5.84Z"/>
        <path d="M291.68,215.27h-35.4c-5.09,9.7-11.18,18.32-18.26,25.85-10.01,10.31-21.49,18.11-34.45,23.4-6.38,2.55-13.07,4.48-20.07,5.81v48.09c.07,0,.13-.02.2-.03,14.46-2.14,38.42-8.24,54.32-16.78,16.48-8.83,31.06-20.16,43.72-34,12.36-13.54,22.08-29.44,29.14-47.69,1-2.59,1.93-5.21,2.78-7.86-7.03,2.14-14.36,3.21-21.99,3.21Z"/>
        <path class="cls-1" d="M183.51,270.33v-27.51c0-7.54,2.26-14.02,7.61-19.38,5.35-5.35,11.81-8.03,19.36-8.03h45.61c1.67-3.19,3.24-6.5,4.7-9.92,4.84-11.46,7.58-24.47,8.23-39.02h-58.54c-13.64,0-26.3,3.41-37.98,10.23-11.69,6.82-20.94,16.07-27.76,27.76-6.82,11.69-10.23,24.47-10.23,38.35v26.68c8.04,1.89,16.49,2.99,25.35,2.99,8.24,0,16.12-.72,23.65-2.14Z"/>
        <path d="M134.69,318.39c-.06,0-.13-.02-.19-.03v54.04s49.01,0,49.01,0v-53.98c-14.43,2.11-32.54,2.24-48.82-.03Z"/>
      </g>
  </g>
</svg>