<?xml version="1.0" encoding="UTF-8"?>
<svg xmlns="http://www.w3.org/2000/svg" viewBox="0 0 216.253 228.657">
  <polygon class="b" points="216.253 172.518 185.377 172.518 185.377 141.642 160.115 141.642 160.115 172.518 129.239 172.518 129.239 197.781 160.115 197.781 160.115 228.657 185.377 228.657 185.377 197.781 216.253 197.781 216.253 172.518"/>
  <path class="b" d="M154.146,126.615c-10.11-7.35-21.791-12.695-34.557-15.622,19.694-9.36,33.312-29.43,33.312-52.686C152.9,26.105,126.795,0,94.593,0s-58.308,26.105-58.308,58.308c0,23.719,14.17,44.115,34.5,53.223C28.338,122.299-1.67,159.907.072,209.936l44.034-.248c-.996-32.178,22.246-54.825,52.195-54.825,8.196,0,15.884,1.707,22.717,4.831,5.195-16.235,18.486-28.847,35.129-33.077Z"/>
</svg>