<?xml version="1.0" encoding="UTF-8"?>
<svg xmlns="http://www.w3.org/2000/svg" viewBox="0 0 240.41 246.1">
  <g>
    <path d="M207.38,245.8l32.73-32.73c.39-.39.39-1.02,0-1.41l-47.45-47.45c-.33-.33-.38-.85-.12-1.25,11.33-17.08,17.81-37.66,17.44-59.78C209.03,46.75,162.95.8,106.51.01S0,46.51,0,105s47.01,105,105,105c.72,0,1.44,0,2.16-.03.54-.01.97-.46.97-1v-40.52c0-.56-.47-1.01-1.03-.99-.7.02-1.4.04-2.1.04-35.5,0-64.08-29.59-62.43-65.45,1.47-32.02,27.46-58.01,59.48-59.48,35.86-1.65,65.45,26.94,65.45,62.43,0,27.12-17.27,50.21-41.42,58.86-.7.25-.91,1.13-.38,1.65l80.28,80.29c.39.39,1.02.39,1.41,0Z"/>
  </g>
</svg>