<?xml version="1.0" encoding="UTF-8"?>
<svg xmlns="http://www.w3.org/2000/svg" viewBox="0 0 200 200">
    <path d="M198.5329,122.014l-16.0816-8.5404c-1.827-.9703-2.8873-2.9426-2.6963-5.0024.5012-5.4061.447-10.8002-.1375-16.105-.2298-2.0856.8227-4.1001,2.6727-5.09l15.9493-8.5343c2.3208-1.2418,3.3265-4.0377,2.3285-6.4734l-9.335-22.7834c-1.006-2.4553-3.7173-3.7396-6.2544-2.9625l-17.6045,5.3919c-1.9944.6108-4.153-.0507-5.4731-1.6656-3.3544-4.1033-7.1331-7.8994-11.3114-11.3097-1.6109-1.3148-2.2732-3.4673-1.6705-5.4574l5.2542-17.3491c.763-2.5192-.5028-5.2073-2.9308-6.2239L128.5313.3993c-2.4475-1.0248-5.2728-.0158-6.5173,2.3277l-8.4531,15.9171c-.9843,1.8534-2.9977,2.9147-5.0839,2.6879-5.4981-.5976-10.9886-.6143-16.3932-.0845-2.0636.2023-4.0444-.8514-5.0226-2.6796l-8.3193-15.5475c-1.2418-2.3208-4.0377-3.3265-6.4734-2.3285l-22.7835,9.335c-2.4554,1.006-3.7396,3.7173-2.9626,6.2544l5.0607,16.5231c.6178,2.0171-.0646,4.2015-1.7166,5.5133-4.4321,3.5195-8.5181,7.5287-12.1653,11.9919-1.3123,1.6059-3.4627,2.2604-5.4476,1.6593l-16.1211-4.8824c-2.5192-.7629-5.2073.5029-6.2239,2.9308L.3993,72.7285c-1.0248,2.4475-.0158,5.2728,2.3277,6.5174l14.6788,7.7954c1.8702.9931,2.9229,3.0315,2.685,5.1356-.6661,5.8907-.672,11.7757-.0456,17.5559.2267,2.0919-.8184,4.114-2.6737,5.1067l-14.3512,7.6792c-2.3208,1.2418-3.3266,4.0377-2.3286,6.4734l9.335,22.7835c1.006,2.4553,3.7173,3.7396,6.2544,2.9625l15.6955-4.8072c2.0117-.6162,4.1827.0675,5.5065,1.7028,3.6783,4.5439,7.8818,8.7097,12.5614,12.4054,1.6634,1.3137,2.369,3.4994,1.7546,5.5279l-4.7125,15.5602c-.763,2.5192.5029,5.2073,2.9308,6.2239l22.7112,9.5095c2.4476,1.0248,5.2728.0158,6.5173-2.3277l7.8754-14.8294c.9781-1.8417,2.9722-2.8937,5.0481-2.6945,5.8085.5572,11.6034.4639,17.2918-.2311,2.1012-.2568,4.1418.7998,5.1404,2.6662l7.917,14.7956c1.2418,2.3208,4.0377,3.3265,6.4734,2.3286l22.7835-9.335c2.4554-1.006,3.7396-3.7173,2.9625-6.2543l-5.1445-16.7969c-.605-1.9755.0362-4.1166,1.6242-5.4383,4.2349-3.5248,8.1311-7.5091,11.6076-11.9193,1.3063-1.6572,3.4904-2.3483,5.51-1.7366l16.792,5.0856c2.5192.763,5.2073-.5029,6.2239-2.9308l9.5095-22.7112c1.0248-2.4475.0158-5.2728-2.3277-6.5173ZM84.7756,137.4752c-20.0817-8.3181-29.6179-31.3407-21.2998-51.4223,8.3181-20.0817,31.3407-29.6179,51.4223-21.2998,20.0816,8.3181,29.6179,31.3407,21.2998,51.4223-8.3181,20.0816-31.3407,29.6179-51.4223,21.2998Z"/>
</svg>