<?xml version="1.0" encoding="UTF-8"?>
<svg xmlns="http://www.w3.org/2000/svg" viewBox="0 0 353.69 310.53">
  <g>
    <path d="M247.3,243.99c0-21.63-13.75-36.3-34.65-36.3s-34.47,14.66-34.47,36.3,13.75,36.3,34.47,36.3,34.65-14.85,34.65-36.3Z"/>
    <path d="M146.1,243.99c0-36.92,28.06-64.14,62.57-66.54H78.32v31.85h36.93v101.23h92.42c-34.51-2.4-61.57-29.62-61.57-66.54Z"/>
    <path d="M217.63,310.53s80.53,0,81.83-.03c7.86-.01,19.61-.27,23.82-1.21,6.3-1.51,12.22-4.43,17.17-8.72,8.43-7.3,13.24-17.35,13.24-29.02,0-25.47-20.72-34.03-40.5-41.25-16.16-5.89-29.47-9.69-29.47-17.49,0-6.46,6.28-10.46,15.78-10.46s19.01,5.51,22.24,17.3l30.8-8.36c-.17-.56-.35-1.12-.54-1.68-4.82-14.16-15.51-24.76-28.89-29.47-5.66-2.18-17.42-2.69-23.65-2.69h-80.83c15.45,1.08,28.43,7.13,39.17,16.79-4.46,6-6.96,12.93-6.96,20.09,0,23.39,18.44,32.13,34.41,38.21,19.01,7.22,35.36,11.22,35.36,20.72,0,6.09-6.27,11.03-16.54,11.03-13.69,0-24.33-9.32-27.38-19.77l-31.18,8.37c2.85,8.12,8.49,17.05,11.97,21.12-6.93,8.37-24.41,16.19-39.86,16.52Z"/>
  </g>
  <path d="M252.81,150.56V0H30.07L0,30.07v280.45h89.7v-81.07h-41.25l-20.29,22.03v-42.19h28.35v-31.85h-28.35v-26.88h224.65ZM28.41,28.19h32.75L28.41,60.94V28.19ZM28.16,88.26h112.06v30.1H28.16v-30.1Z"/>
</svg>