<?xml version="1.0" encoding="UTF-8"?>
<svg xmlns="http://www.w3.org/2000/svg" viewBox="0 0 2467.47 2428.38">
  <path class="cls-1" d="M2259.69,1666.09c-879.24,246.06-1261.68-402.26-1919.29-444.05-605.68-38.49-267,618.9-22.96,850.13,561.06,531.61,1511.64,467.66,1946.56-188.31,31.27-47.16,162.75-258,178.34-323.63-64.96,64.96-135.5,92.66-182.64,105.86Z"/>
  <path class="cls-1" d="M1847.12,1006.95s-183.69,75.62-317.83,92.57c-499.95,63.16-1214.01,2.35-1418.33-226.15-99.3-111.05-2.55-252.52,117.56-264.75,308.84-31.44,654.87,340.63,936.62,417.3,194.66,52.97,357.07,48.62,681.98-18.97Z"/>
  <path class="cls-1" d="M1380.45,551.09c-281.09,25.39-661.97,57.15-913.84-51.04-185.88-79.84-140.83-278.24,70.06-252.23,200.21,24.7,310.85,207.81,591.81,268.94,55.21,12.01,155.54,26.55,251.96,34.33Z"/>
  <path class="cls-2" d="M2322.62,1163.86c-128.86-94.14-459.88-76.01-639.16,5.16-212.64,96.27-402.68,306.39-669.38,221.75,0,0,39.31,24.64,135.93,80.49,416,240.44,869.2,267.25,1191.27,116.38,145.83-68.32,196.21-266.78-18.66-423.77Z"/>
  <path class="cls-2" d="M2352.44,642.54c0,119.83-212.8,200.05-309.64,242.45-284.33,124.46-592.5,173.45-897.76,103.04,0,0,257.21-56.05,448.03-153.23,190.81-97.18,454.57-293.91,618.95-311,62.8-6.53,140.42,21.45,140.42,118.75Z"/>
  <path class="cls-2" d="M1128.49,475.1s95.07-8.83,271.09-82.35c160.97-67.23,521.62-291.67,629.91-165.11,99.63,116.44-110.3,174.97-192.25,203.61-260.82,91.18-479.6,86.02-708.76,43.85Z"/>
  <path class="cls-2" d="M737.15,103.78c.17-118.1,206.98,6.7,347.8,0,96.18-4.58,492.02-166.28,549.21-76.89,97.34,152.13-345.3,155.67-415.32,150.67-62.45-4.46-105.71-12.52-165.64-17.35-109.41-8.82-316.16,29.41-316.04-56.43Z"/>
</svg>