<svg viewBox="0 0 78 65" xmlns="http://www.w3.org/2000/svg">
<path d="M77.5452 24.8807L63.8551 30.7971C63.7079 30.861 63.5328 30.8011 63.4532 30.6611L46.249 0.175906C46.0858 -0.111917 45.652 0.00401147 45.652 0.33181V24.0052C45.652 24.1811 45.7953 24.325 45.9704 24.325H58.196C58.4388 24.325 58.594 24.5889 58.4746 24.8007L52.4812 35.4182C52.4255 35.5182 52.318 35.5821 52.2026 35.5821H43.6025C43.3438 35.5821 43.1926 35.2903 43.3438 35.0784L46.1296 31.1089C46.2769 30.897 46.1296 30.6052 45.8709 30.6052H31.0585C30.7999 30.6052 30.6486 30.897 30.7999 31.1089L33.5856 35.0784C33.7329 35.2903 33.5856 35.5821 33.327 35.5821H24.7269C24.6114 35.5821 24.508 35.5221 24.4483 35.4182L18.4469 24.7888C18.3275 24.5769 18.4788 24.313 18.7255 24.313H30.971C31.1461 24.313 31.2894 24.1691 31.2894 23.9932V0.319817C31.2894 -0.00798113 30.8556 -0.12391 30.6924 0.163913L13.6872 30.2854C13.6076 30.4253 13.4325 30.4852 13.2853 30.4213L0.446799 24.8807C0.160262 24.7568 -0.114337 25.0766 0.0488304 25.3404L19.3145 56.9609C19.4896 57.2448 19.9274 57.1049 19.9035 56.7731L19.4737 50.437C19.4657 50.2931 19.5493 50.1611 19.6846 50.1132L27.3853 47.3269C27.5286 47.2749 27.6877 47.3309 27.7673 47.4628L38.1901 64.8441C38.3135 65.052 38.612 65.052 38.7354 64.8441L49.3492 47.147C49.4288 47.0151 49.588 46.9591 49.7312 47.0111L58.3154 50.1172C58.4507 50.1651 58.5343 50.2971 58.5263 50.441L58.0965 56.7691C58.0726 57.1009 58.5104 57.2448 58.6855 56.9569L77.9512 25.3364C78.1143 25.0686 77.8397 24.7528 77.5532 24.8767L77.5452 24.8807ZM19.2986 47.8865L18.63 38.0726C18.618 37.8887 18.7613 37.7328 18.9484 37.7328H21.7421C21.8535 37.7328 21.957 37.7927 22.0167 37.8887L25.1606 43.1295C25.2402 43.2614 25.2124 43.4333 25.097 43.5372L19.8239 48.1104C19.6249 48.2823 19.3145 48.1544 19.2986 47.8905V47.8865ZM52.119 42.5218L54.8969 37.8887C54.9526 37.7927 55.056 37.7328 55.1715 37.7328H59.0437C59.2268 37.7328 59.374 37.8887 59.3621 38.0726L58.6935 47.8985C58.6776 48.1624 58.3671 48.2903 58.1682 48.1184L52.1867 42.9256C52.0713 42.8256 52.0434 42.6538 52.123 42.5178L52.119 42.5218Z" fill="#fff"/>
</svg>
