<?xml version="1.0" encoding="UTF-8"?>
<svg xmlns="http://www.w3.org/2000/svg" viewBox="0 0 252.3387 252.3387">
  <path d="M126.1694,0C56.4879,0,0,56.488,0,126.1694s56.4879,126.1694,126.1694,126.1694,126.1694-56.488,126.1694-126.1694S195.8508,0,126.1694,0ZM127.5678,36.6063c24.2652,0,46.2722,9.6541,62.4017,25.3254l-89.2987,38.4207-39.5233,85.8975c-14.3816-15.8893-23.1428-36.9612-23.1428-60.0804,0-49.4644,40.0988-89.5631,89.5631-89.5631ZM127.5678,215.7324c-24.2809,0-46.3008-9.6667-62.433-25.3559l89.2828-38.9481,39.5546-85.3573c14.3911,15.8914,23.1586,36.9705,23.1586,60.0983,0,49.4643-40.0988,89.563-89.563,89.563Z"/>
</svg>