<?xml version="1.0" encoding="UTF-8"?>
<svg xmlns="http://www.w3.org/2000/svg" viewBox="0 0 49.8896 43.2298">
  <path d="M39.7499,14.1978c.0181,1.7082-.2743,3.3443-.7998,4.8746L49.8763.1477c.0379-.0656-.0095-.1477-.0853-.1477h-20.992c-.1166,0-.1339.1594-.0212.1892,6.259,1.6574,10.9005,7.2751,10.9721,14.0086Z"/>
  <path d="M25.1016,29.0242c-4.2098.0447-8.0222-1.661-10.7467-4.4282-.0825-.0838-.216.0143-.1573.1161l10.6627,18.4684c.038.0658.1329.0658.1709,0l10.6804-18.499c.0572-.099-.0739-.202-.1539-.1203-2.6527,2.7108-6.3452,4.4194-10.4562,4.4631Z"/>
  <path d="M10.1419,14.5122c-.0727-6.8475,4.6024-12.6455,10.9879-14.3298.1093-.0288.0928-.1825-.0202-.1825H.0957C.0221,0-.0238.0796.0129.1433l10.9003,18.8799c-.4804-1.4194-.7546-2.9332-.7714-4.511Z"/>
  <polygon points="27.9957 17.4929 34.3997 5.4091 22.0931 11.3901 15.6933 23.4782 27.9957 17.4929"/>
</svg>