<svg viewBox="0 0 57 63" xmlns="http://www.w3.org/2000/svg">
<path d="M35.2158 0.323234V23.2376C35.2158 23.4079 35.3561 23.5473 35.5277 23.5473H47.4982C47.7399 23.5473 47.888 23.8027 47.7711 24.0118L41.9008 34.2884C41.8462 34.3852 41.741 34.4471 41.6279 34.4471H14.7048C14.5918 34.4471 14.4866 34.3852 14.432 34.2884L8.55778 24.0001C8.44084 23.7911 8.58896 23.5357 8.83064 23.5357H20.8207C20.9922 23.5357 21.1326 23.3963 21.1326 23.226V0.311622C21.1326 -0.00964433 20.7038 -0.118023 20.5479 0.156795L0.040764 36.065C-0.0761743 36.2741 0.0719523 36.5295 0.313625 36.5295H11.797C11.9061 36.5295 12.0075 36.5876 12.0659 36.6805L27.8994 62.7766C28.0202 62.9778 28.3126 62.9778 28.4373 62.7766L44.2707 36.6805C44.3292 36.5876 44.4306 36.5295 44.5397 36.5295H56.023C56.2647 36.5295 56.4128 36.2741 56.2959 36.065L35.8044 0.168407C35.6446 -0.110282 35.2197 0.00196796 35.2197 0.323234H35.2158Z"  fill="#fff"/>
</svg>
