<?xml version="1.0" encoding="UTF-8"?>
<svg xmlns="http://www.w3.org/2000/svg" viewBox="0 0 794.3817 705.4945">
    <rect class="d" x="295.2239" y="42.8643" width="221.323" height="221.323" rx="7.1779" ry="7.1779" transform="translate(10.3214 331.9698) rotate(-45)"/>
    <path class="d" d="M792.5379,391.945l-60.5597-67.2563c-2.6526-2.9459-7.1911-3.1838-10.1371-.5312l-195.3842,175.9254c-1.3182,1.1869-3.0292,1.8437-4.803,1.8437h-141.3553c-3.9643,0-7.1779-3.2137-7.1779-7.1779v-39.7137c0-3.9643,3.2137-7.1779,7.1779-7.1779h125.3287c3.9643,0,7.1779-3.2137,7.1779-7.1779v-90.53c0-3.9623-3.2106-7.1751-7.1729-7.1779l-307.1179-.2166c-1.6893-.0012-3.3249.5935-4.6189,1.6793L2.5642,504.9806c-3.0368,2.5482-3.4329,7.0757-.8847,10.1125l157.6142,187.8372c2.5482,3.0368,7.0757,3.4329,10.1125.8847l97.2615-81.6133c1.2927-1.0848,2.9263-1.6793,4.6139-1.6793h272.7611c1.7605,0,3.4597-.647,4.7743-1.818l243.161-216.5963c2.9714-2.6468,3.2226-7.2058.5598-10.1629Z"/>
</svg>