<svg width="20" height="18" viewBox="0 0 20 18" fill="none" xmlns="http://www.w3.org/2000/svg">
<path d="M12.6037 0H7.39658L0 12.8114L2.60341 17.3209H17.3966L20 12.8114L12.6034 0H12.6037ZM10.0003 14.4171C7.33527 14.4171 5.17456 12.2566 5.17456 9.59133C5.17456 6.92601 7.33497 4.76559 10.0003 4.76559C12.6656 4.76559 14.826 6.92601 14.826 9.59133C14.826 12.2566 12.6656 14.4171 10.0003 14.4171Z" fill="white"/>
<path d="M10.0003 12.8686C11.8103 12.8686 13.2776 11.4013 13.2776 9.59126C13.2776 7.78126 11.8103 6.31396 10.0003 6.31396C8.19029 6.31396 6.72299 7.78126 6.72299 9.59126C6.72299 11.4013 8.19029 12.8686 10.0003 12.8686Z" fill="white"/>
</svg>
