<?xml version="1.0" encoding="UTF-8"?>
<svg xmlns="http://www.w3.org/2000/svg" viewBox="0 0 374.53 309.73">
  <g>
      <rect x="80.63" y="20.44" width="58.29" height="117.86" rx="1" ry="1"/>
      <path d="M237.6,223.35c-.53-.03-.94-.47-.94-.99v-89.26c0-.55-.45-1-1-1h-56.3c-.55,0-1,.45-1,1v87.86c0,.55-.44.99-.99.99-12.89.14-25.44.56-37.51,1.23-.53.03-.94.47-.94,1v45.23c0,.55-.45,1-1,1h-56.3c-.55,0-1-.45-1-1v-39.11c0-.61-.55-1.08-1.16-.99C31.4,236.85,0,249.69,0,265.81c0,27.25,83.84,43.92,187.26,43.92s187.26-16.67,187.26-43.92c0-21.91-57.95-37.74-136.93-42.46Z"/>
      <path d="M81.77,228.97c17.21-2.61,36.48-4.55,57.16-5.73v-70.69h-58.29v75.43c0,.61.53,1.07,1.14.98Z"/>
      <rect x="178.37" width="58.29" height="117.86" rx="1" ry="1"/>
      <path d="M249.61,156.62l57.93-49.76c.22-.19.35-.47.35-.76v-51.73c0-.85-1-1.31-1.64-.76l-57.93,49.76c-.22.19-.35.47-.35.76v51.73c0,.85,1,1.31,1.64.76Z"/>
  </g>
</svg>