<?xml version="1.0" encoding="UTF-8"?>
<svg xmlns="http://www.w3.org/2000/svg" viewBox="0 0 415.11 301.36">
  <g>
      <path d="M413.81,152.61c-.48-.63-36.9-47.92-114.29-72.01l54.44-54.44L327.79,0,52.6,275.19l26.16,26.16,65.95-65.94c19.57,3.98,41.06,6.51,64.91,6.51,72.57,0,124.16-23.27,154.67-42.78,33.14-21.22,48.88-42.17,49.53-43.06l1.29-1.73-1.3-1.73ZM209.06,210.19c-13.11,0-25.27-.93-36.74-2.39l8.31-8.31c7.69,4.43,16.57,7.04,26.09,7.04,28.94,0,52.41-23.46,52.41-52.41,0-9.52-2.61-18.38-7.05-26.08l21.83-21.83c54.46,13.76,85.26,40.69,92.93,48.15-10.37,10.08-62.73,55.83-157.77,55.83Z"/>
      <path d="M105.73,190.06c-32.03-13.62-50.85-30.08-56.51-35.62,9.81-9.82,58.68-53.58,148.36-56.23l30.55-30.55c-7.35-.49-14.82-.85-22.64-.85-72.57,0-124.16,23.27-154.67,42.78C17.68,130.8,1.94,151.75,1.29,152.64l-1.29,1.73,1.3,1.73c.4.53,26.12,33.66,79.8,58.59l24.64-24.64Z"/>
  </g>
</svg>