<?xml version="1.0" encoding="UTF-8"?>
<svg xmlns="http://www.w3.org/2000/svg" viewBox="0 0 442.6 321.72">
  <g>
      <path d="M154.53,88.21h-57.12c-.33,0-.57.31-.5.63,2.51,10.41,6.74,20.54,12.61,30.16,4.41,7.24,9.84,14.11,16.14,20.44.2.2.53.2.73,0,6.29-6.31,11.68-13.15,16.06-20.36,5.85-9.63,10.07-19.79,12.57-30.25.08-.32-.17-.63-.5-.63Z"/>
      <path d="M322.24,176.29c-.57-1.98-1.42-4.68-2.55-8.08-1.14-3.4-2.23-6.91-3.3-10.52-.8-2.71-1.46-5.08-1.97-7.11-.13-.5-.83-.51-.96,0-.61,2.36-1.34,4.98-2.17,7.86-1.06,3.69-2.06,7.16-2.98,10.42-.92,3.26-1.67,5.74-2.23,7.44l-13.17,38.46c-.11.32.13.66.47.66h41.34c.34,0,.58-.33.47-.66l-12.96-38.46Z"/>
      <path d="M441.99,63.22h-150.17c-.43,0-.72-.44-.56-.84L316.53,1.04c.2-.5-.16-1.04-.7-1.04H.6c-.33,0-.6.27-.6.6v257.29c0,.33.27.6.6.6h150.17c.43,0,.72.44.56.84l-25.36,61.55c-.16.4.13.84.56.84h315.45c.33,0,.6-.27.6-.6V63.82c0-.33-.27-.6-.6-.6ZM201.99,182.21l-4.6,18.73c-.54,2.29-.54,2.62-2.6,2.19-.21-.04-.45-.1-.69-.15l-.2-.04c-24.08-5.61-45.41-14.87-63.42-27.54-1.4-.98-2.82-2.02-4.25-3.09-.18-.13-.42-.13-.6,0-1.47,1.1-2.94,2.16-4.38,3.17-18.01,12.61-39.29,21.85-63.25,27.45l-.17.03q-2.56.5-3.21-1.63l-.11-.41-4.63-18.88c-.64-2.46-.63-2.56,2.02-3.23.05-.01.1-.03.15-.04,20.93-4.99,39.22-12.73,54.41-23,.03-.33.04-.44.08-.77-7.22-7.51-13.51-15.63-18.71-24.19-8.22-13.52-13.79-27.71-16.58-42.22-.05-.24-.25-.41-.49-.41h-20.4c-.28,0-.5-.23-.5-.5v-23.62c0-.28.23-.5.5-.5h62.61c.28,0,.5-.23.5-.5v-16.98c0-.28.23-.5.5-.5h23.94c.28,0,.5.23.5.5v16.98c0,.28.23.5.5.5h62.61c.28,0,.5.23.5.5v23.62c0,.28-.23.5-.5.5h-20.47c-.24,0-.44.17-.49.4-2.87,14.64-8.47,28.88-16.68,42.39-5.25,8.64-11.61,16.83-18.92,24.38.07.04.13.09.2.13,15.27,10.41,33.64,18.24,54.61,23.27l.26.08q2.58.78,1.94,3.35ZM384.46,278.98h-27.85c-.21,0-.4-.14-.47-.34l-13.59-39.51c-.07-.2-.26-.34-.47-.34h-56.48c-.21,0-.4.14-.47.34l-13.38,39.51c-.07.2-.26.34-.47.34h-27.84c-.35,0-.59-.34-.47-.67l55.34-151.44c.07-.2.26-.33.47-.33h30.34c.21,0,.4.13.47.33l55.34,151.44c.12.33-.12.67-.47.67Z"/>
  </g>
</svg>