<?xml version="1.0" encoding="UTF-8"?>
<svg xmlns="http://www.w3.org/2000/svg" viewBox="0 0 387.17 313.56">
  <g id="Layer_1-2" data-name="Layer 1">
    <g>
      <path class="cls-1" d="M109.55,0H.75c-.41,0-.75.33-.75.75v312.07c0,.41.33.75.75.75h108.81c.41,0,.75-.33.75-.75V.75c0-.41-.33-.75-.75-.75ZM64.48,188.92v-103.07c0-.41.33-.75.75-.75h21.83c.41,0,.75.33.75.75v103.07c0,.41-.33.75-.75.75h-21.83c-.41,0-.75-.33-.75-.75Z"/>
      <path class="cls-1" d="M133.86.75v166.09c0,.41.33.74.74.75l88.66.07c.66,0,1-.8.53-1.27l-16.67-16.67c-.29-.29-.29-.76,0-1.05l14.31-14.31c.29-.29.76-.29,1.05,0l34.27,34.27c.14.14.22.33.22.53v19.51c0,.41-.33.75-.75.75l-121.63-.08c-.41,0-.75.33-.75.75v20.73c0,.41.33.74.74.75l121.63.08c.41,0,.74.33.74.75v20.24c0,.41-.33.75-.75.75l-121.63-.08c-.41,0-.75.33-.75.75v20.73c0,.41.33.74.74.75l120.77.08c.41,0,.74.33.74.75v20.24c0,.41-.33.75-.75.75l-120.77-.08c-.41,0-.75.33-.75.75v34.86c0,.41.33.75.75.75h251.82c.41,0,.75-.33.75-.75V.75c0-.41-.33-.75-.75-.75h-251.82c-.41,0-.75.33-.75.75ZM158.33,120.46V23.29c0-.64.76-.99,1.24-.55l54.01,48.58c.33.3.33.81,0,1.11l-54.01,48.58c-.48.43-1.24.09-1.24-.55Z"/>
    </g>
  </g>
</svg>