<?xml version="1.0" encoding="UTF-8"?>
<svg xmlns="http://www.w3.org/2000/svg" viewBox="0 0 343.09 299.53">
  <g>
      <g>
        <path d="M240.47,235.35c0-20.87-13.26-35.01-33.42-35.01s-33.25,14.15-33.25,35.01,13.26,35.01,33.25,35.01,33.42-14.32,33.42-35.01Z"/>
        <path d="M142.85,235.35c0-35.62,26.11-61.87,59.39-64.18H73.62v28.79h38.51v99.58h90.11c-33.28-2.32-59.39-28.57-59.39-64.18Z"/>
        <path d="M211.85,299.53l92-.03c9.67,0,19.17-3.24,26.48-9.58,8.13-7.04,12.77-16.73,12.77-27.99,0-24.57-19.99-32.82-39.06-39.79-15.59-5.69-28.42-9.35-28.42-16.87,0-6.24,6.05-10.09,15.22-10.09s18.34,5.32,21.46,16.69l29.71-8.07c-.16-.54-.34-1.08-.52-1.62-6.37-18.73-24.38-31.02-44.17-31.02h-85.45c14.9,1.04,28.38,6.88,38.74,16.2-4.3,5.79-6.71,12.47-6.71,19.38,0,22.56,17.79,30.99,33.19,36.86,18.34,6.97,34.11,10.82,34.11,19.99,0,5.87-6.05,10.64-15.95,10.64-13.2,0-23.47-8.99-26.41-19.07l-30.07,8.07c2.75,7.83,8.19,16.45,11.55,20.37-6.68,8.07-23.54,15.62-38.45,15.94Z"/>
      </g>
      <path d="M27.16,147.16h108.09v12.5h108.61V0H29.01L0,29.01v270.52h42.98v-18.41h46.18l-.71-59.79h-41.72l-19.58,21.25v-42.62h30.24v-28.79h-30.24v-24ZM29.34,24.3h31.59l-31.59,31.59v-31.59ZM27.16,126.7v-37.71h108.09v29.03H27.16v18.97-10.29Z"/>
    </g>
</svg>