<?xml version="1.0" encoding="UTF-8"?>
<svg xmlns="http://www.w3.org/2000/svg" viewBox="0 0 599.1 592.5">
  <g>
    <path d="M69.3,250.2l-34.7-20v-78.1c23-13.3,46-26.6,69-39.9l34.5,19.9,160-92.4,228.8,132.1v59h35.8v-77.9S298,0,298,0L103.8,112.1c-11.5-6.7-23.1-13.3-34.6-20-23.1,13.3-46.1,26.6-69.2,40v78.8c11.1,6.4,22.1,12.8,33.2,19.2v228.6s231.9,133.9,231.9,133.9v-43.4l-195.8-113v-185.9Z"/>
    <path d="M492.6,191.7l-194.4-112.2-194.4,112.2v224.5s173.9,100.4,173.9,100.4l214.9-214.9v-110ZM281.5,479.1l-143.3-82.8v-165.5l143.3,82.8v165.5ZM298.1,284.7l-143.3-82.8,143.2-82.7v127.5l110.7-63.8,32.9,19-143.3,82.8Z"/>
    <polygon points="550.2 293.1 299.7 543.6 299.7 592.5 348.7 592.5 527 414.2 527 414.2 527 337.1 565.5 375.7 599.1 342.1 550.2 293.1"/>
  </g>
</svg>