<?xml version="1.0" encoding="UTF-8"?>
<svg xmlns="http://www.w3.org/2000/svg" viewBox="0 0 388.94 388.94">
  <rect x="173.59" y="175.19" width="41.77" height="41.77" transform="translate(-81.69 194.94) rotate(-45)" fill="#333333"/>
  <path d="M194.47,0C87.07,0,0,87.07,0,194.47s87.07,194.47,194.47,194.47,194.47-87.07,194.47-194.47S301.87,0,194.47,0ZM300.2,119.88l-76.19,76.19,76.19,76.2v5.3l-24.24,24.24h-5.3l-76.2-76.19-76.2,76.19h-5.3l-24.24-24.24v-5.3l76.19-76.2-76.19-76.19v-5.3l24.24-24.24h5.3l76.2,76.2,76.2-76.2h5.3l24.24,24.24v5.3Z" fill="#333333"/>
</svg>