<?xml version="1.0" encoding="UTF-8"?>
<svg xmlns="http://www.w3.org/2000/svg" viewBox="0 0 200.527 180.15">
  <polygon points="168.537 14.174 168.537 0 136.101 0 136.101 14.174 0 14.174 0 40.685 136.101 40.685 136.101 56.66 168.537 56.66 168.537 40.685 200.527 40.685 200.527 14.174 168.537 14.174"/>
  <polygon points="50.265 61.295 17.829 61.295 17.829 76.37 0 76.37 0 102.88 17.829 102.88 17.829 117.955 50.265 117.955 50.265 102.88 200.527 102.88 200.527 76.37 50.265 76.37 50.265 61.295"/>
  <polygon points="140.053 123.49 107.617 123.49 107.617 138.565 0 138.565 0 165.075 107.617 165.075 107.617 180.15 140.053 180.15 140.053 165.075 200.527 165.075 200.527 138.565 140.053 138.565 140.053 123.49"/>
</svg>