<?xml version="1.0" encoding="UTF-8"?>
<svg xmlns="http://www.w3.org/2000/svg" viewBox="0 0 388.937 388.9365">
    <path d="M200.8603.1026C88.4052-3.5023-3.5008,88.4024.1025,200.8574c3.27,102.0541,85.9201,184.7051,187.9742,187.9766,112.456,3.605,204.3627-88.3012,200.7578-200.757C385.5631,86.0235,302.9137,3.374,200.8603.1026ZM228.6401,355.0689c-106.0401,21.3905-199.0708-59.5669-198.2177-161.9979C31.1489,105.803,104.5208,31.8462,191.7805,30.438c17.1331-.2764,33.6662,2.0967,49.2416,6.7027,1.2697.3755,2.1342,1.5537,2.1342,2.8778v36.3284c0,2.1136-2.1202,3.5541-4.0913,2.7912-19.8999-7.7018-42.2865-10.4088-65.6312-6.5551-51.2432,8.4593-91.8651,48.6952-100.6893,99.8769-13.4497,78.0105,46.2855,145.6862,121.8124,145.6333,67.4663-.0471,122.8608-54.9077,123.5305-122.3706.2031-20.4674-4.5718-39.7988-13.1836-56.8635-.6074-1.2036-2.207-1.4722-3.1602-.5188l-92.6353,92.635-29.3342,29.3342c-1.1707,1.1707-3.0688,1.1707-4.2396,0l-29.3344-29.3342-50.626-50.6262c-1.1708-1.1708-1.1707-3.0689,0-4.2397l27.2094-27.2095c1.1734-1.1734,3.0759-1.1734,4.2493,0l49.2287,49.2287c.7693.7692,2.0164.7692,2.7854,0l109.3457-109.3459h.0002l14.0072-14.0073c1.1389-1.1389,2.9844-1.1874,4.1602-.0867,39.0233,36.5334,60.187,91.9101,48.962,151.6228-12.1451,64.6071-62.4416,115.7583-126.8823,128.7573Z"/>
</svg>