<?xml version="1.0" encoding="UTF-8"?>
<svg xmlns="http://www.w3.org/2000/svg" viewBox="0 0 295.191 295.187">
  <path d="M286.72.544l-138.919,62.222,84.62,84.62L294.646,8.47c2.253-5.028-2.898-10.179-7.926-7.926Z"/>
  <path d="M91.935,87.789L3.547,127.377c-5.127,2.297-4.567,9.75.846,11.254l117.993,32.778c.674.187,1.201.714,1.389,1.389l32.776,117.996c1.504,5.413,8.957,5.974,11.254.847l39.592-88.389-115.463-115.463Z"/>
  <path d="M257.987,228.709c2.114,2.114,4.885,3.171,7.657,3.171s5.542-1.057,7.657-3.171c4.229-4.229,4.229-11.084,0-15.313L83.317,23.413c-2.114-2.114-4.885-3.172-7.656-3.172s-5.542,1.057-7.657,3.172c-4.229,4.229-4.229,11.084,0,15.313l189.983,189.984Z"/>
</svg>