<?xml version="1.0" encoding="UTF-8"?>
<svg xmlns="http://www.w3.org/2000/svg" viewBox="0 0 295.191 295.187">
  <path d="M241.535,53.654l-73.895,164.968-14.959-53.852c-2.986-10.751-11.519-19.283-22.265-22.267l-53.851-14.959L241.535,53.654M289.203,0c-.808,0-1.646.17-2.482.544L3.547,127.377c-5.127,2.297-4.567,9.75.846,11.254l117.993,32.778c.674.187,1.201.714,1.389,1.389l32.776,117.996c.802,2.886,3.296,4.394,5.797,4.394,2.189,0,4.384-1.154,5.456-3.547L294.647,8.47c1.878-4.193-1.391-8.47-5.444-8.47h0Z"/>
</svg>