<?xml version="1.0" encoding="UTF-8"?>
<svg xmlns="http://www.w3.org/2000/svg" viewBox="0 0 96.221 96.221">
  <path d="M96.221,48.108v.003h-15.009c-.387.382-.607.599-.994.981-.541,18.035-15.948,32.334-34.386,31.062-15.84-1.093-28.672-13.925-29.765-29.765-1.271-18.438,13.027-33.845,31.063-34.386l.981-.994V1.018L47.091.011C20.372.566-.993,22.904.036,49.985c.947,24.935,21.265,45.253,46.2,46.201,27.425,1.042,49.985-20.882,49.985-48.075v-.002Z"/>
  <path d="M95.622,0h-33.248l-.846,2.042,11.456,11.456-34.067,34.067v1.414s8.971,8.971,8.971,8.971h1.414s34.068-34.067,34.068-34.067l10.795,10.795,2.057-.852V.599l-.599-.599Z"/>
</svg>