<svg width="54" height="55" viewBox="0 0 54 55" fill="none" xmlns="http://www.w3.org/2000/svg">
<path d="M45.3293 7.41332C45.2009 7.29467 45.0017 7.30046 44.8791 7.42345L42.4591 9.85007L24.4631 27.8956C24.3361 28.023 24.1312 28.023 24.0042 27.8956L15.7819 19.6506C15.6549 19.5233 15.4485 19.5233 15.3216 19.6506L10.6043 24.3809C10.4773 24.5082 10.4773 24.7137 10.6043 24.841L19.0561 33.3161L24.0042 38.2779C24.1312 38.4052 24.3361 38.4052 24.4631 38.2779L29.4113 33.3161L44.6568 18.0285C44.8141 17.8708 45.0768 17.9157 45.1763 18.1139C46.5934 20.9298 47.3798 24.1204 47.3466 27.4992C47.237 38.6324 38.1199 47.6877 27.0158 47.695C14.1643 47.7036 4.09193 35.7659 7.2334 22.3478C8.94627 15.0347 14.6433 9.27561 21.9234 7.50593C26.4372 6.4091 30.785 6.82584 34.5715 8.34953C34.7837 8.43491 35.0145 8.27574 35.0145 8.04566V1.67596C35.0145 1.53271 34.9207 1.40537 34.7837 1.36341C32.1848 0.579132 29.4228 0.175418 26.5584 0.221722C12.196 0.453243 0.120719 12.6587 0.000947946 27.0622C-0.123152 42.0849 11.9535 54.3078 26.8903 54.3671C41.6957 54.4264 53.872 42.3743 53.999 27.5295C54.0668 19.5768 50.7147 12.4098 45.3293 7.41332Z" fill="#333333"/>
</svg>
